<?xml version="1.0" encoding="UTF-8" standalone="no"?>
<!DOCTYPE svg PUBLIC "-//W3C//DTD SVG 1.1//EN"
 "http://www.w3.org/Graphics/SVG/1.1/DTD/svg11.dtd">
<!-- Generated by graphviz version 12.2.1 (20241206.2353)
 -->
<!-- Title: architecture Pages: 1 -->
<svg width="1744pt" height="497pt"
 viewBox="0.00 0.00 1744.00 496.80" xmlns="http://www.w3.org/2000/svg" xmlns:xlink="http://www.w3.org/1999/xlink">
<g id="graph0" class="graph" transform="scale(1 1) rotate(0) translate(36 460.8)">
<title>architecture</title>
<polygon fill="#1a1a1a" stroke="none" points="-36,36 -36,-460.8 1708,-460.8 1708,36 -36,36"/>
<text text-anchor="middle" x="142.05" y="-9.4" font-family="Helvetica,sans-Serif" font-size="18.00" fill="#dddddd">live&#45;server — Module Architecture</text>
<g id="clust1" class="cluster">
<title>cluster_entry</title>
<polygon fill="#222222" stroke="#444444" stroke-dasharray="5,2" points="8,-184.6 8,-416.8 263,-416.8 263,-184.6 8,-184.6"/>
<text text-anchor="middle" x="54.68" y="-402" font-family="Helvetica,sans-Serif" font-size="12.00" fill="#aaaaaa">Entry &amp; Config</text>
</g>
<g id="clust2" class="cluster">
<title>cluster_core</title>
<polygon fill="#222222" stroke="#444444" stroke-dasharray="5,2" points="271,-37.6 271,-287.2 674,-287.2 674,-37.6 271,-37.6"/>
<text text-anchor="middle" x="311.34" y="-272.4" font-family="Helvetica,sans-Serif" font-size="12.00" fill="#aaaaaa">Server Core</text>
</g>
<g id="clust3" class="cluster">
<title>cluster_http</title>
<polygon fill="#222222" stroke="#444444" stroke-dasharray="5,2" points="1097,-37.6 1097,-146 1664,-146 1664,-37.6 1097,-37.6"/>
<text text-anchor="middle" x="1144.34" y="-131.2" font-family="Helvetica,sans-Serif" font-size="12.00" fill="#aaaaaa">HTTP Protocol</text>
</g>
<g id="clust4" class="cluster">
<title>cluster_file</title>
<polygon fill="#222222" stroke="#444444" stroke-dasharray="5,2" points="1281,-178.8 1281,-287.2 1449,-287.2 1449,-178.8 1281,-178.8"/>
<text text-anchor="middle" x="1320.68" y="-272.4" font-family="Helvetica,sans-Serif" font-size="12.00" fill="#aaaaaa">File Serving</text>
</g>
<g id="clust5" class="cluster">
<title>cluster_livereload</title>
<polygon fill="#222222" stroke="#444444" stroke-dasharray="5,2" points="930,-37.6 930,-287.2 1084,-287.2 1084,-37.6 930,-37.6"/>
<text text-anchor="middle" x="969.69" y="-272.4" font-family="Helvetica,sans-Serif" font-size="12.00" fill="#aaaaaa">Live Reload</text>
</g>
<g id="clust6" class="cluster">
<title>cluster_log</title>
<polygon fill="#222222" stroke="#444444" stroke-dasharray="5,2" points="1110,-178.8 1110,-287.2 1240,-287.2 1240,-178.8 1110,-178.8"/>
<text text-anchor="middle" x="1149.01" y="-272.4" font-family="Helvetica,sans-Serif" font-size="12.00" fill="#aaaaaa">Diagnostics</text>
</g>
<!-- main -->
<g id="node1" class="node">
<title>main</title>
<path fill="#1e3a5f" stroke="#444444" d="M243.21,-364C243.21,-364 174.79,-364 174.79,-364 168.79,-364 162.79,-358 162.79,-352 162.79,-352 162.79,-340 162.79,-340 162.79,-334 168.79,-328 174.79,-328 174.79,-328 243.21,-328 243.21,-328 249.21,-328 255.21,-334 255.21,-340 255.21,-340 255.21,-352 255.21,-352 255.21,-358 249.21,-364 243.21,-364"/>
<text text-anchor="middle" x="209" y="-349.3" font-family="Helvetica,sans-Serif" font-size="11.00" fill="#ffffff">main.c</text>
<text text-anchor="middle" x="209" y="-336.1" font-family="Helvetica,sans-Serif" font-size="11.00" fill="#ffffff">argp CLI parser</text>
</g>
<!-- project_config -->
<g id="node2" class="node">
<title>project_config</title>
<path fill="#2d2d2d" stroke="#444444" d="M119.52,-228.6C119.52,-228.6 28.48,-228.6 28.48,-228.6 22.48,-228.6 16.48,-222.6 16.48,-216.6 16.48,-216.6 16.48,-204.6 16.48,-204.6 16.48,-198.6 22.48,-192.6 28.48,-192.6 28.48,-192.6 119.52,-192.6 119.52,-192.6 125.52,-192.6 131.52,-198.6 131.52,-204.6 131.52,-204.6 131.52,-216.6 131.52,-216.6 131.52,-222.6 125.52,-228.6 119.52,-228.6"/>
<text text-anchor="middle" x="74" y="-213.9" font-family="Helvetica,sans-Serif" font-size="11.00" fill="#dddddd">project_config.h</text>
<text text-anchor="middle" x="74" y="-200.7" font-family="Helvetica,sans-Serif" font-size="11.00" fill="#dddddd">Version, name, URL</text>
</g>
<!-- main&#45;&gt;project_config -->
<g id="edge3" class="edge">
<title>main&#45;&gt;project_config</title>
<path fill="none" stroke="#555555" stroke-dasharray="5,2" d="M189.38,-327.62C176.79,-316.32 160.19,-301.13 146,-287.2 126.21,-267.77 104.36,-244.56 89.98,-229.03"/>
</g>
<!-- types -->
<g id="node3" class="node">
<title>types</title>
<path fill="#2d2d2d" stroke="#444444" d="M243.14,-228.6C243.14,-228.6 172.86,-228.6 172.86,-228.6 166.86,-228.6 160.86,-222.6 160.86,-216.6 160.86,-216.6 160.86,-204.6 160.86,-204.6 160.86,-198.6 166.86,-192.6 172.86,-192.6 172.86,-192.6 243.14,-192.6 243.14,-192.6 249.14,-192.6 255.14,-198.6 255.14,-204.6 255.14,-204.6 255.14,-216.6 255.14,-216.6 255.14,-222.6 249.14,-228.6 243.14,-228.6"/>
<text text-anchor="middle" x="208" y="-213.9" font-family="Helvetica,sans-Serif" font-size="11.00" fill="#dddddd">types.h</text>
<text text-anchor="middle" x="208" y="-200.7" font-family="Helvetica,sans-Serif" font-size="11.00" fill="#dddddd">LivereloadMode</text>
</g>
<!-- main&#45;&gt;types -->
<g id="edge4" class="edge">
<title>main&#45;&gt;types</title>
<path fill="none" stroke="#555555" stroke-dasharray="5,2" d="M208.87,-327.56C208.68,-301.99 208.32,-254.61 208.13,-229.04"/>
</g>
<!-- server -->
<g id="node4" class="node">
<title>server</title>
<path fill="#5a3e1a" stroke="#444444" d="M654.49,-234.4C654.49,-234.4 525.51,-234.4 525.51,-234.4 519.51,-234.4 513.51,-228.4 513.51,-222.4 513.51,-222.4 513.51,-198.8 513.51,-198.8 513.51,-192.8 519.51,-186.8 525.51,-186.8 525.51,-186.8 654.49,-186.8 654.49,-186.8 660.49,-186.8 666.49,-192.8 666.49,-198.8 666.49,-198.8 666.49,-222.4 666.49,-222.4 666.49,-228.4 660.49,-234.4 654.49,-234.4"/>
<text text-anchor="middle" x="590" y="-220.5" font-family="Helvetica,sans-Serif" font-size="11.00" fill="#ffffff">server.c</text>
<text text-anchor="middle" x="590" y="-207.3" font-family="Helvetica,sans-Serif" font-size="11.00" fill="#ffffff">Accept loop, signal handling</text>
<text text-anchor="middle" x="590" y="-194.1" font-family="Helvetica,sans-Serif" font-size="11.00" fill="#ffffff">thread dispatch</text>
</g>
<!-- main&#45;&gt;server -->
<g id="edge1" class="edge">
<title>main&#45;&gt;server</title>
<path fill="none" stroke="#555555" d="M255.34,-328.78C319.36,-306.36 435.69,-265.63 512.91,-238.59"/>
<polygon fill="#555555" stroke="#555555" points="513.83,-241.98 522.11,-235.37 511.52,-235.37 513.83,-241.98"/>
<text text-anchor="middle" x="369.37" y="-297.9" font-family="Helvetica,sans-Serif" font-size="9.00" fill="#999999">ServerConfig</text>
</g>
<!-- log -->
<g id="node15" class="node">
<title>log</title>
<path fill="#3a3a1a" stroke="#444444" d="M1219.9,-234.4C1219.9,-234.4 1130.1,-234.4 1130.1,-234.4 1124.1,-234.4 1118.1,-228.4 1118.1,-222.4 1118.1,-222.4 1118.1,-198.8 1118.1,-198.8 1118.1,-192.8 1124.1,-186.8 1130.1,-186.8 1130.1,-186.8 1219.9,-186.8 1219.9,-186.8 1225.9,-186.8 1231.9,-192.8 1231.9,-198.8 1231.9,-198.8 1231.9,-222.4 1231.9,-222.4 1231.9,-228.4 1225.9,-234.4 1219.9,-234.4"/>
<text text-anchor="middle" x="1175" y="-220.5" font-family="Helvetica,sans-Serif" font-size="11.00" fill="#ffffff">log.c</text>
<text text-anchor="middle" x="1175" y="-207.3" font-family="Helvetica,sans-Serif" font-size="11.00" fill="#ffffff">Thread&#45;safe logger</text>
<text text-anchor="middle" x="1175" y="-194.1" font-family="Helvetica,sans-Serif" font-size="11.00" fill="#ffffff">colours, timestamps</text>
</g>
<!-- main&#45;&gt;log -->
<g id="edge2" class="edge">
<title>main&#45;&gt;log</title>
<path fill="none" stroke="#555555" d="M255.56,-341.23C367.71,-332.26 661.71,-309.32 907.49,-295.2 927.86,-294.03 1072.11,-294.93 1091,-287.2 1113.89,-277.84 1134.6,-259.37 1149.73,-243.03"/>
<polygon fill="#555555" stroke="#555555" points="1152.07,-245.67 1156.11,-235.87 1146.84,-241.01 1152.07,-245.67"/>
<text text-anchor="middle" x="924.74" y="-297.9" font-family="Helvetica,sans-Serif" font-size="9.00" fill="#999999">log_init()</text>
</g>
<!-- transport -->
<g id="node5" class="node">
<title>transport</title>
<path fill="#3d2b1a" stroke="#444444" d="M654.45,-93.2C654.45,-93.2 561.55,-93.2 561.55,-93.2 555.55,-93.2 549.55,-87.2 549.55,-81.2 549.55,-81.2 549.55,-57.6 549.55,-57.6 549.55,-51.6 555.55,-45.6 561.55,-45.6 561.55,-45.6 654.45,-45.6 654.45,-45.6 660.45,-45.6 666.45,-51.6 666.45,-57.6 666.45,-57.6 666.45,-81.2 666.45,-81.2 666.45,-87.2 660.45,-93.2 654.45,-93.2"/>
<text text-anchor="middle" x="608" y="-79.3" font-family="Helvetica,sans-Serif" font-size="11.00" fill="#ffffff">transport.c</text>
<text text-anchor="middle" x="608" y="-66.1" font-family="Helvetica,sans-Serif" font-size="11.00" fill="#ffffff">Opaque socket I/O</text>
<text text-anchor="middle" x="608" y="-52.9" font-family="Helvetica,sans-Serif" font-size="11.00" fill="#ffffff">partial write handling</text>
</g>
<!-- server&#45;&gt;transport -->
<g id="edge5" class="edge">
<title>server&#45;&gt;transport</title>
<path fill="none" stroke="#555555" d="M513.02,-197.2C480.31,-188.66 453.49,-174.99 471.98,-154 481.32,-143.41 522.38,-152.32 535,-146 554.91,-136.02 572.43,-118.38 585.31,-102.64"/>
<polygon fill="#555555" stroke="#555555" points="587.99,-104.89 591.41,-94.86 582.48,-100.57 587.99,-104.89"/>
<text text-anchor="middle" x="492.99" y="-156.7" font-family="Helvetica,sans-Serif" font-size="9.00" fill="#999999">Transport*</text>
</g>
<!-- thread_pool -->
<g id="node6" class="node">
<title>thread_pool</title>
<path fill="#3d2b1a" stroke="#444444" d="M378.69,-93.2C378.69,-93.2 291.31,-93.2 291.31,-93.2 285.31,-93.2 279.31,-87.2 279.31,-81.2 279.31,-81.2 279.31,-57.6 279.31,-57.6 279.31,-51.6 285.31,-45.6 291.31,-45.6 291.31,-45.6 378.69,-45.6 378.69,-45.6 384.69,-45.6 390.69,-51.6 390.69,-57.6 390.69,-57.6 390.69,-81.2 390.69,-81.2 390.69,-87.2 384.69,-93.2 378.69,-93.2"/>
<text text-anchor="middle" x="335" y="-79.3" font-family="Helvetica,sans-Serif" font-size="11.00" fill="#ffffff">thread_pool.c</text>
<text text-anchor="middle" x="335" y="-66.1" font-family="Helvetica,sans-Serif" font-size="11.00" fill="#ffffff">Fixed&#45;size pool</text>
<text text-anchor="middle" x="335" y="-52.9" font-family="Helvetica,sans-Serif" font-size="11.00" fill="#ffffff">circular work queue</text>
</g>
<!-- server&#45;&gt;thread_pool -->
<g id="edge6" class="edge">
<title>server&#45;&gt;thread_pool</title>
<path fill="none" stroke="#555555" d="M513.18,-204.88C451.4,-199.4 371.32,-187.97 348.99,-164.8 333.9,-149.15 330.6,-124.73 330.98,-104.65"/>
<polygon fill="#555555" stroke="#555555" points="334.46,-105.11 331.48,-94.94 327.47,-104.75 334.46,-105.11"/>
<text text-anchor="middle" x="373.99" y="-156.7" font-family="Helvetica,sans-Serif" font-size="9.00" fill="#999999">submit tasks</text>
</g>
<!-- ratelimit -->
<g id="node7" class="node">
<title>ratelimit</title>
<path fill="#3d2b1a" stroke="#444444" d="M508.79,-93.2C508.79,-93.2 431.21,-93.2 431.21,-93.2 425.21,-93.2 419.21,-87.2 419.21,-81.2 419.21,-81.2 419.21,-57.6 419.21,-57.6 419.21,-51.6 425.21,-45.6 431.21,-45.6 431.21,-45.6 508.79,-45.6 508.79,-45.6 514.79,-45.6 520.79,-51.6 520.79,-57.6 520.79,-57.6 520.79,-81.2 520.79,-81.2 520.79,-87.2 514.79,-93.2 508.79,-93.2"/>
<text text-anchor="middle" x="470" y="-79.3" font-family="Helvetica,sans-Serif" font-size="11.00" fill="#ffffff">ratelimit.c</text>
<text text-anchor="middle" x="470" y="-66.1" font-family="Helvetica,sans-Serif" font-size="11.00" fill="#ffffff">Per&#45;IP rate limiter</text>
<text text-anchor="middle" x="470" y="-52.9" font-family="Helvetica,sans-Serif" font-size="11.00" fill="#ffffff">hash table</text>
</g>
<!-- server&#45;&gt;ratelimit -->
<g id="edge7" class="edge">
<title>server&#45;&gt;ratelimit</title>
<path fill="none" stroke="#555555" d="M513.08,-199.79C470.79,-192.65 424.35,-181.3 411.47,-164.8 395.8,-144.71 411.9,-120.21 431.14,-101.21"/>
<polygon fill="#555555" stroke="#555555" points="433.46,-103.83 438.39,-94.46 428.69,-98.71 433.46,-103.83"/>
<text text-anchor="middle" x="435.24" y="-156.7" font-family="Helvetica,sans-Serif" font-size="9.00" fill="#999999">check/leave</text>
</g>
<!-- http -->
<g id="node8" class="node">
<title>http</title>
<path fill="#1a4a3a" stroke="#444444" d="M1241.04,-93.2C1241.04,-93.2 1116.96,-93.2 1116.96,-93.2 1110.96,-93.2 1104.96,-87.2 1104.96,-81.2 1104.96,-81.2 1104.96,-57.6 1104.96,-57.6 1104.96,-51.6 1110.96,-45.6 1116.96,-45.6 1116.96,-45.6 1241.04,-45.6 1241.04,-45.6 1247.04,-45.6 1253.04,-51.6 1253.04,-57.6 1253.04,-57.6 1253.04,-81.2 1253.04,-81.2 1253.04,-87.2 1247.04,-93.2 1241.04,-93.2"/>
<text text-anchor="middle" x="1179" y="-79.3" font-family="Helvetica,sans-Serif" font-size="11.00" fill="#ffffff">http.c</text>
<text text-anchor="middle" x="1179" y="-66.1" font-family="Helvetica,sans-Serif" font-size="11.00" fill="#ffffff">Request parser</text>
<text text-anchor="middle" x="1179" y="-52.9" font-family="Helvetica,sans-Serif" font-size="11.00" fill="#ffffff">URL decode, header parse</text>
</g>
<!-- server&#45;&gt;http -->
<g id="edge8" class="edge">
<title>server&#45;&gt;http</title>
<path fill="none" stroke="#555555" d="M635.28,-186.36C661.36,-174.22 695.17,-160.57 726.97,-154 766.59,-145.81 1053.22,-160.47 1091,-146 1114.86,-136.86 1136.69,-118.21 1152.64,-101.72"/>
<polygon fill="#555555" stroke="#555555" points="1155.14,-104.17 1159.39,-94.46 1150.01,-99.4 1155.14,-104.17"/>
<text text-anchor="middle" x="754.48" y="-156.7" font-family="Helvetica,sans-Serif" font-size="9.00" fill="#999999">parse request</text>
</g>
<!-- auth -->
<g id="node11" class="node">
<title>auth</title>
<path fill="#1a4a3a" stroke="#444444" d="M1362.23,-93.2C1362.23,-93.2 1293.77,-93.2 1293.77,-93.2 1287.77,-93.2 1281.77,-87.2 1281.77,-81.2 1281.77,-81.2 1281.77,-57.6 1281.77,-57.6 1281.77,-51.6 1287.77,-45.6 1293.77,-45.6 1293.77,-45.6 1362.23,-45.6 1362.23,-45.6 1368.23,-45.6 1374.23,-51.6 1374.23,-57.6 1374.23,-57.6 1374.23,-81.2 1374.23,-81.2 1374.23,-87.2 1368.23,-93.2 1362.23,-93.2"/>
<text text-anchor="middle" x="1328" y="-79.3" font-family="Helvetica,sans-Serif" font-size="11.00" fill="#ffffff">auth.c</text>
<text text-anchor="middle" x="1328" y="-66.1" font-family="Helvetica,sans-Serif" font-size="11.00" fill="#ffffff">Basic Auth</text>
<text text-anchor="middle" x="1328" y="-52.9" font-family="Helvetica,sans-Serif" font-size="11.00" fill="#ffffff">Base64 decode</text>
</g>
<!-- server&#45;&gt;auth -->
<g id="edge9" class="edge">
<title>server&#45;&gt;auth</title>
<path fill="none" stroke="#555555" d="M666.69,-202.31C734.18,-195.94 835.09,-186.53 923,-178.8 997.64,-172.24 1017,-176.51 1091,-164.8 1111.73,-161.52 1116.21,-157.05 1136.98,-154 1165.84,-149.76 1242.13,-159.48 1268,-146 1286.09,-136.57 1300.54,-119.02 1310.73,-103.19"/>
<polygon fill="#555555" stroke="#555555" points="1313.53,-105.31 1315.73,-94.95 1307.55,-101.68 1313.53,-105.31"/>
<text text-anchor="middle" x="1160.99" y="-156.7" font-family="Helvetica,sans-Serif" font-size="9.00" fill="#999999">check creds</text>
</g>
<!-- file -->
<g id="node12" class="node">
<title>file</title>
<path fill="#4a1a3a" stroke="#444444" d="M1428.87,-234.4C1428.87,-234.4 1301.13,-234.4 1301.13,-234.4 1295.13,-234.4 1289.13,-228.4 1289.13,-222.4 1289.13,-222.4 1289.13,-198.8 1289.13,-198.8 1289.13,-192.8 1295.13,-186.8 1301.13,-186.8 1301.13,-186.8 1428.87,-186.8 1428.87,-186.8 1434.87,-186.8 1440.87,-192.8 1440.87,-198.8 1440.87,-198.8 1440.87,-222.4 1440.87,-222.4 1440.87,-228.4 1434.87,-234.4 1428.87,-234.4"/>
<text text-anchor="middle" x="1365" y="-220.5" font-family="Helvetica,sans-Serif" font-size="11.00" fill="#ffffff">file.c</text>
<text text-anchor="middle" x="1365" y="-207.3" font-family="Helvetica,sans-Serif" font-size="11.00" fill="#ffffff">File serving, range requests</text>
<text text-anchor="middle" x="1365" y="-194.1" font-family="Helvetica,sans-Serif" font-size="11.00" fill="#ffffff">safe_path, ETag, LR inject</text>
</g>
<!-- server&#45;&gt;file -->
<g id="edge11" class="edge">
<title>server&#45;&gt;file</title>
<path fill="none" stroke="#555555" d="M666.93,-232.4C733.93,-250.19 834.01,-273.9 923,-283.53 1066.16,-299.03 1108.48,-322.89 1247,-283.53 1276.19,-275.24 1305.23,-257.44 1327.2,-241.51"/>
<polygon fill="#555555" stroke="#555555" points="1329.02,-244.51 1334.95,-235.73 1324.84,-238.9 1329.02,-244.51"/>
<text text-anchor="middle" x="978" y="-297.9" font-family="Helvetica,sans-Serif" font-size="9.00" fill="#999999">dispatch serve</text>
</g>
<!-- livereload -->
<g id="node13" class="node">
<title>livereload</title>
<path fill="#2a4a3a" stroke="#444444" d="M1048.2,-234.4C1048.2,-234.4 949.8,-234.4 949.8,-234.4 943.8,-234.4 937.8,-228.4 937.8,-222.4 937.8,-222.4 937.8,-198.8 937.8,-198.8 937.8,-192.8 943.8,-186.8 949.8,-186.8 949.8,-186.8 1048.2,-186.8 1048.2,-186.8 1054.2,-186.8 1060.2,-192.8 1060.2,-198.8 1060.2,-198.8 1060.2,-222.4 1060.2,-222.4 1060.2,-228.4 1054.2,-234.4 1048.2,-234.4"/>
<text text-anchor="middle" x="999" y="-220.5" font-family="Helvetica,sans-Serif" font-size="11.00" fill="#ffffff">livereload.c</text>
<text text-anchor="middle" x="999" y="-207.3" font-family="Helvetica,sans-Serif" font-size="11.00" fill="#ffffff">SSE connections</text>
<text text-anchor="middle" x="999" y="-194.1" font-family="Helvetica,sans-Serif" font-size="11.00" fill="#ffffff">broadcast, heartbeats</text>
</g>
<!-- server&#45;&gt;livereload -->
<g id="edge10" class="edge">
<title>server&#45;&gt;livereload</title>
<path fill="none" stroke="#555555" d="M666.93,-210.6C741.28,-210.6 853.09,-210.6 926.06,-210.6"/>
<polygon fill="#555555" stroke="#555555" points="925.92,-214.1 935.92,-210.6 925.92,-207.1 925.92,-214.1"/>
<text text-anchor="middle" x="802.15" y="-216.3" font-family="Helvetica,sans-Serif" font-size="9.00" fill="#999999">start/stop</text>
</g>
<!-- http&#45;&gt;transport -->
<g id="edge12" class="edge">
<title>http&#45;&gt;transport</title>
<path fill="none" stroke="#555555" d="M1158.64,-93.5C1142.36,-110.78 1117.88,-132.64 1091,-142.33 946.58,-194.4 764.9,-136.36 670.86,-97.9"/>
<polygon fill="#555555" stroke="#555555" points="672.36,-94.74 661.78,-94.13 669.67,-101.2 672.36,-94.74"/>
<text text-anchor="middle" x="824" y="-156.7" font-family="Helvetica,sans-Serif" font-size="9.00" fill="#999999">read raw headers</text>
</g>
<!-- response -->
<g id="node9" class="node">
<title>response</title>
<path fill="#1a4a3a" stroke="#444444" d="M1511.27,-93.2C1511.27,-93.2 1414.73,-93.2 1414.73,-93.2 1408.73,-93.2 1402.73,-87.2 1402.73,-81.2 1402.73,-81.2 1402.73,-57.6 1402.73,-57.6 1402.73,-51.6 1408.73,-45.6 1414.73,-45.6 1414.73,-45.6 1511.27,-45.6 1511.27,-45.6 1517.27,-45.6 1523.27,-51.6 1523.27,-57.6 1523.27,-57.6 1523.27,-81.2 1523.27,-81.2 1523.27,-87.2 1517.27,-93.2 1511.27,-93.2"/>
<text text-anchor="middle" x="1463" y="-79.3" font-family="Helvetica,sans-Serif" font-size="11.00" fill="#ffffff">response.c</text>
<text text-anchor="middle" x="1463" y="-66.1" font-family="Helvetica,sans-Serif" font-size="11.00" fill="#ffffff">Response builder</text>
<text text-anchor="middle" x="1463" y="-52.9" font-family="Helvetica,sans-Serif" font-size="11.00" fill="#ffffff">error pages, redirects</text>
</g>
<!-- response&#45;&gt;transport -->
<g id="edge13" class="edge">
<title>response&#45;&gt;transport</title>
<path fill="none" stroke="#555555" d="M1446.7,-93.41C1433.44,-110.64 1413.03,-132.48 1389,-142.33 1293.18,-181.61 1025.89,-154.09 923,-142.33 837.37,-132.55 741.15,-108.27 677.85,-90.4"/>
<polygon fill="#555555" stroke="#555555" points="678.84,-87.04 668.26,-87.67 676.92,-93.77 678.84,-87.04"/>
<text text-anchor="middle" x="893" y="-156.7" font-family="Helvetica,sans-Serif" font-size="9.00" fill="#999999">write response</text>
</g>
<!-- mime -->
<g id="node10" class="node">
<title>mime</title>
<path fill="#1a4a3a" stroke="#444444" d="M1644.02,-93.2C1644.02,-93.2 1563.98,-93.2 1563.98,-93.2 1557.98,-93.2 1551.98,-87.2 1551.98,-81.2 1551.98,-81.2 1551.98,-57.6 1551.98,-57.6 1551.98,-51.6 1557.98,-45.6 1563.98,-45.6 1563.98,-45.6 1644.02,-45.6 1644.02,-45.6 1650.02,-45.6 1656.02,-51.6 1656.02,-57.6 1656.02,-57.6 1656.02,-81.2 1656.02,-81.2 1656.02,-87.2 1650.02,-93.2 1644.02,-93.2"/>
<text text-anchor="middle" x="1604" y="-79.3" font-family="Helvetica,sans-Serif" font-size="11.00" fill="#ffffff">mime.c</text>
<text text-anchor="middle" x="1604" y="-66.1" font-family="Helvetica,sans-Serif" font-size="11.00" fill="#ffffff">MIME type lookup</text>
<text text-anchor="middle" x="1604" y="-52.9" font-family="Helvetica,sans-Serif" font-size="11.00" fill="#ffffff">extension table</text>
</g>
<!-- file&#45;&gt;http -->
<g id="edge16" class="edge">
<title>file&#45;&gt;http</title>
<path fill="none" stroke="#555555" stroke-dasharray="5,2" d="M1326.97,-186.59C1308.48,-174.98 1286.16,-160.34 1267,-146 1248.36,-132.05 1228.61,-115.28 1212.56,-101.09"/>
<polygon fill="#555555" stroke="#555555" points="1214.97,-98.55 1205.18,-94.51 1210.31,-103.77 1214.97,-98.55"/>
<text text-anchor="middle" x="1328.42" y="-156.7" font-family="Helvetica,sans-Serif" font-size="9.00" fill="#999999">read HttpRequest</text>
</g>
<!-- file&#45;&gt;response -->
<g id="edge14" class="edge">
<title>file&#45;&gt;response</title>
<path fill="none" stroke="#555555" d="M1369.48,-186.4C1372.13,-176.02 1376.13,-163.91 1381.98,-154 1383.85,-150.82 1409.97,-124.06 1432.05,-101.65"/>
<polygon fill="#555555" stroke="#555555" points="1434.35,-104.3 1438.88,-94.73 1429.37,-99.38 1434.35,-104.3"/>
<text text-anchor="middle" x="1402.99" y="-156.7" font-family="Helvetica,sans-Serif" font-size="9.00" fill="#999999">send_file()</text>
</g>
<!-- file&#45;&gt;mime -->
<g id="edge15" class="edge">
<title>file&#45;&gt;mime</title>
<path fill="none" stroke="#555555" d="M1441.33,-190.61C1472.98,-180.5 1509,-165.95 1538,-146 1554.88,-134.39 1570.18,-117.49 1581.79,-102.62"/>
<polygon fill="#555555" stroke="#555555" points="1584.38,-104.98 1587.61,-94.89 1578.79,-100.77 1584.38,-104.98"/>
<text text-anchor="middle" x="1562.23" y="-156.7" font-family="Helvetica,sans-Serif" font-size="9.00" fill="#999999">mime_from_path()</text>
</g>
<!-- livereload&#45;&gt;transport -->
<g id="edge18" class="edge">
<title>livereload&#45;&gt;transport</title>
<path fill="none" stroke="#555555" d="M937.43,-203.61C814.3,-191.61 549.3,-165.69 548.49,-164.8 531.12,-145.61 548.08,-120.75 568.28,-101.35"/>
<polygon fill="#555555" stroke="#555555" points="570.56,-104.01 575.61,-94.69 565.85,-98.82 570.56,-104.01"/>
<text text-anchor="middle" x="568.24" y="-156.7" font-family="Helvetica,sans-Serif" font-size="9.00" fill="#999999">SSE write</text>
</g>
<!-- livereload&#45;&gt;response -->
<g id="edge19" class="edge">
<title>livereload&#45;&gt;response</title>
<path fill="none" stroke="#555555" stroke-dasharray="5,2" d="M1060.49,-189.81C1074.37,-185.78 1089.11,-181.85 1103,-178.8 1140.29,-170.6 1235.04,-158.07 1273,-154 1298.69,-151.24 1365.54,-156.83 1389,-146 1413.51,-134.68 1434.27,-111.44 1447.51,-93.69"/>
</g>
<!-- watcher -->
<g id="node14" class="node">
<title>watcher</title>
<path fill="#2a4a3a" stroke="#444444" d="M1063.82,-93.2C1063.82,-93.2 950.18,-93.2 950.18,-93.2 944.18,-93.2 938.18,-87.2 938.18,-81.2 938.18,-81.2 938.18,-57.6 938.18,-57.6 938.18,-51.6 944.18,-45.6 950.18,-45.6 950.18,-45.6 1063.82,-45.6 1063.82,-45.6 1069.82,-45.6 1075.82,-51.6 1075.82,-57.6 1075.82,-57.6 1075.82,-81.2 1075.82,-81.2 1075.82,-87.2 1069.82,-93.2 1063.82,-93.2"/>
<text text-anchor="middle" x="1007" y="-79.3" font-family="Helvetica,sans-Serif" font-size="11.00" fill="#ffffff">watcher.c</text>
<text text-anchor="middle" x="1007" y="-66.1" font-family="Helvetica,sans-Serif" font-size="11.00" fill="#ffffff">inotify (Linux) / poll</text>
<text text-anchor="middle" x="1007" y="-52.9" font-family="Helvetica,sans-Serif" font-size="11.00" fill="#ffffff">recursive directory watch</text>
</g>
<!-- livereload&#45;&gt;watcher -->
<g id="edge17" class="edge">
<title>livereload&#45;&gt;watcher</title>
<path fill="none" stroke="#555555" d="M1000.34,-186.3C1001.62,-163.98 1003.57,-130.05 1005.03,-104.65"/>
<polygon fill="#555555" stroke="#555555" points="1008.52,-105.01 1005.6,-94.82 1001.53,-104.61 1008.52,-105.01"/>
<text text-anchor="middle" x="1027.06" y="-156.7" font-family="Helvetica,sans-Serif" font-size="9.00" fill="#999999">create / start</text>
</g>
<!-- log&#45;&gt;server -->
<g id="edge20" class="edge">
<title>log&#45;&gt;server</title>
<path fill="none" stroke="#555555" stroke-dasharray="5,2" d="M1152.37,-243.73C1134.71,-266.45 1107.93,-294.72 1076.5,-307.6 1019.33,-331.02 998.71,-315.98 937.5,-307.6 837.28,-293.87 725.21,-258.86 656.13,-234.88"/>
<polygon fill="#555555" stroke="#555555" points="1155.03,-246.02 1158.24,-235.92 1149.43,-241.81 1155.03,-246.02"/>
</g>
<!-- log&#45;&gt;transport -->
<g id="edge23" class="edge">
<title>log&#45;&gt;transport</title>
<path fill="none" stroke="#555555" stroke-dasharray="5,2" d="M1108.22,-182.99C1102.46,-181.35 1096.67,-179.91 1091,-178.8 1047.57,-170.3 733.1,-183.51 693,-164.8 660.82,-149.79 635.5,-116.32 621.13,-93.55"/>
<polygon fill="#555555" stroke="#555555" points="1107.19,-186.34 1117.77,-185.94 1109.25,-179.65 1107.19,-186.34"/>
</g>
<!-- log&#45;&gt;thread_pool -->
<g id="edge24" class="edge">
<title>log&#45;&gt;thread_pool</title>
<path fill="none" stroke="#555555" stroke-dasharray="5,2" d="M1108.22,-182.98C1102.46,-181.33 1096.67,-179.9 1091,-178.8 997.81,-160.67 758.52,-173.71 664,-164.8 633.1,-161.89 625.89,-157.06 595,-154 573.97,-151.92 424.18,-154.87 405,-146 380.97,-134.89 361.33,-111.36 349.03,-93.48"/>
<polygon fill="#555555" stroke="#555555" points="1107.19,-186.32 1117.78,-185.92 1109.25,-179.63 1107.19,-186.32"/>
</g>
<!-- log&#45;&gt;ratelimit -->
<g id="edge26" class="edge">
<title>log&#45;&gt;ratelimit</title>
<path fill="none" stroke="#555555" stroke-dasharray="5,2" d="M1108.22,-182.99C1102.46,-181.35 1096.67,-179.91 1091,-178.8 919.92,-145.26 871.21,-191.94 699,-164.8 681.66,-162.07 678.3,-156.97 661,-154 633.35,-149.25 560.11,-158.51 535,-146 512.22,-134.66 494.17,-111.41 482.93,-93.68"/>
<polygon fill="#555555" stroke="#555555" points="1107.19,-186.34 1117.77,-185.94 1109.25,-179.65 1107.19,-186.34"/>
</g>
<!-- log&#45;&gt;http -->
<g id="edge22" class="edge">
<title>log&#45;&gt;http</title>
<path fill="none" stroke="#555555" stroke-dasharray="5,2" d="M1243.2,-185.96C1253.42,-183.13 1263.92,-180.6 1274,-178.8 1303.24,-173.57 1520.55,-186.35 1541,-164.8 1544.3,-161.32 1544.34,-157.44 1541,-154 1530.39,-143.08 1281.2,-151.5 1267,-146 1239.2,-135.24 1214.13,-111.65 1197.93,-93.67"/>
<polygon fill="#555555" stroke="#555555" points="1242.33,-182.57 1233.7,-188.72 1244.28,-189.29 1242.33,-182.57"/>
</g>
<!-- log&#45;&gt;mime -->
<g id="edge28" class="edge">
<title>log&#45;&gt;mime</title>
<path fill="none" stroke="#555555" stroke-dasharray="5,2" d="M1243.19,-185.93C1253.42,-183.1 1263.91,-180.58 1274,-178.8 1305.77,-173.19 1537.54,-183.26 1564,-164.8 1587.36,-148.51 1597.14,-115.7 1601.2,-93.39"/>
<polygon fill="#555555" stroke="#555555" points="1242.32,-182.53 1233.69,-188.68 1244.27,-189.26 1242.32,-182.53"/>
</g>
<!-- log&#45;&gt;auth -->
<g id="edge27" class="edge">
<title>log&#45;&gt;auth</title>
<path fill="none" stroke="#555555" stroke-dasharray="5,2" d="M1243.19,-185.93C1253.42,-183.1 1263.91,-180.58 1274,-178.8 1305.77,-173.19 1541.75,-188.15 1564,-164.8 1567.31,-161.33 1567.32,-157.47 1564,-154 1550.48,-139.85 1405.43,-154.91 1388,-146 1365.92,-134.71 1349.32,-111.21 1339.24,-93.38"/>
<polygon fill="#555555" stroke="#555555" points="1242.32,-182.53 1233.69,-188.68 1244.27,-189.26 1242.32,-182.53"/>
</g>
<!-- log&#45;&gt;file -->
<g id="edge21" class="edge">
<title>log&#45;&gt;file</title>
<path fill="none" stroke="#555555" stroke-dasharray="5,2" d="M1243.64,-210.6C1258.66,-210.6 1273.69,-210.6 1288.71,-210.6"/>
<polygon fill="#555555" stroke="#555555" points="1243.66,-207.1 1233.66,-210.6 1243.66,-214.1 1243.66,-207.1"/>
</g>
<!-- log&#45;&gt;livereload -->
<g id="edge25" class="edge">
<title>log&#45;&gt;livereload</title>
<path fill="none" stroke="#555555" stroke-dasharray="5,2" d="M1106.59,-210.6C1091.24,-210.6 1075.88,-210.6 1060.53,-210.6"/>
<polygon fill="#555555" stroke="#555555" points="1106.25,-214.1 1116.25,-210.6 1106.25,-207.1 1106.25,-214.1"/>
</g>
</g>
</svg>
