<?xml version="1.0" encoding="UTF-8" standalone="no"?>
<!DOCTYPE svg PUBLIC "-//W3C//DTD SVG 1.1//EN"
 "http://www.w3.org/Graphics/SVG/1.1/DTD/svg11.dtd">
<!-- Generated by graphviz version 2.43.0 (0)
 -->
<!-- Title: architecture Pages: 1 -->
<svg width="2144pt" height="476pt"
 viewBox="0.00 0.00 2143.60 475.60" xmlns="http://www.w3.org/2000/svg" xmlns:xlink="http://www.w3.org/1999/xlink">
<g id="graph0" class="graph" transform="scale(1 1) rotate(0) translate(28.8 446.8)">
<title>architecture</title>
<polygon fill="#fcfcfb" stroke="transparent" points="-28.8,28.8 -28.8,-446.8 2114.8,-446.8 2114.8,28.8 -28.8,28.8"/>
<text text-anchor="middle" x="162" y="-9.6" font-family="Helvetica,sans-Serif" font-size="18.00" fill="#1a1a1a">live&#45;server — Module Architecture</text>
<g id="clust1" class="cluster">
<title>cluster_entry</title>
<polygon fill="#f6f5f2" stroke="#dedcd6" stroke-dasharray="5,2" points="8,-180 8,-410 283,-410 283,-180 8,-180"/>
<text text-anchor="middle" x="59.5" y="-396.4" font-family="Helvetica,sans-Serif" font-size="12.00" fill="#8a8983">Entry &amp; Config</text>
</g>
<g id="clust2" class="cluster">
<title>cluster_core</title>
<polygon fill="#f6f5f2" stroke="#dedcd6" stroke-dasharray="5,2" points="291,-36 291,-278 750,-278 750,-36 291,-36"/>
<text text-anchor="middle" x="335" y="-264.4" font-family="Helvetica,sans-Serif" font-size="12.00" fill="#8a8983">Server Core</text>
</g>
<g id="clust3" class="cluster">
<title>cluster_http</title>
<polygon fill="#f6f5f2" stroke="#dedcd6" stroke-dasharray="5,2" points="763,-36 763,-138 1530,-138 1530,-36 763,-36"/>
<text text-anchor="middle" x="812.5" y="-124.4" font-family="Helvetica,sans-Serif" font-size="12.00" fill="#8a8983">HTTP Protocol</text>
</g>
<g id="clust4" class="cluster">
<title>cluster_file</title>
<polygon fill="#f6f5f2" stroke="#dedcd6" stroke-dasharray="5,2" points="1904,-170 1904,-284 2078,-284 2078,-170 1904,-170"/>
<text text-anchor="middle" x="1946.5" y="-270.4" font-family="Helvetica,sans-Serif" font-size="12.00" fill="#8a8983">File Serving</text>
</g>
<g id="clust5" class="cluster">
<title>cluster_livereload</title>
<polygon fill="#f6f5f2" stroke="#dedcd6" stroke-dasharray="5,2" points="1543,-36 1543,-278 1683,-278 1683,-36 1543,-36"/>
<text text-anchor="middle" x="1585.5" y="-264.4" font-family="Helvetica,sans-Serif" font-size="12.00" fill="#8a8983">Live Reload</text>
</g>
<g id="clust6" class="cluster">
<title>cluster_log</title>
<polygon fill="#f6f5f2" stroke="#dedcd6" stroke-dasharray="5,2" points="1718,-176 1718,-278 1862,-278 1862,-176 1718,-176"/>
<text text-anchor="middle" x="1760.5" y="-264.4" font-family="Helvetica,sans-Serif" font-size="12.00" fill="#8a8983">Diagnostics</text>
</g>
<g id="clust7" class="cluster">
<title>cluster_util</title>
<polygon fill="#f6f5f2" stroke="#dedcd6" stroke-dasharray="5,2" points="1918,-36 1918,-138 2064,-138 2064,-36 1918,-36"/>
<text text-anchor="middle" x="1948" y="-124.4" font-family="Helvetica,sans-Serif" font-size="12.00" fill="#8a8983">Utilities</text>
</g>
<!-- main -->
<g id="node1" class="node">
<title>main</title>
<path fill="#e8f0fc" stroke="#1e50a2" d="M262.5,-360C262.5,-360 185.5,-360 185.5,-360 179.5,-360 173.5,-354 173.5,-348 173.5,-348 173.5,-336 173.5,-336 173.5,-330 179.5,-324 185.5,-324 185.5,-324 262.5,-324 262.5,-324 268.5,-324 274.5,-330 274.5,-336 274.5,-336 274.5,-348 274.5,-348 274.5,-354 268.5,-360 262.5,-360"/>
<text text-anchor="middle" x="224" y="-345.2" font-family="Helvetica,sans-Serif" font-size="11.00" fill="#1e50a2">main.c</text>
<text text-anchor="middle" x="224" y="-333.2" font-family="Helvetica,sans-Serif" font-size="11.00" fill="#1e50a2">argp CLI parser</text>
</g>
<!-- project_config -->
<g id="node2" class="node">
<title>project_config</title>
<path fill="#ffffff" stroke="#d8d7d2" d="M129.5,-224C129.5,-224 28.5,-224 28.5,-224 22.5,-224 16.5,-218 16.5,-212 16.5,-212 16.5,-200 16.5,-200 16.5,-194 22.5,-188 28.5,-188 28.5,-188 129.5,-188 129.5,-188 135.5,-188 141.5,-194 141.5,-200 141.5,-200 141.5,-212 141.5,-212 141.5,-218 135.5,-224 129.5,-224"/>
<text text-anchor="middle" x="79" y="-209.2" font-family="Helvetica,sans-Serif" font-size="11.00" fill="#6b6a66">project_config.h</text>
<text text-anchor="middle" x="79" y="-197.2" font-family="Helvetica,sans-Serif" font-size="11.00" fill="#6b6a66">Version, name, URL</text>
</g>
<!-- main&#45;&gt;project_config -->
<g id="edge3" class="edge">
<title>main&#45;&gt;project_config</title>
<path fill="none" stroke="#c7c6c0" stroke-dasharray="5,2" d="M203.13,-323.92C189.74,-312.8 172.09,-297.83 157,-284 135.26,-264.07 111.25,-240.05 95.69,-224.19"/>
</g>
<!-- types -->
<g id="node3" class="node">
<title>types</title>
<path fill="#ffffff" stroke="#d8d7d2" d="M263,-224C263,-224 183,-224 183,-224 177,-224 171,-218 171,-212 171,-212 171,-200 171,-200 171,-194 177,-188 183,-188 183,-188 263,-188 263,-188 269,-188 275,-194 275,-200 275,-200 275,-212 275,-212 275,-218 269,-224 263,-224"/>
<text text-anchor="middle" x="223" y="-209.2" font-family="Helvetica,sans-Serif" font-size="11.00" fill="#6b6a66">types.h</text>
<text text-anchor="middle" x="223" y="-197.2" font-family="Helvetica,sans-Serif" font-size="11.00" fill="#6b6a66">LivereloadMode</text>
</g>
<!-- main&#45;&gt;types -->
<g id="edge4" class="edge">
<title>main&#45;&gt;types</title>
<path fill="none" stroke="#c7c6c0" stroke-dasharray="5,2" d="M223.87,-323.76C223.68,-298.03 223.32,-249.87 223.13,-224.18"/>
</g>
<!-- server -->
<g id="node4" class="node">
<title>server</title>
<path fill="#faeeda" stroke="#854f0b" d="M729.5,-228C729.5,-228 582.5,-228 582.5,-228 576.5,-228 570.5,-222 570.5,-216 570.5,-216 570.5,-196 570.5,-196 570.5,-190 576.5,-184 582.5,-184 582.5,-184 729.5,-184 729.5,-184 735.5,-184 741.5,-190 741.5,-196 741.5,-196 741.5,-216 741.5,-216 741.5,-222 735.5,-228 729.5,-228"/>
<text text-anchor="middle" x="656" y="-215.2" font-family="Helvetica,sans-Serif" font-size="11.00" fill="#854f0b">server.c</text>
<text text-anchor="middle" x="656" y="-203.2" font-family="Helvetica,sans-Serif" font-size="11.00" fill="#854f0b">Accept loop, signal handling</text>
<text text-anchor="middle" x="656" y="-191.2" font-family="Helvetica,sans-Serif" font-size="11.00" fill="#854f0b">thread dispatch</text>
</g>
<!-- main&#45;&gt;server -->
<g id="edge1" class="edge">
<title>main&#45;&gt;server</title>
<path fill="none" stroke="#9c9b95" d="M274.83,-325.23C350.58,-301.74 493.57,-257.38 581.26,-230.18"/>
<polygon fill="#9c9b95" stroke="#9c9b95" points="582.03,-232.51 587.99,-228.09 580.58,-227.83 582.03,-232.51"/>
<text text-anchor="middle" x="405.5" y="-294.8" font-family="Helvetica,sans-Serif" font-size="9.00" fill="#6b6a66">ServerConfig</text>
</g>
<!-- log -->
<g id="node16" class="node">
<title>log</title>
<path fill="#faf6d8" stroke="#8a7a0f" d="M1842,-228C1842,-228 1738,-228 1738,-228 1732,-228 1726,-222 1726,-216 1726,-216 1726,-196 1726,-196 1726,-190 1732,-184 1738,-184 1738,-184 1842,-184 1842,-184 1848,-184 1854,-190 1854,-196 1854,-196 1854,-216 1854,-216 1854,-222 1848,-228 1842,-228"/>
<text text-anchor="middle" x="1790" y="-215.2" font-family="Helvetica,sans-Serif" font-size="11.00" fill="#8a7a0f">log.c</text>
<text text-anchor="middle" x="1790" y="-203.2" font-family="Helvetica,sans-Serif" font-size="11.00" fill="#8a7a0f">Lock&#45;free ring buffer</text>
<text text-anchor="middle" x="1790" y="-191.2" font-family="Helvetica,sans-Serif" font-size="11.00" fill="#8a7a0f">consumer thread</text>
</g>
<!-- main&#45;&gt;log -->
<g id="edge2" class="edge">
<title>main&#45;&gt;log</title>
<path fill="none" stroke="#9c9b95" d="M274.54,-338.04C423.42,-329.45 873.36,-304.32 1247,-292 1271.6,-291.19 1666.77,-292.14 1690,-284 1719.3,-273.73 1746.79,-251.24 1765.51,-233.21"/>
<polygon fill="#9c9b95" stroke="#9c9b95" points="1767.28,-234.91 1770.55,-228.25 1763.84,-231.41 1767.28,-234.91"/>
<text text-anchor="middle" x="1267" y="-294.8" font-family="Helvetica,sans-Serif" font-size="9.00" fill="#6b6a66">log_init()</text>
</g>
<!-- transport -->
<g id="node5" class="node">
<title>transport</title>
<path fill="#faeeda" stroke="#854f0b" d="M730,-88C730,-88 620,-88 620,-88 614,-88 608,-82 608,-76 608,-76 608,-56 608,-56 608,-50 614,-44 620,-44 620,-44 730,-44 730,-44 736,-44 742,-50 742,-56 742,-56 742,-76 742,-76 742,-82 736,-88 730,-88"/>
<text text-anchor="middle" x="675" y="-75.2" font-family="Helvetica,sans-Serif" font-size="11.00" fill="#854f0b">transport.c</text>
<text text-anchor="middle" x="675" y="-63.2" font-family="Helvetica,sans-Serif" font-size="11.00" fill="#854f0b">Opaque socket I/O</text>
<text text-anchor="middle" x="675" y="-51.2" font-family="Helvetica,sans-Serif" font-size="11.00" fill="#854f0b">partial write, writev()</text>
</g>
<!-- server&#45;&gt;transport -->
<g id="edge5" class="edge">
<title>server&#45;&gt;transport</title>
<path fill="none" stroke="#9c9b95" d="M597.51,-183.87C580.52,-174.2 568.74,-161.43 578,-146 581.89,-139.52 586.77,-142.28 593,-138 612.49,-124.61 632.59,-107.27 648.01,-93.08"/>
<polygon fill="#9c9b95" stroke="#9c9b95" points="650.01,-94.57 653.47,-88.01 646.68,-90.98 650.01,-94.57"/>
<text text-anchor="middle" x="602" y="-148.8" font-family="Helvetica,sans-Serif" font-size="9.00" fill="#6b6a66">Transport*</text>
</g>
<!-- thread_pool -->
<g id="node6" class="node">
<title>thread_pool</title>
<path fill="#faeeda" stroke="#854f0b" d="M566.5,-88C566.5,-88 465.5,-88 465.5,-88 459.5,-88 453.5,-82 453.5,-76 453.5,-76 453.5,-56 453.5,-56 453.5,-50 459.5,-44 465.5,-44 465.5,-44 566.5,-44 566.5,-44 572.5,-44 578.5,-50 578.5,-56 578.5,-56 578.5,-76 578.5,-76 578.5,-82 572.5,-88 566.5,-88"/>
<text text-anchor="middle" x="516" y="-75.2" font-family="Helvetica,sans-Serif" font-size="11.00" fill="#854f0b">thread_pool.c</text>
<text text-anchor="middle" x="516" y="-63.2" font-family="Helvetica,sans-Serif" font-size="11.00" fill="#854f0b">Fixed&#45;size pool</text>
<text text-anchor="middle" x="516" y="-51.2" font-family="Helvetica,sans-Serif" font-size="11.00" fill="#854f0b">circular work queue</text>
</g>
<!-- server&#45;&gt;thread_pool -->
<g id="edge6" class="edge">
<title>server&#45;&gt;thread_pool</title>
<path fill="none" stroke="#9c9b95" d="M570.13,-195.16C546.53,-188.05 523.47,-176.08 509,-156 496.41,-138.53 499.55,-113.81 505.05,-94.85"/>
<polygon fill="#9c9b95" stroke="#9c9b95" points="507.39,-95.57 507.16,-88.15 502.72,-94.09 507.39,-95.57"/>
<text text-anchor="middle" x="538" y="-148.8" font-family="Helvetica,sans-Serif" font-size="9.00" fill="#6b6a66">submit tasks</text>
</g>
<!-- ratelimit -->
<g id="node7" class="node">
<title>ratelimit</title>
<path fill="#faeeda" stroke="#854f0b" d="M412.5,-88C412.5,-88 311.5,-88 311.5,-88 305.5,-88 299.5,-82 299.5,-76 299.5,-76 299.5,-56 299.5,-56 299.5,-50 305.5,-44 311.5,-44 311.5,-44 412.5,-44 412.5,-44 418.5,-44 424.5,-50 424.5,-56 424.5,-56 424.5,-76 424.5,-76 424.5,-82 418.5,-88 412.5,-88"/>
<text text-anchor="middle" x="362" y="-75.2" font-family="Helvetica,sans-Serif" font-size="11.00" fill="#854f0b">ratelimit.c</text>
<text text-anchor="middle" x="362" y="-63.2" font-family="Helvetica,sans-Serif" font-size="11.00" fill="#854f0b">Per&#45;IP rate limiter</text>
<text text-anchor="middle" x="362" y="-51.2" font-family="Helvetica,sans-Serif" font-size="11.00" fill="#854f0b">dynamic hash table</text>
</g>
<!-- server&#45;&gt;ratelimit -->
<g id="edge7" class="edge">
<title>server&#45;&gt;ratelimit</title>
<path fill="none" stroke="#9c9b95" d="M570.48,-197.3C529.72,-190.73 481.57,-178.56 443,-156 416.74,-140.64 394.14,-113.95 379.54,-93.8"/>
<polygon fill="#9c9b95" stroke="#9c9b95" points="381.5,-92.33 375.46,-88.04 377.51,-95.17 381.5,-92.33"/>
<text text-anchor="middle" x="470" y="-148.8" font-family="Helvetica,sans-Serif" font-size="9.00" fill="#6b6a66">check/leave</text>
</g>
<!-- http -->
<g id="node8" class="node">
<title>http</title>
<path fill="#e1f5ee" stroke="#0f6e56" d="M1200.5,-88C1200.5,-88 1091.5,-88 1091.5,-88 1085.5,-88 1079.5,-82 1079.5,-76 1079.5,-76 1079.5,-56 1079.5,-56 1079.5,-50 1085.5,-44 1091.5,-44 1091.5,-44 1200.5,-44 1200.5,-44 1206.5,-44 1212.5,-50 1212.5,-56 1212.5,-56 1212.5,-76 1212.5,-76 1212.5,-82 1206.5,-88 1200.5,-88"/>
<text text-anchor="middle" x="1146" y="-75.2" font-family="Helvetica,sans-Serif" font-size="11.00" fill="#0f6e56">http.c</text>
<text text-anchor="middle" x="1146" y="-63.2" font-family="Helvetica,sans-Serif" font-size="11.00" fill="#0f6e56">Request parser</text>
<text text-anchor="middle" x="1146" y="-51.2" font-family="Helvetica,sans-Serif" font-size="11.00" fill="#0f6e56">buffered header read</text>
</g>
<!-- server&#45;&gt;http -->
<g id="edge8" class="edge">
<title>server&#45;&gt;http</title>
<path fill="none" stroke="#9c9b95" d="M741.72,-201.77C871.13,-196.06 1104.3,-182.25 1132,-156 1148.08,-140.76 1150.65,-115.15 1149.74,-95.3"/>
<polygon fill="#9c9b95" stroke="#9c9b95" points="1152.18,-95.1 1149.27,-88.28 1147.29,-95.43 1152.18,-95.1"/>
<text text-anchor="middle" x="1170.5" y="-148.8" font-family="Helvetica,sans-Serif" font-size="9.00" fill="#6b6a66">parse request</text>
</g>
<!-- header_cache -->
<g id="node10" class="node">
<title>header_cache</title>
<path fill="#e1f5ee" stroke="#0f6e56" d="M1038,-88C1038,-88 914,-88 914,-88 908,-88 902,-82 902,-76 902,-76 902,-56 902,-56 902,-50 908,-44 914,-44 914,-44 1038,-44 1038,-44 1044,-44 1050,-50 1050,-56 1050,-56 1050,-76 1050,-76 1050,-82 1044,-88 1038,-88"/>
<text text-anchor="middle" x="976" y="-75.2" font-family="Helvetica,sans-Serif" font-size="11.00" fill="#0f6e56">header_cache.c</text>
<text text-anchor="middle" x="976" y="-63.2" font-family="Helvetica,sans-Serif" font-size="11.00" fill="#0f6e56">Pre&#45;computed headers</text>
<text text-anchor="middle" x="976" y="-51.2" font-family="Helvetica,sans-Serif" font-size="11.00" fill="#0f6e56">Date/Server/Connection</text>
</g>
<!-- server&#45;&gt;header_cache -->
<g id="edge12" class="edge">
<title>server&#45;&gt;header_cache</title>
<path fill="none" stroke="#9c9b95" d="M741.8,-200.51C853.62,-193.76 1037.4,-179.26 1058,-156 1077.51,-133.97 1051.13,-109.41 1023.24,-91.68"/>
<polygon fill="#9c9b95" stroke="#9c9b95" points="1024.52,-89.6 1017.28,-88 1021.95,-93.77 1024.52,-89.6"/>
<text text-anchor="middle" x="1094" y="-148.8" font-family="Helvetica,sans-Serif" font-size="9.00" fill="#6b6a66">build headers</text>
</g>
<!-- auth -->
<g id="node12" class="node">
<title>auth</title>
<path fill="#e1f5ee" stroke="#0f6e56" d="M860.5,-88C860.5,-88 783.5,-88 783.5,-88 777.5,-88 771.5,-82 771.5,-76 771.5,-76 771.5,-56 771.5,-56 771.5,-50 777.5,-44 783.5,-44 783.5,-44 860.5,-44 860.5,-44 866.5,-44 872.5,-50 872.5,-56 872.5,-56 872.5,-76 872.5,-76 872.5,-82 866.5,-88 860.5,-88"/>
<text text-anchor="middle" x="822" y="-75.2" font-family="Helvetica,sans-Serif" font-size="11.00" fill="#0f6e56">auth.c</text>
<text text-anchor="middle" x="822" y="-63.2" font-family="Helvetica,sans-Serif" font-size="11.00" fill="#0f6e56">Basic Auth</text>
<text text-anchor="middle" x="822" y="-51.2" font-family="Helvetica,sans-Serif" font-size="11.00" fill="#0f6e56">Base64 decode</text>
</g>
<!-- server&#45;&gt;auth -->
<g id="edge9" class="edge">
<title>server&#45;&gt;auth</title>
<path fill="none" stroke="#9c9b95" d="M692.57,-183.75C712.46,-171.47 737.01,-155.1 757,-138 772.7,-124.57 788.39,-107.56 800.42,-93.56"/>
<polygon fill="#9c9b95" stroke="#9c9b95" points="802.34,-95.08 805.01,-88.15 798.61,-91.9 802.34,-95.08"/>
<text text-anchor="middle" x="773.5" y="-148.8" font-family="Helvetica,sans-Serif" font-size="9.00" fill="#6b6a66">check creds</text>
</g>
<!-- file -->
<g id="node13" class="node">
<title>file</title>
<path fill="#f3e8fc" stroke="#6b21a8" d="M2058,-234C2058,-234 1924,-234 1924,-234 1918,-234 1912,-228 1912,-222 1912,-222 1912,-190 1912,-190 1912,-184 1918,-178 1924,-178 1924,-178 2058,-178 2058,-178 2064,-178 2070,-184 2070,-190 2070,-190 2070,-222 2070,-222 2070,-228 2064,-234 2058,-234"/>
<text text-anchor="middle" x="1991" y="-221.2" font-family="Helvetica,sans-Serif" font-size="11.00" fill="#6b21a8">file.c</text>
<text text-anchor="middle" x="1991" y="-209.2" font-family="Helvetica,sans-Serif" font-size="11.00" fill="#6b21a8">sendfile() (Linux)</text>
<text text-anchor="middle" x="1991" y="-197.2" font-family="Helvetica,sans-Serif" font-size="11.00" fill="#6b21a8">thread&#45;local buffers</text>
<text text-anchor="middle" x="1991" y="-185.2" font-family="Helvetica,sans-Serif" font-size="11.00" fill="#6b21a8">safe_path, ETag, LR inject</text>
</g>
<!-- server&#45;&gt;file -->
<g id="edge11" class="edge">
<title>server&#45;&gt;file</title>
<path fill="none" stroke="#9c9b95" d="M741.74,-218.51C981.74,-252.37 1656.54,-339.4 1869,-280 1898.46,-271.76 1927.88,-254.26 1950.45,-238.34"/>
<polygon fill="#9c9b95" stroke="#9c9b95" points="1952.07,-240.19 1956.33,-234.12 1949.21,-236.21 1952.07,-240.19"/>
<text text-anchor="middle" x="1327" y="-294.8" font-family="Helvetica,sans-Serif" font-size="9.00" fill="#6b6a66">dispatch serve</text>
</g>
<!-- livereload -->
<g id="node14" class="node">
<title>livereload</title>
<path fill="#dff5f2" stroke="#0f7a6e" d="M1656.5,-228C1656.5,-228 1563.5,-228 1563.5,-228 1557.5,-228 1551.5,-222 1551.5,-216 1551.5,-216 1551.5,-196 1551.5,-196 1551.5,-190 1557.5,-184 1563.5,-184 1563.5,-184 1656.5,-184 1656.5,-184 1662.5,-184 1668.5,-190 1668.5,-196 1668.5,-196 1668.5,-216 1668.5,-216 1668.5,-222 1662.5,-228 1656.5,-228"/>
<text text-anchor="middle" x="1610" y="-215.2" font-family="Helvetica,sans-Serif" font-size="11.00" fill="#0f7a6e">livereload.c</text>
<text text-anchor="middle" x="1610" y="-203.2" font-family="Helvetica,sans-Serif" font-size="11.00" fill="#0f7a6e">SSE connections</text>
<text text-anchor="middle" x="1610" y="-191.2" font-family="Helvetica,sans-Serif" font-size="11.00" fill="#0f7a6e">hash map registry</text>
</g>
<!-- server&#45;&gt;livereload -->
<g id="edge10" class="edge">
<title>server&#45;&gt;livereload</title>
<path fill="none" stroke="#9c9b95" d="M741.5,-206C929.63,-206 1376.05,-206 1544.31,-206"/>
<polygon fill="#9c9b95" stroke="#9c9b95" points="1544.38,-208.45 1551.38,-206 1544.38,-203.55 1544.38,-208.45"/>
<text text-anchor="middle" x="1146.5" y="-211.8" font-family="Helvetica,sans-Serif" font-size="9.00" fill="#6b6a66">start/stop</text>
</g>
<!-- http&#45;&gt;transport -->
<g id="edge13" class="edge">
<title>http&#45;&gt;transport</title>
<path fill="none" stroke="#9c9b95" d="M1128.01,-88.11C1113.1,-104.55 1090.31,-125.68 1065,-135 1000.56,-158.73 820.44,-158.73 756,-135 733.26,-126.63 712.56,-108.72 697.78,-93.25"/>
<polygon fill="#9c9b95" stroke="#9c9b95" points="699.56,-91.56 692.99,-88.11 695.97,-94.9 699.56,-91.56"/>
<text text-anchor="middle" x="945" y="-148.8" font-family="Helvetica,sans-Serif" font-size="9.00" fill="#6b6a66">read raw headers</text>
</g>
<!-- response -->
<g id="node9" class="node">
<title>response</title>
<path fill="#e1f5ee" stroke="#0f6e56" d="M1366.5,-88C1366.5,-88 1253.5,-88 1253.5,-88 1247.5,-88 1241.5,-82 1241.5,-76 1241.5,-76 1241.5,-56 1241.5,-56 1241.5,-50 1247.5,-44 1253.5,-44 1253.5,-44 1366.5,-44 1366.5,-44 1372.5,-44 1378.5,-50 1378.5,-56 1378.5,-56 1378.5,-76 1378.5,-76 1378.5,-82 1372.5,-88 1366.5,-88"/>
<text text-anchor="middle" x="1310" y="-75.2" font-family="Helvetica,sans-Serif" font-size="11.00" fill="#0f6e56">response.c</text>
<text text-anchor="middle" x="1310" y="-63.2" font-family="Helvetica,sans-Serif" font-size="11.00" fill="#0f6e56">Response builder</text>
<text text-anchor="middle" x="1310" y="-51.2" font-family="Helvetica,sans-Serif" font-size="11.00" fill="#0f6e56">error pages, redirects</text>
</g>
<!-- response&#45;&gt;transport -->
<g id="edge14" class="edge">
<title>response&#45;&gt;transport</title>
<path fill="none" stroke="#9c9b95" d="M1291.45,-88.12C1276.11,-104.57 1252.73,-125.7 1227,-135 1177.78,-152.79 805.11,-153.08 756,-135 733.26,-126.63 712.56,-108.72 697.78,-93.25"/>
<polygon fill="#9c9b95" stroke="#9c9b95" points="699.56,-91.56 692.99,-88.11 695.97,-94.9 699.56,-91.56"/>
<text text-anchor="middle" x="1023" y="-148.8" font-family="Helvetica,sans-Serif" font-size="9.00" fill="#6b6a66">write response</text>
</g>
<!-- mime -->
<g id="node11" class="node">
<title>mime</title>
<path fill="#e1f5ee" stroke="#0f6e56" d="M1510,-88C1510,-88 1420,-88 1420,-88 1414,-88 1408,-82 1408,-76 1408,-76 1408,-56 1408,-56 1408,-50 1414,-44 1420,-44 1420,-44 1510,-44 1510,-44 1516,-44 1522,-50 1522,-56 1522,-56 1522,-76 1522,-76 1522,-82 1516,-88 1510,-88"/>
<text text-anchor="middle" x="1465" y="-75.2" font-family="Helvetica,sans-Serif" font-size="11.00" fill="#0f6e56">mime.c</text>
<text text-anchor="middle" x="1465" y="-63.2" font-family="Helvetica,sans-Serif" font-size="11.00" fill="#0f6e56">MIME type lookup</text>
<text text-anchor="middle" x="1465" y="-51.2" font-family="Helvetica,sans-Serif" font-size="11.00" fill="#0f6e56">extension table</text>
</g>
<!-- file&#45;&gt;http -->
<g id="edge17" class="edge">
<title>file&#45;&gt;http</title>
<path fill="none" stroke="#9c9b95" stroke-dasharray="5,2" d="M1911.91,-179.19C1897.76,-175.47 1883.05,-172.17 1869,-170 1758.06,-152.83 1475.91,-164.88 1364,-156 1302.78,-151.14 1282.94,-163.33 1227,-138 1204.35,-127.74 1183.38,-108.99 1168.45,-93.33"/>
<polygon fill="#9c9b95" stroke="#9c9b95" points="1170.19,-91.6 1163.62,-88.15 1166.6,-94.94 1170.19,-91.6"/>
<text text-anchor="middle" x="1404.5" y="-148.8" font-family="Helvetica,sans-Serif" font-size="9.00" fill="#6b6a66">read HttpRequest</text>
</g>
<!-- file&#45;&gt;response -->
<g id="edge15" class="edge">
<title>file&#45;&gt;response</title>
<path fill="none" stroke="#9c9b95" d="M1911.89,-179.3C1897.74,-175.57 1883.04,-172.24 1869,-170 1701.66,-143.33 1655.45,-181.96 1488,-156 1471.59,-153.46 1468.26,-149.36 1452,-146 1426.52,-140.73 1417.77,-148.6 1394,-138 1370.81,-127.66 1349.05,-108.91 1333.49,-93.27"/>
<polygon fill="#9c9b95" stroke="#9c9b95" points="1335.09,-91.41 1328.45,-88.1 1331.58,-94.83 1335.09,-91.41"/>
<text text-anchor="middle" x="1512" y="-148.8" font-family="Helvetica,sans-Serif" font-size="9.00" fill="#6b6a66">send_file()</text>
</g>
<!-- file&#45;&gt;mime -->
<g id="edge16" class="edge">
<title>file&#45;&gt;mime</title>
<path fill="none" stroke="#9c9b95" d="M1911.68,-180.43C1897.56,-176.58 1882.91,-172.91 1869,-170 1790.44,-153.56 1769.92,-153.42 1690,-146 1672.94,-144.42 1551.65,-144.97 1536,-138 1514.86,-128.6 1496.56,-109.86 1483.84,-94"/>
<polygon fill="#9c9b95" stroke="#9c9b95" points="1485.64,-92.33 1479.4,-88.31 1481.77,-95.34 1485.64,-92.33"/>
<text text-anchor="middle" x="1831.5" y="-148.8" font-family="Helvetica,sans-Serif" font-size="9.00" fill="#6b6a66">mime_from_path()</text>
</g>
<!-- thread_buffer -->
<g id="node17" class="node">
<title>thread_buffer</title>
<path fill="#eef0f4" stroke="#46505c" d="M2043.5,-88C2043.5,-88 1938.5,-88 1938.5,-88 1932.5,-88 1926.5,-82 1926.5,-76 1926.5,-76 1926.5,-56 1926.5,-56 1926.5,-50 1932.5,-44 1938.5,-44 1938.5,-44 2043.5,-44 2043.5,-44 2049.5,-44 2055.5,-50 2055.5,-56 2055.5,-56 2055.5,-76 2055.5,-76 2055.5,-82 2049.5,-88 2043.5,-88"/>
<text text-anchor="middle" x="1991" y="-75.2" font-family="Helvetica,sans-Serif" font-size="11.00" fill="#46505c">thread_buffer.c</text>
<text text-anchor="middle" x="1991" y="-63.2" font-family="Helvetica,sans-Serif" font-size="11.00" fill="#46505c">TLS reusable buffers</text>
<text text-anchor="middle" x="1991" y="-51.2" font-family="Helvetica,sans-Serif" font-size="11.00" fill="#46505c">no malloc/free</text>
</g>
<!-- file&#45;&gt;thread_buffer -->
<g id="edge18" class="edge">
<title>file&#45;&gt;thread_buffer</title>
<path fill="none" stroke="#9c9b95" d="M1991,-177.74C1991,-153.96 1991,-119.59 1991,-95.47"/>
<polygon fill="#9c9b95" stroke="#9c9b95" points="1993.45,-95.33 1991,-88.33 1988.55,-95.33 1993.45,-95.33"/>
<text text-anchor="middle" x="2018.5" y="-148.8" font-family="Helvetica,sans-Serif" font-size="9.00" fill="#6b6a66">get_buffer()</text>
</g>
<!-- livereload&#45;&gt;transport -->
<g id="edge20" class="edge">
<title>livereload&#45;&gt;transport</title>
<path fill="none" stroke="#9c9b95" d="M1551.29,-203.05C1346.52,-196.13 675.42,-172.23 660,-156 644.68,-139.87 650.96,-114.26 659.6,-94.65"/>
<polygon fill="#9c9b95" stroke="#9c9b95" points="661.85,-95.63 662.59,-88.25 657.41,-93.55 661.85,-95.63"/>
<text text-anchor="middle" x="682" y="-148.8" font-family="Helvetica,sans-Serif" font-size="9.00" fill="#6b6a66">SSE write</text>
</g>
<!-- livereload&#45;&gt;response -->
<g id="edge21" class="edge">
<title>livereload&#45;&gt;response</title>
<path fill="none" stroke="#c7c6c0" stroke-dasharray="5,2" d="M1551.42,-202.14C1479.15,-197.38 1362.03,-185.28 1331,-156 1312.64,-138.67 1308.99,-108.54 1308.85,-88.19"/>
</g>
<!-- watcher -->
<g id="node15" class="node">
<title>watcher</title>
<path fill="#dff5f2" stroke="#0f7a6e" d="M1663,-88C1663,-88 1563,-88 1563,-88 1557,-88 1551,-82 1551,-76 1551,-76 1551,-56 1551,-56 1551,-50 1557,-44 1563,-44 1563,-44 1663,-44 1663,-44 1669,-44 1675,-50 1675,-56 1675,-56 1675,-76 1675,-76 1675,-82 1669,-88 1663,-88"/>
<text text-anchor="middle" x="1613" y="-75.2" font-family="Helvetica,sans-Serif" font-size="11.00" fill="#0f7a6e">watcher.c</text>
<text text-anchor="middle" x="1613" y="-63.2" font-family="Helvetica,sans-Serif" font-size="11.00" fill="#0f7a6e">inotify (Linux) / poll</text>
<text text-anchor="middle" x="1613" y="-51.2" font-family="Helvetica,sans-Serif" font-size="11.00" fill="#0f7a6e">O(N) snapshot diff</text>
</g>
<!-- livereload&#45;&gt;watcher -->
<g id="edge19" class="edge">
<title>livereload&#45;&gt;watcher</title>
<path fill="none" stroke="#9c9b95" d="M1610.46,-183.74C1610.98,-159.97 1611.82,-121.36 1612.39,-95.11"/>
<polygon fill="#9c9b95" stroke="#9c9b95" points="1614.84,-95.11 1612.54,-88.06 1609.94,-95 1614.84,-95.11"/>
<text text-anchor="middle" x="1640.5" y="-148.8" font-family="Helvetica,sans-Serif" font-size="9.00" fill="#6b6a66">create / start</text>
</g>
<!-- log&#45;&gt;server -->
<g id="edge22" class="edge">
<title>log&#45;&gt;server</title>
<path fill="none" stroke="#c7c6c0" stroke-dasharray="5,2" d="M1767.82,-233.77C1746.91,-257.54 1713.22,-290.06 1675.5,-304 1623.39,-323.26 1605.97,-307.03 1550.5,-304 1252.36,-287.72 900.81,-241.12 741.78,-218.55"/>
<polygon fill="#c7c6c0" stroke="#c7c6c0" points="1769.88,-235.14 1772.6,-228.24 1766.17,-231.94 1769.88,-235.14"/>
</g>
<!-- log&#45;&gt;transport -->
<g id="edge25" class="edge">
<title>log&#45;&gt;transport</title>
<path fill="none" stroke="#c7c6c0" stroke-dasharray="5,2" d="M1733.24,-181.6C1719.33,-176.85 1704.32,-172.54 1690,-170 1638.3,-160.82 792.06,-179.29 745,-156 716.28,-141.79 695.76,-109.59 684.63,-88.08"/>
<polygon fill="#c7c6c0" stroke="#c7c6c0" points="1732.56,-183.95 1739.98,-183.95 1734.18,-179.33 1732.56,-183.95"/>
</g>
<!-- log&#45;&gt;thread_pool -->
<g id="edge26" class="edge">
<title>log&#45;&gt;thread_pool</title>
<path fill="none" stroke="#c7c6c0" stroke-dasharray="5,2" d="M1733.24,-181.6C1719.33,-176.86 1704.32,-172.55 1690,-170 1590.44,-152.29 880.8,-164.05 780,-156 749.11,-153.53 741.81,-149.28 711,-146 685.09,-143.24 617.97,-148.23 594,-138 568.91,-127.29 546.6,-105 532.34,-88.23"/>
<polygon fill="#c7c6c0" stroke="#c7c6c0" points="1732.56,-183.96 1739.98,-183.96 1734.18,-179.33 1732.56,-183.96"/>
</g>
<!-- log&#45;&gt;ratelimit -->
<g id="edge28" class="edge">
<title>log&#45;&gt;ratelimit</title>
<path fill="none" stroke="#c7c6c0" stroke-dasharray="5,2" d="M1733.24,-181.61C1719.33,-176.86 1704.32,-172.55 1690,-170 1594.27,-152.94 912.08,-161.44 815,-156 768.64,-153.4 757.34,-148.91 711,-146 680.82,-144.11 467,-149.42 439,-138 413.74,-127.7 391.65,-105.1 377.68,-88.14"/>
<polygon fill="#c7c6c0" stroke="#c7c6c0" points="1732.56,-183.97 1739.97,-183.97 1734.18,-179.34 1732.56,-183.97"/>
</g>
<!-- log&#45;&gt;http -->
<g id="edge24" class="edge">
<title>log&#45;&gt;http</title>
<path fill="none" stroke="#c7c6c0" stroke-dasharray="5,2" d="M1824.84,-178.96C1835.31,-168.15 1841.73,-155.86 1832,-146 1820.19,-134.04 1242.69,-144.02 1227,-138 1200.81,-127.95 1177.5,-105.3 1162.69,-88.27"/>
<polygon fill="#c7c6c0" stroke="#c7c6c0" points="1823.14,-177.2 1819.79,-183.81 1826.54,-180.73 1823.14,-177.2"/>
</g>
<!-- log&#45;&gt;mime -->
<g id="edge30" class="edge">
<title>log&#45;&gt;mime</title>
<path fill="none" stroke="#c7c6c0" stroke-dasharray="5,2" d="M1857.89,-180.51C1875.08,-170.78 1885.54,-158.84 1873,-146 1859.92,-132.6 1553.22,-145.37 1536,-138 1511.96,-127.71 1491.72,-105.1 1479.07,-88.14"/>
<polygon fill="#c7c6c0" stroke="#c7c6c0" points="1856.33,-178.56 1851.28,-183.99 1858.61,-182.89 1856.33,-178.56"/>
</g>
<!-- log&#45;&gt;auth -->
<g id="edge29" class="edge">
<title>log&#45;&gt;auth</title>
<path fill="none" stroke="#c7c6c0" stroke-dasharray="5,2" d="M1860.79,-182.95C1881.52,-173.05 1895.24,-160.36 1881,-146 1871.29,-136.21 900.62,-143.56 888,-138 864.9,-127.82 846.21,-105.2 834.69,-88.2"/>
<polygon fill="#c7c6c0" stroke="#c7c6c0" points="1859.54,-180.83 1854.16,-185.93 1861.54,-185.3 1859.54,-180.83"/>
</g>
<!-- log&#45;&gt;file -->
<g id="edge23" class="edge">
<title>log&#45;&gt;file</title>
<path fill="none" stroke="#c7c6c0" stroke-dasharray="5,2" d="M1861.55,-206C1878.29,-206 1895.02,-206 1911.75,-206"/>
<polygon fill="#c7c6c0" stroke="#c7c6c0" points="1861.38,-203.55 1854.38,-206 1861.38,-208.45 1861.38,-203.55"/>
</g>
<!-- log&#45;&gt;livereload -->
<g id="edge27" class="edge">
<title>log&#45;&gt;livereload</title>
<path fill="none" stroke="#c7c6c0" stroke-dasharray="5,2" d="M1718.46,-206C1701.88,-206 1685.29,-206 1668.71,-206"/>
<polygon fill="#c7c6c0" stroke="#c7c6c0" points="1718.57,-208.45 1725.57,-206 1718.57,-203.55 1718.57,-208.45"/>
</g>
</g>
</svg>
