<?xml version="1.0" encoding="UTF-8" standalone="no"?>
<!DOCTYPE svg PUBLIC "-//W3C//DTD SVG 1.1//EN"
 "http://www.w3.org/Graphics/SVG/1.1/DTD/svg11.dtd">
<!-- Generated by graphviz version 12.2.1 (20241206.2353)
 -->
<!-- Title: request_lifecycle Pages: 1 -->
<svg width="995pt" height="1418pt"
 viewBox="0.00 0.00 995.17 1418.00" xmlns="http://www.w3.org/2000/svg" xmlns:xlink="http://www.w3.org/1999/xlink">
<g id="graph0" class="graph" transform="scale(1 1) rotate(0) translate(36 1382)">
<title>request_lifecycle</title>
<polygon fill="#1a1a1a" stroke="none" points="-36,36 -36,-1382 959.17,-1382 959.17,36 -36,36"/>
<text text-anchor="middle" x="132.04" y="-9.4" font-family="Helvetica,sans-Serif" font-size="18.00" fill="#dddddd">HTTP Request — Full Lifecycle</text>
<g id="clust1" class="cluster">
<title>cluster_worker</title>
<polygon fill="#1a1a1a" stroke="#444444" stroke-dasharray="5,2" points="129.81,-37.6 129.81,-1137 785.81,-1137 785.81,-37.6 129.81,-37.6"/>
<text text-anchor="middle" x="218.84" y="-1122.2" font-family="Helvetica,sans-Serif" font-size="12.00" fill="#aaaaaa">Worker Thread (handle_client)</text>
</g>
<g id="clust2" class="cluster">
<title>cluster_auth</title>
<polygon fill="#1a1a1a" stroke="#444444" points="587.81,-598 587.81,-777.2 737.81,-777.2 737.81,-598 587.81,-598"/>
<text text-anchor="middle" x="626.82" y="-762.4" font-family="Helvetica,sans-Serif" font-size="12.00" fill="#aaaaaa">Auth Check</text>
</g>
<g id="clust3" class="cluster">
<title>cluster_sse</title>
<polygon fill="#1a1a1a" stroke="#444444" points="137.81,-497.2 137.81,-773.2 282.81,-773.2 282.81,-497.2 137.81,-497.2"/>
<text text-anchor="middle" x="210.67" y="-758.4" font-family="Helvetica,sans-Serif" font-size="12.00" fill="#aaaaaa">SSE (if path=/livereload)</text>
</g>
<g id="clust4" class="cluster">
<title>cluster_serve</title>
<polygon fill="#1a1a1a" stroke="#444444" points="290.81,-45.6 290.81,-787.2 579.81,-787.2 579.81,-45.6 290.81,-45.6"/>
<text text-anchor="middle" x="330.49" y="-772.4" font-family="Helvetica,sans-Serif" font-size="12.00" fill="#aaaaaa">File Serving</text>
</g>
<!-- accept -->
<g id="node1" class="node">
<title>accept</title>
<polygon fill="#1e3a5f" stroke="#555555" points="102.94,-1340 6.67,-1340 6.67,-1316 102.94,-1316 114.94,-1328 102.94,-1340"/>
<text text-anchor="middle" x="60.81" y="-1331" font-family="Helvetica,sans-Serif" font-size="10.00" fill="#ffffff">1. accept()</text>
<text text-anchor="middle" x="60.81" y="-1319" font-family="Helvetica,sans-Serif" font-size="10.00" fill="#ffffff">new TCP connection</text>
</g>
<!-- transport_new -->
<g id="node2" class="node">
<title>transport_new</title>
<path fill="#2d2d2d" stroke="#555555" d="M104.05,-1273C104.05,-1273 17.56,-1273 17.56,-1273 11.56,-1273 5.56,-1267 5.56,-1261 5.56,-1261 5.56,-1249 5.56,-1249 5.56,-1243 11.56,-1237 17.56,-1237 17.56,-1237 104.05,-1237 104.05,-1237 110.05,-1237 116.05,-1243 116.05,-1249 116.05,-1249 116.05,-1261 116.05,-1261 116.05,-1267 110.05,-1273 104.05,-1273"/>
<text text-anchor="middle" x="60.81" y="-1258" font-family="Helvetica,sans-Serif" font-size="10.00" fill="#dddddd">2. transport_new(cfd)</text>
<text text-anchor="middle" x="60.81" y="-1246" font-family="Helvetica,sans-Serif" font-size="10.00" fill="#dddddd">wrap fd in Transport</text>
</g>
<!-- accept&#45;&gt;transport_new -->
<g id="edge1" class="edge">
<title>accept&#45;&gt;transport_new</title>
<path fill="none" stroke="#666666" d="M60.81,-1309.81C60.81,-1302.23 60.81,-1293.1 60.81,-1284.54"/>
<polygon fill="#666666" stroke="#666666" points="64.31,-1284.54 60.81,-1274.54 57.31,-1284.54 64.31,-1284.54"/>
</g>
<!-- peer_addr -->
<g id="node3" class="node">
<title>peer_addr</title>
<path fill="#2d2d2d" stroke="#555555" d="M92.94,-1200C92.94,-1200 28.68,-1200 28.68,-1200 22.68,-1200 16.68,-1194 16.68,-1188 16.68,-1188 16.68,-1176 16.68,-1176 16.68,-1170 22.68,-1164 28.68,-1164 28.68,-1164 92.94,-1164 92.94,-1164 98.94,-1164 104.94,-1170 104.94,-1176 104.94,-1176 104.94,-1188 104.94,-1188 104.94,-1194 98.94,-1200 92.94,-1200"/>
<text text-anchor="middle" x="60.81" y="-1185" font-family="Helvetica,sans-Serif" font-size="10.00" fill="#dddddd">3. peer_addr()</text>
<text text-anchor="middle" x="60.81" y="-1173" font-family="Helvetica,sans-Serif" font-size="10.00" fill="#dddddd">get client IP:port</text>
</g>
<!-- transport_new&#45;&gt;peer_addr -->
<g id="edge2" class="edge">
<title>transport_new&#45;&gt;peer_addr</title>
<path fill="none" stroke="#666666" d="M60.81,-1236.81C60.81,-1229.23 60.81,-1220.1 60.81,-1211.54"/>
<polygon fill="#666666" stroke="#666666" points="64.31,-1211.54 60.81,-1201.54 57.31,-1211.54 64.31,-1211.54"/>
</g>
<!-- ratelimit_check -->
<g id="node4" class="node">
<title>ratelimit_check</title>
<path fill="#5a3e1a" stroke="#555555" d="M100.71,-1106.6C100.71,-1106.6 20.9,-1106.6 20.9,-1106.6 14.9,-1106.6 8.9,-1100.6 8.9,-1094.6 8.9,-1094.6 8.9,-1082.6 8.9,-1082.6 8.9,-1076.6 14.9,-1070.6 20.9,-1070.6 20.9,-1070.6 100.71,-1070.6 100.71,-1070.6 106.71,-1070.6 112.71,-1076.6 112.71,-1082.6 112.71,-1082.6 112.71,-1094.6 112.71,-1094.6 112.71,-1100.6 106.71,-1106.6 100.71,-1106.6"/>
<text text-anchor="middle" x="60.81" y="-1091.6" font-family="Helvetica,sans-Serif" font-size="10.00" fill="#ffffff">4. ratelimit_accept()</text>
<text text-anchor="middle" x="60.81" y="-1079.6" font-family="Helvetica,sans-Serif" font-size="10.00" fill="#ffffff">check per&#45;IP limit</text>
</g>
<!-- peer_addr&#45;&gt;ratelimit_check -->
<g id="edge3" class="edge">
<title>peer_addr&#45;&gt;ratelimit_check</title>
<path fill="none" stroke="#666666" d="M60.81,-1163.81C60.81,-1151 60.81,-1133.21 60.81,-1118.26"/>
<polygon fill="#666666" stroke="#666666" points="64.31,-1118.54 60.81,-1108.54 57.31,-1118.54 64.31,-1118.54"/>
</g>
<!-- thread_dispatch -->
<g id="node5" class="node">
<title>thread_dispatch</title>
<path fill="#5a3e1a" stroke="#555555" d="M109.62,-1023.8C109.62,-1023.8 12,-1023.8 12,-1023.8 6,-1023.8 0,-1017.8 0,-1011.8 0,-1011.8 0,-999.8 0,-999.8 0,-993.8 6,-987.8 12,-987.8 12,-987.8 109.62,-987.8 109.62,-987.8 115.62,-987.8 121.62,-993.8 121.62,-999.8 121.62,-999.8 121.62,-1011.8 121.62,-1011.8 121.62,-1017.8 115.62,-1023.8 109.62,-1023.8"/>
<text text-anchor="middle" x="60.81" y="-1008.8" font-family="Helvetica,sans-Serif" font-size="10.00" fill="#ffffff">5. thread_pool_submit()</text>
<text text-anchor="middle" x="60.81" y="-996.8" font-family="Helvetica,sans-Serif" font-size="10.00" fill="#ffffff">dispatch to worker</text>
</g>
<!-- ratelimit_check&#45;&gt;thread_dispatch -->
<g id="edge4" class="edge">
<title>ratelimit_check&#45;&gt;thread_dispatch</title>
<path fill="none" stroke="#666666" d="M60.81,-1070.46C60.81,-1060.36 60.81,-1047.3 60.81,-1035.65"/>
<polygon fill="#666666" stroke="#666666" points="64.31,-1035.7 60.81,-1025.7 57.31,-1035.7 64.31,-1035.7"/>
</g>
<!-- parse_request -->
<g id="node6" class="node">
<title>parse_request</title>
<path fill="#1a4a3a" stroke="#555555" d="M531.74,-941C531.74,-941 411.88,-941 411.88,-941 405.88,-941 399.88,-935 399.88,-929 399.88,-929 399.88,-909 399.88,-909 399.88,-903 405.88,-897 411.88,-897 411.88,-897 531.74,-897 531.74,-897 537.74,-897 543.74,-903 543.74,-909 543.74,-909 543.74,-929 543.74,-929 543.74,-935 537.74,-941 531.74,-941"/>
<text text-anchor="middle" x="471.81" y="-928" font-family="Helvetica,sans-Serif" font-size="10.00" fill="#ffffff">6. http_parse_request()</text>
<text text-anchor="middle" x="471.81" y="-916" font-family="Helvetica,sans-Serif" font-size="10.00" fill="#ffffff">read headers until \r\n\r\n</text>
<text text-anchor="middle" x="471.81" y="-904" font-family="Helvetica,sans-Serif" font-size="10.00" fill="#ffffff">parse method, path, headers</text>
</g>
<!-- thread_dispatch&#45;&gt;parse_request -->
<g id="edge5" class="edge">
<title>thread_dispatch&#45;&gt;parse_request</title>
<path fill="none" stroke="#666666" d="M122.02,-988.68C123.29,-988.38 124.56,-988.09 125.81,-987.8 215.16,-967.38 318.36,-947.65 388.64,-934.79"/>
<polygon fill="#666666" stroke="#666666" points="388.93,-938.3 398.14,-933.06 387.68,-931.41 388.93,-938.3"/>
</g>
<!-- decision1 -->
<g id="node7" class="node">
<title>decision1</title>
<path fill="#3a3a1a" stroke="#555555" d="M460.2,-856.95C460.2,-856.95 414.97,-845.05 414.97,-845.05 409.16,-843.53 409.16,-840.47 414.97,-838.95 414.97,-838.95 460.2,-827.05 460.2,-827.05 466,-825.53 477.61,-825.53 483.41,-827.05 483.41,-827.05 528.65,-838.95 528.65,-838.95 534.45,-840.47 534.45,-843.53 528.65,-845.05 528.65,-845.05 483.41,-856.95 483.41,-856.95 477.61,-858.47 466,-858.47 460.2,-856.95"/>
<text text-anchor="middle" x="471.81" y="-839" font-family="Helvetica,sans-Serif" font-size="10.00" fill="#ffffff">7. Decide path</text>
</g>
<!-- parse_request&#45;&gt;decision1 -->
<g id="edge6" class="edge">
<title>parse_request&#45;&gt;decision1</title>
<path fill="none" stroke="#666666" d="M471.81,-896.71C471.81,-888.82 471.81,-879.75 471.81,-871.33"/>
<polygon fill="#666666" stroke="#666666" points="475.31,-871.57 471.81,-861.57 468.31,-871.57 475.31,-871.57"/>
</g>
<!-- auth_check -->
<g id="node8" class="node">
<title>auth_check</title>
<path fill="#1a4a3a" stroke="#555555" d="M701.33,-746.8C701.33,-746.8 624.29,-746.8 624.29,-746.8 618.29,-746.8 612.29,-740.8 612.29,-734.8 612.29,-734.8 612.29,-714.8 612.29,-714.8 612.29,-708.8 618.29,-702.8 624.29,-702.8 624.29,-702.8 701.33,-702.8 701.33,-702.8 707.33,-702.8 713.33,-708.8 713.33,-714.8 713.33,-714.8 713.33,-734.8 713.33,-734.8 713.33,-740.8 707.33,-746.8 701.33,-746.8"/>
<text text-anchor="middle" x="662.81" y="-733.8" font-family="Helvetica,sans-Serif" font-size="10.00" fill="#ffffff">8a. auth_check()</text>
<text text-anchor="middle" x="662.81" y="-721.8" font-family="Helvetica,sans-Serif" font-size="10.00" fill="#ffffff">decode Base64</text>
<text text-anchor="middle" x="662.81" y="-709.8" font-family="Helvetica,sans-Serif" font-size="10.00" fill="#ffffff">compare user:pass</text>
</g>
<!-- decision1&#45;&gt;auth_check -->
<g id="edge7" class="edge">
<title>decision1&#45;&gt;auth_check</title>
<path fill="none" stroke="#666666" d="M497.79,-830.59C521.26,-820.73 556.38,-804.85 584.81,-787.2 600.27,-777.6 616.25,-765.47 629.69,-754.53"/>
<polygon fill="#666666" stroke="#666666" points="631.92,-757.23 637.39,-748.16 627.45,-751.84 631.92,-757.23"/>
<text text-anchor="middle" x="603.43" y="-797.9" font-family="Helvetica,sans-Serif" font-size="9.00" fill="#aaaaaa">creds configured</text>
</g>
<!-- sse_headers -->
<g id="node10" class="node">
<title>sse_headers</title>
<path fill="#2a4a3a" stroke="#555555" d="M262.33,-742.8C262.33,-742.8 165.28,-742.8 165.28,-742.8 159.28,-742.8 153.28,-736.8 153.28,-730.8 153.28,-730.8 153.28,-718.8 153.28,-718.8 153.28,-712.8 159.28,-706.8 165.28,-706.8 165.28,-706.8 262.33,-706.8 262.33,-706.8 268.33,-706.8 274.33,-712.8 274.33,-718.8 274.33,-718.8 274.33,-730.8 274.33,-730.8 274.33,-736.8 268.33,-742.8 262.33,-742.8"/>
<text text-anchor="middle" x="213.81" y="-727.8" font-family="Helvetica,sans-Serif" font-size="10.00" fill="#ffffff">9a. Send SSE headers</text>
<text text-anchor="middle" x="213.81" y="-715.8" font-family="Helvetica,sans-Serif" font-size="10.00" fill="#ffffff">event&#45;stream, no&#45;cache</text>
</g>
<!-- decision1&#45;&gt;sse_headers -->
<g id="edge10" class="edge">
<title>decision1&#45;&gt;sse_headers</title>
<path fill="none" stroke="#666666" d="M430.72,-834.31C391.71,-826.78 332.28,-812.22 285.81,-787.2 268.25,-777.75 251.15,-763.45 238.02,-751.03"/>
<polygon fill="#666666" stroke="#666666" points="240.69,-748.75 231.09,-744.27 235.8,-753.76 240.69,-748.75"/>
<text text-anchor="middle" x="356.13" y="-797.9" font-family="Helvetica,sans-Serif" font-size="9.00" fill="#aaaaaa">path=/livereload</text>
</g>
<!-- method_check -->
<g id="node13" class="node">
<title>method_check</title>
<path fill="#3a3a1a" stroke="#555555" d="M460.37,-753.16C460.37,-753.16 382.74,-728.44 382.74,-728.44 377.03,-726.62 377.03,-722.98 382.74,-721.16 382.74,-721.16 460.37,-696.44 460.37,-696.44 466.09,-694.62 477.52,-694.62 483.24,-696.44 483.24,-696.44 560.87,-721.16 560.87,-721.16 566.59,-722.98 566.59,-726.62 560.87,-728.44 560.87,-728.44 483.24,-753.16 483.24,-753.16 477.52,-754.98 466.09,-754.98 460.37,-753.16"/>
<text text-anchor="middle" x="471.81" y="-727.8" font-family="Helvetica,sans-Serif" font-size="10.00" fill="#ffffff">10a. Method check</text>
<text text-anchor="middle" x="471.81" y="-715.8" font-family="Helvetica,sans-Serif" font-size="10.00" fill="#ffffff">GET/HEAD only?</text>
</g>
<!-- decision1&#45;&gt;method_check -->
<g id="edge13" class="edge">
<title>decision1&#45;&gt;method_check</title>
<path fill="none" stroke="#666666" d="M471.81,-823.5C471.81,-808.91 471.81,-787.49 471.81,-768.43"/>
<polygon fill="#666666" stroke="#666666" points="475.31,-768.46 471.81,-758.46 468.31,-768.46 475.31,-768.46"/>
<text text-anchor="middle" x="501.82" y="-797.9" font-family="Helvetica,sans-Serif" font-size="9.00" fill="#aaaaaa">normal request</text>
</g>
<!-- auth_401 -->
<g id="node9" class="node">
<title>auth_401</title>
<path fill="#6a2a2a" stroke="#555555" d="M718.02,-642C718.02,-642 607.6,-642 607.6,-642 601.6,-642 595.6,-636 595.6,-630 595.6,-630 595.6,-618 595.6,-618 595.6,-612 601.6,-606 607.6,-606 607.6,-606 718.02,-606 718.02,-606 724.02,-606 730.02,-612 730.02,-618 730.02,-618 730.02,-630 730.02,-630 730.02,-636 724.02,-642 718.02,-642"/>
<text text-anchor="middle" x="662.81" y="-627" font-family="Helvetica,sans-Serif" font-size="10.00" fill="#ffffff">8b. auth_send_challenge()</text>
<text text-anchor="middle" x="662.81" y="-615" font-family="Helvetica,sans-Serif" font-size="10.00" fill="#ffffff">401 + WWW&#45;Authenticate</text>
</g>
<!-- auth_check&#45;&gt;auth_401 -->
<g id="edge8" class="edge">
<title>auth_check&#45;&gt;auth_401</title>
<path fill="none" stroke="#666666" d="M654.88,-702.58C651.56,-691.19 648.86,-676.88 650.8,-664 651.33,-660.47 652.12,-656.82 653.04,-653.23"/>
<polygon fill="#666666" stroke="#666666" points="656.39,-654.25 655.87,-643.67 649.68,-652.26 656.39,-654.25"/>
<text text-anchor="middle" x="661.8" y="-666.7" font-family="Helvetica,sans-Serif" font-size="9.00" fill="#aaaaaa">reject</text>
</g>
<!-- decision1_2 -->
<g id="node25" class="node">
<title>decision1_2</title>
<ellipse fill="#2d2d2d" stroke="#555555" cx="922.81" cy="-624" rx="0.36" ry="0.36"/>
</g>
<!-- auth_check&#45;&gt;decision1_2 -->
<g id="edge9" class="edge">
<title>auth_check&#45;&gt;decision1_2</title>
<path fill="none" stroke="#666666" d="M713.63,-716.14C755.36,-708.76 815.42,-695.6 864.81,-674.8 887.04,-665.44 894.1,-663.4 910.81,-646 913.75,-642.93 916.25,-639.01 918.18,-635.38"/>
<polygon fill="#666666" stroke="#666666" points="921.25,-637.09 922.14,-626.53 914.86,-634.23 921.25,-637.09"/>
<text text-anchor="middle" x="901.53" y="-666.7" font-family="Helvetica,sans-Serif" font-size="9.00" fill="#aaaaaa">accept</text>
</g>
<!-- cleanup -->
<g id="node24" class="node">
<title>cleanup</title>
<path fill="#6a2a2a" stroke="#555555" d="M733.39,-545.2C733.39,-545.2 640.23,-545.2 640.23,-545.2 634.23,-545.2 628.23,-539.2 628.23,-533.2 628.23,-533.2 628.23,-513.2 628.23,-513.2 628.23,-507.2 634.23,-501.2 640.23,-501.2 640.23,-501.2 733.39,-501.2 733.39,-501.2 739.39,-501.2 745.39,-507.2 745.39,-513.2 745.39,-513.2 745.39,-533.2 745.39,-533.2 745.39,-539.2 739.39,-545.2 733.39,-545.2"/>
<text text-anchor="middle" x="686.81" y="-532.2" font-family="Helvetica,sans-Serif" font-size="10.00" fill="#ffffff">13. transport_destroy()</text>
<text text-anchor="middle" x="686.81" y="-520.2" font-family="Helvetica,sans-Serif" font-size="10.00" fill="#ffffff">ratelimit_leave()</text>
<text text-anchor="middle" x="686.81" y="-508.2" font-family="Helvetica,sans-Serif" font-size="10.00" fill="#ffffff">free(job)</text>
</g>
<!-- auth_401&#45;&gt;cleanup -->
<g id="edge30" class="edge">
<title>auth_401&#45;&gt;cleanup</title>
<path fill="none" stroke="#666666" stroke-dasharray="5,2" d="M666.99,-605.79C670.28,-592.22 674.97,-572.92 678.96,-556.5"/>
<polygon fill="#666666" stroke="#666666" points="682.27,-557.71 681.23,-547.16 675.47,-556.05 682.27,-557.71"/>
</g>
<!-- sse_register -->
<g id="node11" class="node">
<title>sse_register</title>
<path fill="#2a4a3a" stroke="#555555" d="M263.17,-642C263.17,-642 164.45,-642 164.45,-642 158.45,-642 152.45,-636 152.45,-630 152.45,-630 152.45,-618 152.45,-618 152.45,-612 158.45,-606 164.45,-606 164.45,-606 263.17,-606 263.17,-606 269.17,-606 275.17,-612 275.17,-618 275.17,-618 275.17,-630 275.17,-630 275.17,-636 269.17,-642 263.17,-642"/>
<text text-anchor="middle" x="213.81" y="-627" font-family="Helvetica,sans-Serif" font-size="10.00" fill="#ffffff">9b. lr_add_client()</text>
<text text-anchor="middle" x="213.81" y="-615" font-family="Helvetica,sans-Serif" font-size="10.00" fill="#ffffff">register in 256&#45;slot table</text>
</g>
<!-- sse_headers&#45;&gt;sse_register -->
<g id="edge11" class="edge">
<title>sse_headers&#45;&gt;sse_register</title>
<path fill="none" stroke="#666666" d="M213.81,-706.59C213.81,-691.95 213.81,-670.62 213.81,-653.44"/>
<polygon fill="#666666" stroke="#666666" points="217.31,-653.86 213.81,-643.86 210.31,-653.86 217.31,-653.86"/>
</g>
<!-- sse_heartbeat -->
<g id="node12" class="node">
<title>sse_heartbeat</title>
<path fill="#2a4a3a" stroke="#555555" d="M250.67,-541.2C250.67,-541.2 176.95,-541.2 176.95,-541.2 170.95,-541.2 164.95,-535.2 164.95,-529.2 164.95,-529.2 164.95,-517.2 164.95,-517.2 164.95,-511.2 170.95,-505.2 176.95,-505.2 176.95,-505.2 250.67,-505.2 250.67,-505.2 256.67,-505.2 262.67,-511.2 262.67,-517.2 262.67,-517.2 262.67,-529.2 262.67,-529.2 262.67,-535.2 256.67,-541.2 250.67,-541.2"/>
<text text-anchor="middle" x="213.81" y="-526.2" font-family="Helvetica,sans-Serif" font-size="10.00" fill="#ffffff">9c. Heartbeat loop</text>
<text text-anchor="middle" x="213.81" y="-514.2" font-family="Helvetica,sans-Serif" font-size="10.00" fill="#ffffff">every 15s</text>
</g>
<!-- sse_register&#45;&gt;sse_heartbeat -->
<g id="edge12" class="edge">
<title>sse_register&#45;&gt;sse_heartbeat</title>
<path fill="none" stroke="#666666" d="M213.81,-605.79C213.81,-591.15 213.81,-569.82 213.81,-552.64"/>
<polygon fill="#666666" stroke="#666666" points="217.31,-553.06 213.81,-543.06 210.31,-553.06 217.31,-553.06"/>
</g>
<!-- safe_path -->
<g id="node14" class="node">
<title>safe_path</title>
<path fill="#4a1a3a" stroke="#555555" d="M458.44,-646C458.44,-646 379.17,-646 379.17,-646 373.17,-646 367.17,-640 367.17,-634 367.17,-634 367.17,-614 367.17,-614 367.17,-608 373.17,-602 379.17,-602 379.17,-602 458.44,-602 458.44,-602 464.44,-602 470.44,-608 470.44,-614 470.44,-614 470.44,-634 470.44,-634 470.44,-640 464.44,-646 458.44,-646"/>
<text text-anchor="middle" x="418.81" y="-633" font-family="Helvetica,sans-Serif" font-size="10.00" fill="#ffffff">10b. safe_path()</text>
<text text-anchor="middle" x="418.81" y="-621" font-family="Helvetica,sans-Serif" font-size="10.00" fill="#ffffff">resolve against root</text>
<text text-anchor="middle" x="418.81" y="-609" font-family="Helvetica,sans-Serif" font-size="10.00" fill="#ffffff">reject traversal</text>
</g>
<!-- method_check&#45;&gt;safe_path -->
<g id="edge14" class="edge">
<title>method_check&#45;&gt;safe_path</title>
<path fill="none" stroke="#666666" d="M433.34,-704.76C422.05,-697.11 411.06,-687.14 404.8,-674.8 401.96,-669.19 401.71,-662.93 402.86,-656.79"/>
<polygon fill="#666666" stroke="#666666" points="406.13,-658.06 405.73,-647.48 399.44,-656 406.13,-658.06"/>
<text text-anchor="middle" x="427.8" y="-666.7" font-family="Helvetica,sans-Serif" font-size="9.00" fill="#aaaaaa">GET/HEAD</text>
</g>
<!-- method_check&#45;&gt;cleanup -->
<g id="edge15" class="edge">
<title>method_check&#45;&gt;cleanup</title>
<path fill="none" stroke="#666666" stroke-dasharray="5,2" d="M477.48,-694.14C484.2,-666.2 497.91,-624.75 523.79,-598 549.11,-571.82 585.44,-554.14 617.37,-542.67"/>
<polygon fill="#666666" stroke="#666666" points="618.26,-546.06 626.58,-539.5 615.98,-539.44 618.26,-546.06"/>
<text text-anchor="middle" x="553.3" y="-621.3" font-family="Helvetica,sans-Serif" font-size="9.00" fill="#aaaaaa">OTHER → 405</text>
</g>
<!-- method_405 -->
<g id="node26" class="node">
<title>method_405</title>
<path fill="#6a2a2a" stroke="#555555" d="M888.05,-642C888.05,-642 811.56,-642 811.56,-642 805.56,-642 799.56,-636 799.56,-630 799.56,-630 799.56,-618 799.56,-618 799.56,-612 805.56,-606 811.56,-606 811.56,-606 888.05,-606 888.05,-606 894.05,-606 900.05,-612 900.05,-618 900.05,-618 900.05,-630 900.05,-630 900.05,-636 894.05,-642 888.05,-642"/>
<text text-anchor="middle" x="849.81" y="-621" font-family="Helvetica,sans-Serif" font-size="10.00" fill="#dddddd">response error 405</text>
</g>
<!-- method_check&#45;&gt;method_405 -->
<g id="edge31" class="edge">
<title>method_check&#45;&gt;method_405</title>
<path fill="none" stroke="#666666" d="M521.41,-708.12C540.45,-702.58 562.48,-696.76 582.81,-692.8 653.05,-679.13 673.91,-694.15 742.81,-674.8 765.72,-668.37 789.86,-657.52 809.4,-647.59"/>
<polygon fill="#666666" stroke="#666666" points="810.86,-650.78 818.12,-643.06 807.63,-644.57 810.86,-650.78"/>
<text text-anchor="middle" x="789.08" y="-666.7" font-family="Helvetica,sans-Serif" font-size="9.00" fill="#aaaaaa">OTHER</text>
</g>
<!-- dir_check -->
<g id="node15" class="node">
<title>dir_check</title>
<path fill="#3a3a1a" stroke="#555555" d="M410.28,-551.86C410.28,-551.86 322.84,-526.54 322.84,-526.54 317.08,-524.87 317.08,-521.53 322.84,-519.86 322.84,-519.86 410.28,-494.54 410.28,-494.54 416.04,-492.87 427.57,-492.87 433.33,-494.54 433.33,-494.54 520.77,-519.86 520.77,-519.86 526.54,-521.53 526.54,-524.87 520.77,-526.54 520.77,-526.54 433.33,-551.86 433.33,-551.86 427.57,-553.53 416.04,-553.53 410.28,-551.86"/>
<text text-anchor="middle" x="421.81" y="-526.2" font-family="Helvetica,sans-Serif" font-size="10.00" fill="#ffffff">10c. Directory?</text>
<text text-anchor="middle" x="421.81" y="-514.2" font-family="Helvetica,sans-Serif" font-size="10.00" fill="#ffffff">index.html? trailing /?</text>
</g>
<!-- safe_path&#45;&gt;dir_check -->
<g id="edge16" class="edge">
<title>safe_path&#45;&gt;dir_check</title>
<path fill="none" stroke="#666666" d="M408.94,-601.55C406.82,-595.95 404.89,-589.85 403.81,-584 402.5,-576.93 403.07,-569.52 404.64,-562.41"/>
<polygon fill="#666666" stroke="#666666" points="407.94,-563.61 407.38,-553.03 401.22,-561.65 407.94,-563.61"/>
</g>
<!-- dir_check&#45;&gt;safe_path -->
<g id="edge17" class="edge">
<title>dir_check&#45;&gt;safe_path</title>
<path fill="none" stroke="#666666" stroke-dasharray="5,2" d="M420.52,-566.64C420.15,-578.7 419.77,-591.33 419.46,-601.56"/>
<polygon fill="#666666" stroke="#666666" points="424.01,-566.96 420.82,-556.86 417.01,-566.75 424.01,-566.96"/>
<text text-anchor="middle" x="457.83" y="-575.9" font-family="Helvetica,sans-Serif" font-size="9.00" fill="#aaaaaa">no / → 301 redirect</text>
</g>
<!-- stat_file -->
<g id="node16" class="node">
<title>stat_file</title>
<path fill="#4a1a3a" stroke="#555555" d="M463.1,-454.2C463.1,-454.2 380.51,-454.2 380.51,-454.2 374.51,-454.2 368.51,-448.2 368.51,-442.2 368.51,-442.2 368.51,-430.2 368.51,-430.2 368.51,-424.2 374.51,-418.2 380.51,-418.2 380.51,-418.2 463.1,-418.2 463.1,-418.2 469.1,-418.2 475.1,-424.2 475.1,-430.2 475.1,-430.2 475.1,-442.2 475.1,-442.2 475.1,-448.2 469.1,-454.2 463.1,-454.2"/>
<text text-anchor="middle" x="421.81" y="-439.2" font-family="Helvetica,sans-Serif" font-size="10.00" fill="#ffffff">10d. stat() + ETag</text>
<text text-anchor="middle" x="421.81" y="-427.2" font-family="Helvetica,sans-Serif" font-size="10.00" fill="#ffffff">generate mtime&#45;size</text>
</g>
<!-- dir_check&#45;&gt;stat_file -->
<g id="edge18" class="edge">
<title>dir_check&#45;&gt;stat_file</title>
<path fill="none" stroke="#666666" d="M421.81,-491.03C421.81,-482.85 421.81,-474.07 421.81,-466.02"/>
<polygon fill="#666666" stroke="#666666" points="425.31,-466.05 421.81,-456.05 418.31,-466.05 425.31,-466.05"/>
</g>
<!-- conditional -->
<g id="node17" class="node">
<title>conditional</title>
<path fill="#3a3a1a" stroke="#555555" d="M410.57,-376.98C410.57,-376.98 315.87,-341.42 315.87,-341.42 310.25,-339.31 310.25,-335.09 315.87,-332.98 315.87,-332.98 410.57,-297.42 410.57,-297.42 416.19,-295.31 427.42,-295.31 433.04,-297.42 433.04,-297.42 527.75,-332.98 527.75,-332.98 533.36,-335.09 533.36,-339.31 527.75,-341.42 527.75,-341.42 433.04,-376.98 433.04,-376.98 427.42,-379.09 416.19,-379.09 410.57,-376.98"/>
<text text-anchor="middle" x="421.81" y="-346.2" font-family="Helvetica,sans-Serif" font-size="10.00" fill="#ffffff">10e. Conditional GET?</text>
<text text-anchor="middle" x="421.81" y="-334.2" font-family="Helvetica,sans-Serif" font-size="10.00" fill="#ffffff">If&#45;None&#45;Match?</text>
<text text-anchor="middle" x="421.81" y="-322.2" font-family="Helvetica,sans-Serif" font-size="10.00" fill="#ffffff">If&#45;Modified&#45;Since?</text>
</g>
<!-- stat_file&#45;&gt;conditional -->
<g id="edge19" class="edge">
<title>stat_file&#45;&gt;conditional</title>
<path fill="none" stroke="#666666" d="M421.81,-417.86C421.81,-410.73 421.81,-402.05 421.81,-393.07"/>
<polygon fill="#666666" stroke="#666666" points="425.31,-393.14 421.81,-383.14 418.31,-393.14 425.31,-393.14"/>
</g>
<!-- range_check -->
<g id="node18" class="node">
<title>range_check</title>
<path fill="#3a3a1a" stroke="#555555" d="M394.04,-253.86C394.04,-253.86 326.91,-240.54 326.91,-240.54 321.02,-239.37 321.02,-237.03 326.91,-235.86 326.91,-235.86 394.04,-222.54 394.04,-222.54 399.92,-221.37 411.69,-221.37 417.58,-222.54 417.58,-222.54 484.71,-235.86 484.71,-235.86 490.59,-237.03 490.59,-239.37 484.71,-240.54 484.71,-240.54 417.58,-253.86 417.58,-253.86 411.69,-255.03 399.92,-255.03 394.04,-253.86"/>
<text text-anchor="middle" x="405.81" y="-235.2" font-family="Helvetica,sans-Serif" font-size="10.00" fill="#ffffff">10f. Range request?</text>
</g>
<!-- conditional&#45;&gt;range_check -->
<g id="edge21" class="edge">
<title>conditional&#45;&gt;range_check</title>
<path fill="none" stroke="#666666" d="M415.07,-295.34C413.49,-285.8 411.85,-275.86 410.4,-267.04"/>
<polygon fill="#666666" stroke="#666666" points="413.88,-266.64 408.8,-257.34 406.97,-267.78 413.88,-266.64"/>
</g>
<!-- response_send -->
<g id="node21" class="node">
<title>response_send</title>
<path fill="#1a4a3a" stroke="#555555" d="M551.78,-89.6C551.78,-89.6 465.83,-89.6 465.83,-89.6 459.83,-89.6 453.83,-83.6 453.83,-77.6 453.83,-77.6 453.83,-65.6 453.83,-65.6 453.83,-59.6 459.83,-53.6 465.83,-53.6 465.83,-53.6 551.78,-53.6 551.78,-53.6 557.78,-53.6 563.78,-59.6 563.78,-65.6 563.78,-65.6 563.78,-77.6 563.78,-77.6 563.78,-83.6 557.78,-89.6 551.78,-89.6"/>
<text text-anchor="middle" x="508.81" y="-74.6" font-family="Helvetica,sans-Serif" font-size="10.00" fill="#ffffff">10i. response_send()</text>
<text text-anchor="middle" x="508.81" y="-62.6" font-family="Helvetica,sans-Serif" font-size="10.00" fill="#ffffff">headers + body</text>
</g>
<!-- conditional&#45;&gt;response_send -->
<g id="edge20" class="edge">
<title>conditional&#45;&gt;response_send</title>
<path fill="none" stroke="#666666" stroke-dasharray="5,2" d="M462.19,-308.24C478.95,-294.51 496.97,-276.54 507.81,-256.2 523.8,-226.17 499.28,-207.73 519.81,-180.6 531.33,-165.38 548.52,-178.68 558.81,-162.6 572.42,-141.32 555.76,-116.1 538.1,-97.78"/>
<polygon fill="#666666" stroke="#666666" points="540.71,-95.43 531.11,-90.94 535.81,-100.44 540.71,-95.43"/>
<text text-anchor="middle" x="545.82" y="-188.7" font-family="Helvetica,sans-Serif" font-size="9.00" fill="#aaaaaa">match → 304</text>
</g>
<!-- read_file -->
<g id="node19" class="node">
<title>read_file</title>
<path fill="#4a1a3a" stroke="#555555" d="M392.42,-162.6C392.42,-162.6 311.2,-162.6 311.2,-162.6 305.2,-162.6 299.2,-156.6 299.2,-150.6 299.2,-150.6 299.2,-138.6 299.2,-138.6 299.2,-132.6 305.2,-126.6 311.2,-126.6 311.2,-126.6 392.42,-126.6 392.42,-126.6 398.42,-126.6 404.42,-132.6 404.42,-138.6 404.42,-138.6 404.42,-150.6 404.42,-150.6 404.42,-156.6 398.42,-162.6 392.42,-162.6"/>
<text text-anchor="middle" x="351.81" y="-147.6" font-family="Helvetica,sans-Serif" font-size="10.00" fill="#ffffff">10g. open() + read()</text>
<text text-anchor="middle" x="351.81" y="-135.6" font-family="Helvetica,sans-Serif" font-size="10.00" fill="#ffffff">seek for ranges</text>
</g>
<!-- range_check&#45;&gt;read_file -->
<g id="edge23" class="edge">
<title>range_check&#45;&gt;read_file</title>
<path fill="none" stroke="#666666" d="M383.34,-224.46C375.15,-218.7 366.61,-211.16 361.29,-202.2 356.36,-193.88 353.81,-183.74 352.53,-174.35"/>
<polygon fill="#666666" stroke="#666666" points="356.03,-174.21 351.66,-164.56 349.06,-174.83 356.03,-174.21"/>
<text text-anchor="middle" x="381.05" y="-194.1" font-family="Helvetica,sans-Serif" font-size="9.00" fill="#aaaaaa">normal</text>
<text text-anchor="middle" x="381.05" y="-183.3" font-family="Helvetica,sans-Serif" font-size="9.00" fill="#aaaaaa">(or range)</text>
</g>
<!-- lr_inject -->
<g id="node20" class="node">
<title>lr_inject</title>
<path fill="#4a1a3a" stroke="#555555" d="M535.62,-162.6C535.62,-162.6 438,-162.6 438,-162.6 432,-162.6 426,-156.6 426,-150.6 426,-150.6 426,-138.6 426,-138.6 426,-132.6 432,-126.6 438,-126.6 438,-126.6 535.62,-126.6 535.62,-126.6 541.62,-126.6 547.62,-132.6 547.62,-138.6 547.62,-138.6 547.62,-150.6 547.62,-150.6 547.62,-156.6 541.62,-162.6 535.62,-162.6"/>
<text text-anchor="middle" x="486.81" y="-147.6" font-family="Helvetica,sans-Serif" font-size="10.00" fill="#ffffff">10h. Inject live&#45;reload</text>
<text text-anchor="middle" x="486.81" y="-135.6" font-family="Helvetica,sans-Serif" font-size="10.00" fill="#ffffff">&lt;script&gt; before &lt;/body&gt;</text>
</g>
<!-- range_check&#45;&gt;lr_inject -->
<g id="edge22" class="edge">
<title>range_check&#45;&gt;lr_inject</title>
<path fill="none" stroke="#666666" d="M410.75,-220.68C414.99,-208.57 422.05,-192.27 432.26,-180.6 435.74,-176.63 439.77,-172.94 444.04,-169.56"/>
<polygon fill="#666666" stroke="#666666" points="445.75,-172.64 451.81,-163.95 441.65,-166.97 445.75,-172.64"/>
<text text-anchor="middle" x="462.54" y="-194.1" font-family="Helvetica,sans-Serif" font-size="9.00" fill="#aaaaaa">is HTML</text>
<text text-anchor="middle" x="462.54" y="-183.3" font-family="Helvetica,sans-Serif" font-size="9.00" fill="#aaaaaa">&amp;&amp; LR enabled</text>
</g>
<!-- read_file&#45;&gt;response_send -->
<g id="edge25" class="edge">
<title>read_file&#45;&gt;response_send</title>
<path fill="none" stroke="#666666" d="M390.21,-126.23C411.22,-116.73 437.45,-104.87 459.91,-94.71"/>
<polygon fill="#666666" stroke="#666666" points="461.2,-97.97 468.87,-90.66 458.32,-91.59 461.2,-97.97"/>
</g>
<!-- lr_inject&#45;&gt;response_send -->
<g id="edge24" class="edge">
<title>lr_inject&#45;&gt;response_send</title>
<path fill="none" stroke="#666666" d="M492.13,-126.41C494.54,-118.65 497.44,-109.28 500.15,-100.55"/>
<polygon fill="#666666" stroke="#666666" points="503.47,-101.66 503.08,-91.07 496.78,-99.59 503.47,-101.66"/>
</g>
<!-- decision2 -->
<g id="node22" class="node">
<title>decision2</title>
<path fill="#3a3a1a" stroke="#555555" d="M693.15,-1103.73C693.15,-1103.73 643.28,-1091.47 643.28,-1091.47 637.45,-1090.03 637.45,-1087.17 643.28,-1085.73 643.28,-1085.73 693.15,-1073.47 693.15,-1073.47 698.98,-1072.03 710.63,-1072.03 716.46,-1073.47 716.46,-1073.47 766.34,-1085.73 766.34,-1085.73 772.16,-1087.17 772.16,-1090.03 766.34,-1091.47 766.34,-1091.47 716.46,-1103.73 716.46,-1103.73 710.63,-1105.17 698.98,-1105.17 693.15,-1103.73"/>
<text text-anchor="middle" x="704.81" y="-1085.6" font-family="Helvetica,sans-Serif" font-size="10.00" fill="#ffffff">11. keep_alive?</text>
</g>
<!-- response_send&#45;&gt;decision2 -->
<g id="edge26" class="edge">
<title>response_send&#45;&gt;decision2</title>
<path fill="none" stroke="#666666" d="M564.01,-76.07C642.47,-82.54 776.81,-99.98 776.81,-143.6 776.81,-1006.8 776.81,-1006.8 776.81,-1006.8 776.81,-1033.12 755.25,-1054.83 735.73,-1069.09"/>
<polygon fill="#666666" stroke="#666666" points="733.92,-1066.08 727.66,-1074.63 737.88,-1071.86 733.92,-1066.08"/>
</g>
<!-- set_timeout -->
<g id="node23" class="node">
<title>set_timeout</title>
<path fill="#2d2d2d" stroke="#555555" d="M663.84,-1023.8C663.84,-1023.8 551.78,-1023.8 551.78,-1023.8 545.78,-1023.8 539.78,-1017.8 539.78,-1011.8 539.78,-1011.8 539.78,-999.8 539.78,-999.8 539.78,-993.8 545.78,-987.8 551.78,-987.8 551.78,-987.8 663.84,-987.8 663.84,-987.8 669.84,-987.8 675.84,-993.8 675.84,-999.8 675.84,-999.8 675.84,-1011.8 675.84,-1011.8 675.84,-1017.8 669.84,-1023.8 663.84,-1023.8"/>
<text text-anchor="middle" x="607.81" y="-1002.8" font-family="Helvetica,sans-Serif" font-size="10.00" fill="#dddddd">12. transport_set_timeout()</text>
</g>
<!-- decision2&#45;&gt;set_timeout -->
<g id="edge27" class="edge">
<title>decision2&#45;&gt;set_timeout</title>
<path fill="none" stroke="#666666" d="M688.79,-1074.26C674.77,-1062.58 654.04,-1045.31 637.07,-1031.17"/>
<polygon fill="#666666" stroke="#666666" points="639.68,-1028.79 629.75,-1025.08 635.2,-1034.17 639.68,-1028.79"/>
<text text-anchor="middle" x="669.12" y="-1044.5" font-family="Helvetica,sans-Serif" font-size="9.00" fill="#aaaaaa">yes</text>
</g>
<!-- decision2&#45;&gt;cleanup -->
<g id="edge28" class="edge">
<title>decision2&#45;&gt;cleanup</title>
<path fill="none" stroke="#666666" d="M716.72,-1073.12C728.19,-1057.69 743.81,-1032.03 743.81,-1006.8 743.81,-1006.8 743.81,-1006.8 743.81,-878 743.81,-753.55 782.7,-715.88 742.81,-598 737.37,-581.94 726.92,-566.59 716.5,-554.1"/>
<polygon fill="#666666" stroke="#666666" points="719.21,-551.88 709.99,-546.67 713.95,-556.49 719.21,-551.88"/>
<text text-anchor="middle" x="751.32" y="-839.3" font-family="Helvetica,sans-Serif" font-size="9.00" fill="#aaaaaa">no</text>
</g>
<!-- set_timeout&#45;&gt;parse_request -->
<g id="edge29" class="edge">
<title>set_timeout&#45;&gt;parse_request</title>
<path fill="none" stroke="#666666" d="M579.96,-987.43C561.44,-975.89 536.74,-960.49 515.62,-947.32"/>
<polygon fill="#666666" stroke="#666666" points="517.51,-944.37 507.17,-942.05 513.81,-950.31 517.51,-944.37"/>
<text text-anchor="middle" x="588.98" y="-961.7" font-family="Helvetica,sans-Serif" font-size="9.00" fill="#aaaaaa">loop for next request</text>
</g>
<!-- method_405&#45;&gt;cleanup -->
<g id="edge32" class="edge">
<title>method_405&#45;&gt;cleanup</title>
<path fill="none" stroke="#666666" stroke-dasharray="5,2" d="M821.04,-605.56C796.35,-590.6 760.35,-568.77 731.84,-551.5"/>
<polygon fill="#666666" stroke="#666666" points="733.76,-548.57 723.39,-546.38 730.13,-554.55 733.76,-548.57"/>
</g>
</g>
</svg>
