<?xml version="1.0" encoding="UTF-8" standalone="no"?>
<!DOCTYPE svg PUBLIC "-//W3C//DTD SVG 1.1//EN"
 "http://www.w3.org/Graphics/SVG/1.1/DTD/svg11.dtd">
<!-- Generated by graphviz version 2.43.0 (0)
 -->
<!-- Title: request_lifecycle Pages: 1 -->
<svg width="1293pt" height="1434pt"
 viewBox="0.00 0.00 1292.60 1433.60" xmlns="http://www.w3.org/2000/svg" xmlns:xlink="http://www.w3.org/1999/xlink">
<g id="graph0" class="graph" transform="scale(1 1) rotate(0) translate(28.8 1404.8)">
<title>request_lifecycle</title>
<polygon fill="#fcfcfb" stroke="transparent" points="-28.8,28.8 -28.8,-1404.8 1263.8,-1404.8 1263.8,28.8 -28.8,28.8"/>
<text text-anchor="middle" x="199.5" y="-9.6" font-family="Helvetica,sans-Serif" font-size="18.00" fill="#1a1a1a">HTTP Request — Full Lifecycle (Optimized)</text>
<g id="clust1" class="cluster">
<title>cluster_worker</title>
<polygon fill="#f6f5f2" stroke="#dedcd6" stroke-dasharray="5,2" points="8,-36 8,-1021 685,-1021 685,-36 8,-36"/>
<text text-anchor="middle" x="106.5" y="-1007.4" font-family="Helvetica,sans-Serif" font-size="12.00" fill="#8a8983">Worker Thread (handle_client)</text>
</g>
<g id="clust2" class="cluster">
<title>cluster_auth</title>
<polygon fill="#f6f5f2" stroke="#dedcd6" points="515,-660.5 515,-832.5 677,-832.5 677,-660.5 515,-660.5"/>
<text text-anchor="middle" x="557.5" y="-818.9" font-family="Helvetica,sans-Serif" font-size="12.00" fill="#8a8983">Auth Check</text>
</g>
<g id="clust3" class="cluster">
<title>cluster_sse</title>
<polygon fill="#f6f5f2" stroke="#dedcd6" points="16,-564 16,-830 177,-830 177,-564 16,-564"/>
<text text-anchor="middle" x="96.5" y="-816.4" font-family="Helvetica,sans-Serif" font-size="12.00" fill="#8a8983">SSE (if path=/livereload)</text>
</g>
<g id="clust4" class="cluster">
<title>cluster_serve</title>
<polygon fill="#f6f5f2" stroke="#dedcd6" points="185,-44 185,-842 507,-842 507,-44 185,-44"/>
<text text-anchor="middle" x="264" y="-828.4" font-family="Helvetica,sans-Serif" font-size="12.00" fill="#8a8983">File Serving (Optimized)</text>
</g>
<!-- accept -->
<g id="node1" class="node">
<title>accept</title>
<polygon fill="#e8f0fc" stroke="#1e50a2" points="592,-1370 490,-1370 490,-1346 592,-1346 604,-1358 592,-1370"/>
<text text-anchor="middle" x="547" y="-1361" font-family="Helvetica,sans-Serif" font-size="10.00" fill="#1e50a2">1. accept()</text>
<text text-anchor="middle" x="547" y="-1350" font-family="Helvetica,sans-Serif" font-size="10.00" fill="#1e50a2">new TCP connection</text>
</g>
<!-- transport_new -->
<g id="node2" class="node">
<title>transport_new</title>
<path fill="#ffffff" stroke="#d8d7d2" d="M599.5,-1303C599.5,-1303 494.5,-1303 494.5,-1303 488.5,-1303 482.5,-1297 482.5,-1291 482.5,-1291 482.5,-1279 482.5,-1279 482.5,-1273 488.5,-1267 494.5,-1267 494.5,-1267 599.5,-1267 599.5,-1267 605.5,-1267 611.5,-1273 611.5,-1279 611.5,-1279 611.5,-1291 611.5,-1291 611.5,-1297 605.5,-1303 599.5,-1303"/>
<text text-anchor="middle" x="547" y="-1288" font-family="Helvetica,sans-Serif" font-size="10.00" fill="#6b6a66">2. transport_new(cfd)</text>
<text text-anchor="middle" x="547" y="-1277" font-family="Helvetica,sans-Serif" font-size="10.00" fill="#6b6a66">wrap fd, TCP_NODELAY</text>
</g>
<!-- accept&#45;&gt;transport_new -->
<g id="edge1" class="edge">
<title>accept&#45;&gt;transport_new</title>
<path fill="none" stroke="#9c9b95" d="M547,-1339.81C547,-1330.92 547,-1319.91 547,-1310.17"/>
<polygon fill="#9c9b95" stroke="#9c9b95" points="549.45,-1310.03 547,-1303.03 544.55,-1310.03 549.45,-1310.03"/>
</g>
<!-- peer_addr -->
<g id="node3" class="node">
<title>peer_addr</title>
<path fill="#ffffff" stroke="#d8d7d2" d="M583.5,-1230C583.5,-1230 510.5,-1230 510.5,-1230 504.5,-1230 498.5,-1224 498.5,-1218 498.5,-1218 498.5,-1206 498.5,-1206 498.5,-1200 504.5,-1194 510.5,-1194 510.5,-1194 583.5,-1194 583.5,-1194 589.5,-1194 595.5,-1200 595.5,-1206 595.5,-1206 595.5,-1218 595.5,-1218 595.5,-1224 589.5,-1230 583.5,-1230"/>
<text text-anchor="middle" x="547" y="-1215" font-family="Helvetica,sans-Serif" font-size="10.00" fill="#6b6a66">3. peer_addr()</text>
<text text-anchor="middle" x="547" y="-1204" font-family="Helvetica,sans-Serif" font-size="10.00" fill="#6b6a66">get client IP:port</text>
</g>
<!-- transport_new&#45;&gt;peer_addr -->
<g id="edge2" class="edge">
<title>transport_new&#45;&gt;peer_addr</title>
<path fill="none" stroke="#9c9b95" d="M547,-1266.81C547,-1257.92 547,-1246.91 547,-1237.17"/>
<polygon fill="#9c9b95" stroke="#9c9b95" points="549.45,-1237.03 547,-1230.03 544.55,-1237.03 549.45,-1237.03"/>
</g>
<!-- ratelimit_check -->
<g id="node4" class="node">
<title>ratelimit_check</title>
<path fill="#faeeda" stroke="#854f0b" d="M593,-1157C593,-1157 501,-1157 501,-1157 495,-1157 489,-1151 489,-1145 489,-1145 489,-1133 489,-1133 489,-1127 495,-1121 501,-1121 501,-1121 593,-1121 593,-1121 599,-1121 605,-1127 605,-1133 605,-1133 605,-1145 605,-1145 605,-1151 599,-1157 593,-1157"/>
<text text-anchor="middle" x="547" y="-1142" font-family="Helvetica,sans-Serif" font-size="10.00" fill="#854f0b">4. ratelimit_accept()</text>
<text text-anchor="middle" x="547" y="-1131" font-family="Helvetica,sans-Serif" font-size="10.00" fill="#854f0b">dynamic hash table</text>
</g>
<!-- peer_addr&#45;&gt;ratelimit_check -->
<g id="edge3" class="edge">
<title>peer_addr&#45;&gt;ratelimit_check</title>
<path fill="none" stroke="#9c9b95" d="M547,-1193.81C547,-1184.92 547,-1173.91 547,-1164.17"/>
<polygon fill="#9c9b95" stroke="#9c9b95" points="549.45,-1164.03 547,-1157.03 544.55,-1164.03 549.45,-1164.03"/>
</g>
<!-- thread_dispatch -->
<g id="node5" class="node">
<title>thread_dispatch</title>
<path fill="#faeeda" stroke="#854f0b" d="M601.5,-1084C601.5,-1084 492.5,-1084 492.5,-1084 486.5,-1084 480.5,-1078 480.5,-1072 480.5,-1072 480.5,-1060 480.5,-1060 480.5,-1054 486.5,-1048 492.5,-1048 492.5,-1048 601.5,-1048 601.5,-1048 607.5,-1048 613.5,-1054 613.5,-1060 613.5,-1060 613.5,-1072 613.5,-1072 613.5,-1078 607.5,-1084 601.5,-1084"/>
<text text-anchor="middle" x="547" y="-1069" font-family="Helvetica,sans-Serif" font-size="10.00" fill="#854f0b">5. thread_pool_submit()</text>
<text text-anchor="middle" x="547" y="-1058" font-family="Helvetica,sans-Serif" font-size="10.00" fill="#854f0b">dispatch to worker</text>
</g>
<!-- ratelimit_check&#45;&gt;thread_dispatch -->
<g id="edge4" class="edge">
<title>ratelimit_check&#45;&gt;thread_dispatch</title>
<path fill="none" stroke="#9c9b95" d="M547,-1120.81C547,-1111.92 547,-1100.91 547,-1091.17"/>
<polygon fill="#9c9b95" stroke="#9c9b95" points="549.45,-1091.03 547,-1084.03 544.55,-1091.03 549.45,-1091.03"/>
</g>
<!-- parse_request -->
<g id="node6" class="node">
<title>parse_request</title>
<path fill="#e1f5ee" stroke="#0f6e56" d="M613.5,-992C613.5,-992 480.5,-992 480.5,-992 474.5,-992 468.5,-986 468.5,-980 468.5,-980 468.5,-963 468.5,-963 468.5,-957 474.5,-951 480.5,-951 480.5,-951 613.5,-951 613.5,-951 619.5,-951 625.5,-957 625.5,-963 625.5,-963 625.5,-980 625.5,-980 625.5,-986 619.5,-992 613.5,-992"/>
<text text-anchor="middle" x="547" y="-980" font-family="Helvetica,sans-Serif" font-size="10.00" fill="#0f6e56">6. http_parse_request()</text>
<text text-anchor="middle" x="547" y="-969" font-family="Helvetica,sans-Serif" font-size="10.00" fill="#0f6e56">buffered read (4KB chunks)</text>
<text text-anchor="middle" x="547" y="-958" font-family="Helvetica,sans-Serif" font-size="10.00" fill="#0f6e56">parse method, path, headers</text>
</g>
<!-- thread_dispatch&#45;&gt;parse_request -->
<g id="edge5" class="edge">
<title>thread_dispatch&#45;&gt;parse_request</title>
<path fill="none" stroke="#9c9b95" d="M547,-1047.6C547,-1034.02 547,-1014.91 547,-999.37"/>
<polygon fill="#9c9b95" stroke="#9c9b95" points="549.45,-999.06 547,-992.06 544.55,-999.06 549.45,-999.06"/>
</g>
<!-- decision1 -->
<g id="node7" class="node">
<title>decision1</title>
<path fill="#faf6d8" stroke="#8a7a0f" d="M482.35,-911.1C482.35,-911.1 433.29,-898.9 433.29,-898.9 427.47,-897.45 427.47,-894.55 433.29,-893.1 433.29,-893.1 482.35,-880.9 482.35,-880.9 488.18,-879.45 499.82,-879.45 505.65,-880.9 505.65,-880.9 554.71,-893.1 554.71,-893.1 560.53,-894.55 560.53,-897.45 554.71,-898.9 554.71,-898.9 505.65,-911.1 505.65,-911.1 499.82,-912.55 488.18,-912.55 482.35,-911.1"/>
<text text-anchor="middle" x="494" y="-893.5" font-family="Helvetica,sans-Serif" font-size="10.00" fill="#8a7a0f">7. Decide path</text>
</g>
<!-- parse_request&#45;&gt;decision1 -->
<g id="edge6" class="edge">
<title>parse_request&#45;&gt;decision1</title>
<path fill="none" stroke="#9c9b95" d="M532.8,-950.8C525.41,-940.57 516.4,-928.06 508.91,-917.68"/>
<polygon fill="#9c9b95" stroke="#9c9b95" points="510.79,-916.1 504.71,-911.85 506.82,-918.96 510.79,-916.1"/>
</g>
<!-- auth_check -->
<g id="node8" class="node">
<title>auth_check</title>
<path fill="#f3e8fc" stroke="#6b21a8" d="M638.5,-803.5C638.5,-803.5 553.5,-803.5 553.5,-803.5 547.5,-803.5 541.5,-797.5 541.5,-791.5 541.5,-791.5 541.5,-774.5 541.5,-774.5 541.5,-768.5 547.5,-762.5 553.5,-762.5 553.5,-762.5 638.5,-762.5 638.5,-762.5 644.5,-762.5 650.5,-768.5 650.5,-774.5 650.5,-774.5 650.5,-791.5 650.5,-791.5 650.5,-797.5 644.5,-803.5 638.5,-803.5"/>
<text text-anchor="middle" x="596" y="-791.5" font-family="Helvetica,sans-Serif" font-size="10.00" fill="#6b21a8">8a. auth_check()</text>
<text text-anchor="middle" x="596" y="-780.5" font-family="Helvetica,sans-Serif" font-size="10.00" fill="#6b21a8">decode Base64</text>
<text text-anchor="middle" x="596" y="-769.5" font-family="Helvetica,sans-Serif" font-size="10.00" fill="#6b21a8">compare user:pass</text>
</g>
<!-- decision1&#45;&gt;auth_check -->
<g id="edge7" class="edge">
<title>decision1&#45;&gt;auth_check</title>
<path fill="none" stroke="#9c9b95" d="M506.92,-880.94C523.52,-862.87 552.64,-831.19 573.05,-808.97"/>
<polygon fill="#9c9b95" stroke="#9c9b95" points="575.11,-810.35 578.04,-803.54 571.5,-807.04 575.11,-810.35"/>
<text text-anchor="middle" x="572" y="-852.8" font-family="Helvetica,sans-Serif" font-size="9.00" fill="#6b6a66">creds configured</text>
</g>
<!-- sse_headers -->
<g id="node10" class="node">
<title>sse_headers</title>
<path fill="#dff5f2" stroke="#0f7a6e" d="M156.5,-801C156.5,-801 47.5,-801 47.5,-801 41.5,-801 35.5,-795 35.5,-789 35.5,-789 35.5,-777 35.5,-777 35.5,-771 41.5,-765 47.5,-765 47.5,-765 156.5,-765 156.5,-765 162.5,-765 168.5,-771 168.5,-777 168.5,-777 168.5,-789 168.5,-789 168.5,-795 162.5,-801 156.5,-801"/>
<text text-anchor="middle" x="102" y="-786" font-family="Helvetica,sans-Serif" font-size="10.00" fill="#0f7a6e">9a. Send SSE headers</text>
<text text-anchor="middle" x="102" y="-775" font-family="Helvetica,sans-Serif" font-size="10.00" fill="#0f7a6e">event&#45;stream, no&#45;cache</text>
</g>
<!-- decision1&#45;&gt;sse_headers -->
<g id="edge10" class="edge">
<title>decision1&#45;&gt;sse_headers</title>
<path fill="none" stroke="#9c9b95" d="M432.9,-893.12C367.84,-889.22 263.01,-877.42 180,-842 159.72,-833.35 139.82,-818.42 125.2,-805.87"/>
<polygon fill="#9c9b95" stroke="#9c9b95" points="126.55,-803.8 119.67,-801.02 123.32,-807.48 126.55,-803.8"/>
<text text-anchor="middle" x="266.5" y="-852.8" font-family="Helvetica,sans-Serif" font-size="9.00" fill="#6b6a66">path=/livereload</text>
</g>
<!-- method_check -->
<g id="node13" class="node">
<title>method_check</title>
<path fill="#faf6d8" stroke="#8a7a0f" d="M378.43,-809.82C378.43,-809.82 292.57,-786.18 292.57,-786.18 286.78,-784.59 286.78,-781.41 292.57,-779.82 292.57,-779.82 378.43,-756.18 378.43,-756.18 384.22,-754.59 395.78,-754.59 401.57,-756.18 401.57,-756.18 487.43,-779.82 487.43,-779.82 493.22,-781.41 493.22,-784.59 487.43,-786.18 487.43,-786.18 401.57,-809.82 401.57,-809.82 395.78,-811.41 384.22,-811.41 378.43,-809.82"/>
<text text-anchor="middle" x="390" y="-786" font-family="Helvetica,sans-Serif" font-size="10.00" fill="#8a7a0f">10a. Method check</text>
<text text-anchor="middle" x="390" y="-775" font-family="Helvetica,sans-Serif" font-size="10.00" fill="#8a7a0f">GET/HEAD only?</text>
</g>
<!-- decision1&#45;&gt;method_check -->
<g id="edge13" class="edge">
<title>decision1&#45;&gt;method_check</title>
<path fill="none" stroke="#9c9b95" d="M477,-882.07C469.09,-875.75 459.74,-867.83 452,-860 437.83,-845.68 423.52,-828.37 412.22,-813.88"/>
<polygon fill="#9c9b95" stroke="#9c9b95" points="414.11,-812.32 407.89,-808.28 410.23,-815.32 414.11,-812.32"/>
<text text-anchor="middle" x="487" y="-852.8" font-family="Helvetica,sans-Serif" font-size="9.00" fill="#6b6a66">normal request</text>
</g>
<!-- auth_401 -->
<g id="node9" class="node">
<title>auth_401</title>
<path fill="#fce8e8" stroke="#a12626" d="M656.5,-704.5C656.5,-704.5 535.5,-704.5 535.5,-704.5 529.5,-704.5 523.5,-698.5 523.5,-692.5 523.5,-692.5 523.5,-680.5 523.5,-680.5 523.5,-674.5 529.5,-668.5 535.5,-668.5 535.5,-668.5 656.5,-668.5 656.5,-668.5 662.5,-668.5 668.5,-674.5 668.5,-680.5 668.5,-680.5 668.5,-692.5 668.5,-692.5 668.5,-698.5 662.5,-704.5 656.5,-704.5"/>
<text text-anchor="middle" x="596" y="-689.5" font-family="Helvetica,sans-Serif" font-size="10.00" fill="#a12626">8b. auth_send_challenge()</text>
<text text-anchor="middle" x="596" y="-678.5" font-family="Helvetica,sans-Serif" font-size="10.00" fill="#a12626">401 + WWW&#45;Authenticate</text>
</g>
<!-- auth_check&#45;&gt;auth_401 -->
<g id="edge8" class="edge">
<title>auth_check&#45;&gt;auth_401</title>
<path fill="none" stroke="#9c9b95" d="M596,-762.42C596,-747.74 596,-727.55 596,-711.84"/>
<polygon fill="#9c9b95" stroke="#9c9b95" points="598.45,-711.52 596,-704.52 593.55,-711.52 598.45,-711.52"/>
<text text-anchor="middle" x="609" y="-727.8" font-family="Helvetica,sans-Serif" font-size="9.00" fill="#6b6a66">reject</text>
</g>
<!-- decision1_2 -->
<g id="node26" class="node">
<title>decision1_2</title>
<ellipse fill="#ffffff" stroke="#c7c6c0" cx="1106" cy="-686.5" rx="0" ry="0"/>
</g>
<!-- auth_check&#45;&gt;decision1_2 -->
<g id="edge9" class="edge">
<title>auth_check&#45;&gt;decision1_2</title>
<path fill="none" stroke="#9c9b95" d="M650.67,-779.75C764.79,-774.11 1023.67,-756.14 1095,-707 1099.32,-704.02 1102.14,-698.76 1103.85,-694.46"/>
<polygon fill="#9c9b95" stroke="#9c9b95" points="1106.22,-695.07 1105.97,-687.66 1101.54,-693.61 1106.22,-695.07"/>
<text text-anchor="middle" x="1064.5" y="-727.8" font-family="Helvetica,sans-Serif" font-size="9.00" fill="#6b6a66">accept</text>
</g>
<!-- cleanup -->
<g id="node25" class="node">
<title>cleanup</title>
<path fill="#fce8e8" stroke="#a12626" d="M849,-610.5C849,-610.5 745,-610.5 745,-610.5 739,-610.5 733,-604.5 733,-598.5 733,-598.5 733,-581.5 733,-581.5 733,-575.5 739,-569.5 745,-569.5 745,-569.5 849,-569.5 849,-569.5 855,-569.5 861,-575.5 861,-581.5 861,-581.5 861,-598.5 861,-598.5 861,-604.5 855,-610.5 849,-610.5"/>
<text text-anchor="middle" x="797" y="-598.5" font-family="Helvetica,sans-Serif" font-size="10.00" fill="#a12626">13. transport_destroy()</text>
<text text-anchor="middle" x="797" y="-587.5" font-family="Helvetica,sans-Serif" font-size="10.00" fill="#a12626">ratelimit_leave()</text>
<text text-anchor="middle" x="797" y="-576.5" font-family="Helvetica,sans-Serif" font-size="10.00" fill="#a12626">free(job)</text>
</g>
<!-- auth_401&#45;&gt;cleanup -->
<g id="edge31" class="edge">
<title>auth_401&#45;&gt;cleanup</title>
<path fill="none" stroke="#c7c6c0" stroke-dasharray="5,2" d="M632.4,-668.39C664.99,-653.06 713.01,-630.49 748.79,-613.67"/>
<polygon fill="#c7c6c0" stroke="#c7c6c0" points="750.02,-615.79 755.32,-610.6 747.94,-611.36 750.02,-615.79"/>
</g>
<!-- sse_register -->
<g id="node11" class="node">
<title>sse_register</title>
<path fill="#dff5f2" stroke="#0f7a6e" d="M142.5,-704.5C142.5,-704.5 61.5,-704.5 61.5,-704.5 55.5,-704.5 49.5,-698.5 49.5,-692.5 49.5,-692.5 49.5,-680.5 49.5,-680.5 49.5,-674.5 55.5,-668.5 61.5,-668.5 61.5,-668.5 142.5,-668.5 142.5,-668.5 148.5,-668.5 154.5,-674.5 154.5,-680.5 154.5,-680.5 154.5,-692.5 154.5,-692.5 154.5,-698.5 148.5,-704.5 142.5,-704.5"/>
<text text-anchor="middle" x="102" y="-689.5" font-family="Helvetica,sans-Serif" font-size="10.00" fill="#0f7a6e">9b. lr_add_client()</text>
<text text-anchor="middle" x="102" y="-678.5" font-family="Helvetica,sans-Serif" font-size="10.00" fill="#0f7a6e">hash map registry</text>
</g>
<!-- sse_headers&#45;&gt;sse_register -->
<g id="edge11" class="edge">
<title>sse_headers&#45;&gt;sse_register</title>
<path fill="none" stroke="#9c9b95" d="M102,-764.67C102,-749.88 102,-728.45 102,-711.93"/>
<polygon fill="#9c9b95" stroke="#9c9b95" points="104.45,-711.72 102,-704.72 99.55,-711.72 104.45,-711.72"/>
</g>
<!-- sse_heartbeat -->
<g id="node12" class="node">
<title>sse_heartbeat</title>
<path fill="#dff5f2" stroke="#0f7a6e" d="M143.5,-608C143.5,-608 60.5,-608 60.5,-608 54.5,-608 48.5,-602 48.5,-596 48.5,-596 48.5,-584 48.5,-584 48.5,-578 54.5,-572 60.5,-572 60.5,-572 143.5,-572 143.5,-572 149.5,-572 155.5,-578 155.5,-584 155.5,-584 155.5,-596 155.5,-596 155.5,-602 149.5,-608 143.5,-608"/>
<text text-anchor="middle" x="102" y="-593" font-family="Helvetica,sans-Serif" font-size="10.00" fill="#0f7a6e">9c. Heartbeat loop</text>
<text text-anchor="middle" x="102" y="-582" font-family="Helvetica,sans-Serif" font-size="10.00" fill="#0f7a6e">every 15s</text>
</g>
<!-- sse_register&#45;&gt;sse_heartbeat -->
<g id="edge12" class="edge">
<title>sse_register&#45;&gt;sse_heartbeat</title>
<path fill="none" stroke="#9c9b95" d="M102,-668.17C102,-653.38 102,-631.95 102,-615.43"/>
<polygon fill="#9c9b95" stroke="#9c9b95" points="104.45,-615.22 102,-608.22 99.55,-615.22 104.45,-615.22"/>
</g>
<!-- safe_path -->
<g id="node14" class="node">
<title>safe_path</title>
<path fill="#f3e8fc" stroke="#6b21a8" d="M439,-707C439,-707 341,-707 341,-707 335,-707 329,-701 329,-695 329,-695 329,-678 329,-678 329,-672 335,-666 341,-666 341,-666 439,-666 439,-666 445,-666 451,-672 451,-678 451,-678 451,-695 451,-695 451,-701 445,-707 439,-707"/>
<text text-anchor="middle" x="390" y="-695" font-family="Helvetica,sans-Serif" font-size="10.00" fill="#6b21a8">10b. safe_path()</text>
<text text-anchor="middle" x="390" y="-684" font-family="Helvetica,sans-Serif" font-size="10.00" fill="#6b21a8">cached realpath(root)</text>
<text text-anchor="middle" x="390" y="-673" font-family="Helvetica,sans-Serif" font-size="10.00" fill="#6b21a8">reject traversal</text>
</g>
<!-- method_check&#45;&gt;safe_path -->
<g id="edge14" class="edge">
<title>method_check&#45;&gt;safe_path</title>
<path fill="none" stroke="#9c9b95" d="M390,-752.88C390,-740.57 390,-726.33 390,-714.29"/>
<polygon fill="#9c9b95" stroke="#9c9b95" points="392.45,-714.11 390,-707.11 387.55,-714.11 392.45,-714.11"/>
<text text-anchor="middle" x="413.5" y="-727.8" font-family="Helvetica,sans-Serif" font-size="9.00" fill="#6b6a66">GET/HEAD</text>
</g>
<!-- method_check&#45;&gt;cleanup -->
<g id="edge15" class="edge">
<title>method_check&#45;&gt;cleanup</title>
<path fill="none" stroke="#c7c6c0" stroke-dasharray="5,2" d="M442.5,-767.4C463.36,-762.11 487.67,-756.56 510,-753 577.04,-742.32 773.42,-762.85 812,-707 830.33,-680.47 820.15,-642.21 809.77,-616.99"/>
<polygon fill="#c7c6c0" stroke="#c7c6c0" points="812.02,-616.02 807,-610.56 807.52,-617.96 812.02,-616.02"/>
<text text-anchor="middle" x="853.5" y="-684.3" font-family="Helvetica,sans-Serif" font-size="9.00" fill="#6b6a66">OTHER → 405</text>
</g>
<!-- method_405 -->
<g id="node27" class="node">
<title>method_405</title>
<path fill="#fce8e8" stroke="#a12626" d="M789,-704.5C789,-704.5 705,-704.5 705,-704.5 699,-704.5 693,-698.5 693,-692.5 693,-692.5 693,-680.5 693,-680.5 693,-674.5 699,-668.5 705,-668.5 705,-668.5 789,-668.5 789,-668.5 795,-668.5 801,-674.5 801,-680.5 801,-680.5 801,-692.5 801,-692.5 801,-698.5 795,-704.5 789,-704.5"/>
<text text-anchor="middle" x="747" y="-684" font-family="Helvetica,sans-Serif" font-size="10.00" fill="#a12626">response error 405</text>
</g>
<!-- method_check&#45;&gt;method_405 -->
<g id="edge32" class="edge">
<title>method_check&#45;&gt;method_405</title>
<path fill="none" stroke="#9c9b95" d="M443.15,-767.55C463.88,-762.34 487.93,-756.8 510,-753 585.74,-739.94 610.28,-762.63 682,-735 697.24,-729.13 712.12,-718.72 723.78,-709.14"/>
<polygon fill="#9c9b95" stroke="#9c9b95" points="725.47,-710.91 729.24,-704.52 722.31,-707.17 725.47,-710.91"/>
<text text-anchor="middle" x="717.5" y="-727.8" font-family="Helvetica,sans-Serif" font-size="9.00" fill="#6b6a66">OTHER</text>
</g>
<!-- dir_check -->
<g id="node15" class="node">
<title>dir_check</title>
<path fill="#faf6d8" stroke="#8a7a0f" d="M357.34,-617.16C357.34,-617.16 257.66,-592.84 257.66,-592.84 251.83,-591.42 251.83,-588.58 257.66,-587.16 257.66,-587.16 357.34,-562.84 357.34,-562.84 363.17,-561.42 374.83,-561.42 380.66,-562.84 380.66,-562.84 480.34,-587.16 480.34,-587.16 486.17,-588.58 486.17,-591.42 480.34,-592.84 480.34,-592.84 380.66,-617.16 380.66,-617.16 374.83,-618.58 363.17,-618.58 357.34,-617.16"/>
<text text-anchor="middle" x="369" y="-593" font-family="Helvetica,sans-Serif" font-size="10.00" fill="#8a7a0f">10c. Directory?</text>
<text text-anchor="middle" x="369" y="-582" font-family="Helvetica,sans-Serif" font-size="10.00" fill="#8a7a0f">index.html? trailing /?</text>
</g>
<!-- safe_path&#45;&gt;dir_check -->
<g id="edge16" class="edge">
<title>safe_path&#45;&gt;dir_check</title>
<path fill="none" stroke="#9c9b95" d="M378.06,-665.89C375.22,-660.3 372.57,-654.08 371,-648 369.26,-641.24 368.33,-633.88 367.89,-626.76"/>
<polygon fill="#9c9b95" stroke="#9c9b95" points="370.33,-626.65 367.6,-619.76 365.44,-626.85 370.33,-626.65"/>
</g>
<!-- dir_check&#45;&gt;safe_path -->
<g id="edge17" class="edge">
<title>dir_check&#45;&gt;safe_path</title>
<path fill="none" stroke="#c7c6c0" stroke-dasharray="5,2" d="M376.72,-625.73C379.73,-639.28 383.07,-654.32 385.65,-665.92"/>
<polygon fill="#c7c6c0" stroke="#c7c6c0" points="379.09,-625.1 375.18,-618.8 374.3,-626.16 379.09,-625.1"/>
<text text-anchor="middle" x="426" y="-640.8" font-family="Helvetica,sans-Serif" font-size="9.00" fill="#6b6a66">no / → 301 redirect</text>
</g>
<!-- stat_file -->
<g id="node16" class="node">
<title>stat_file</title>
<path fill="#f3e8fc" stroke="#6b21a8" d="M421.5,-523C421.5,-523 316.5,-523 316.5,-523 310.5,-523 304.5,-517 304.5,-511 304.5,-511 304.5,-499 304.5,-499 304.5,-493 310.5,-487 316.5,-487 316.5,-487 421.5,-487 421.5,-487 427.5,-487 433.5,-493 433.5,-499 433.5,-499 433.5,-511 433.5,-511 433.5,-517 427.5,-523 421.5,-523"/>
<text text-anchor="middle" x="369" y="-508" font-family="Helvetica,sans-Serif" font-size="10.00" fill="#6b21a8">10d. stat() + ETag</text>
<text text-anchor="middle" x="369" y="-497" font-family="Helvetica,sans-Serif" font-size="10.00" fill="#6b21a8">hand&#45;rolled hex format</text>
</g>
<!-- dir_check&#45;&gt;stat_file -->
<g id="edge18" class="edge">
<title>dir_check&#45;&gt;stat_file</title>
<path fill="none" stroke="#9c9b95" d="M369,-559.97C369,-550.23 369,-539.48 369,-530.16"/>
<polygon fill="#9c9b95" stroke="#9c9b95" points="371.45,-530.03 369,-523.03 366.55,-530.03 371.45,-530.03"/>
</g>
<!-- conditional -->
<g id="node17" class="node">
<title>conditional</title>
<path fill="#faf6d8" stroke="#8a7a0f" d="M357.61,-446.23C357.61,-446.23 256.39,-412.77 256.39,-412.77 250.7,-410.88 250.7,-407.12 256.39,-405.23 256.39,-405.23 357.61,-371.77 357.61,-371.77 363.3,-369.88 374.7,-369.88 380.39,-371.77 380.39,-371.77 481.61,-405.23 481.61,-405.23 487.3,-407.12 487.3,-410.88 481.61,-412.77 481.61,-412.77 380.39,-446.23 380.39,-446.23 374.7,-448.12 363.3,-448.12 357.61,-446.23"/>
<text text-anchor="middle" x="369" y="-417.5" font-family="Helvetica,sans-Serif" font-size="10.00" fill="#8a7a0f">10e. Conditional GET?</text>
<text text-anchor="middle" x="369" y="-406.5" font-family="Helvetica,sans-Serif" font-size="10.00" fill="#8a7a0f">If&#45;None&#45;Match?</text>
<text text-anchor="middle" x="369" y="-395.5" font-family="Helvetica,sans-Serif" font-size="10.00" fill="#8a7a0f">If&#45;Modified&#45;Since?</text>
</g>
<!-- stat_file&#45;&gt;conditional -->
<g id="edge19" class="edge">
<title>stat_file&#45;&gt;conditional</title>
<path fill="none" stroke="#9c9b95" d="M369,-486.76C369,-478.4 369,-467.92 369,-457.41"/>
<polygon fill="#9c9b95" stroke="#9c9b95" points="371.45,-457.15 369,-450.15 366.55,-457.15 371.45,-457.15"/>
</g>
<!-- range_check -->
<g id="node18" class="node">
<title>range_check</title>
<path fill="#faf6d8" stroke="#8a7a0f" d="M309.21,-328.75C309.21,-328.75 238.64,-315.25 238.64,-315.25 232.75,-314.13 232.75,-311.87 238.64,-310.75 238.64,-310.75 309.21,-297.25 309.21,-297.25 315.11,-296.13 326.89,-296.13 332.79,-297.25 332.79,-297.25 403.36,-310.75 403.36,-310.75 409.25,-311.87 409.25,-314.13 403.36,-315.25 403.36,-315.25 332.79,-328.75 332.79,-328.75 326.89,-329.87 315.11,-329.87 309.21,-328.75"/>
<text text-anchor="middle" x="321" y="-310.5" font-family="Helvetica,sans-Serif" font-size="10.00" fill="#8a7a0f">10f. Range request?</text>
</g>
<!-- conditional&#45;&gt;range_check -->
<g id="edge21" class="edge">
<title>conditional&#45;&gt;range_check</title>
<path fill="none" stroke="#9c9b95" d="M351.4,-373.53C344.96,-360.92 337.85,-347 332.13,-335.8"/>
<polygon fill="#9c9b95" stroke="#9c9b95" points="334.31,-334.67 328.94,-329.55 329.94,-336.9 334.31,-334.67"/>
</g>
<!-- build_headers -->
<g id="node21" class="node">
<title>build_headers</title>
<path fill="#e1f5ee" stroke="#0f6e56" d="M476,-161C476,-161 354,-161 354,-161 348,-161 342,-155 342,-149 342,-149 342,-137 342,-137 342,-131 348,-125 354,-125 354,-125 476,-125 476,-125 482,-125 488,-131 488,-137 488,-137 488,-149 488,-149 488,-155 482,-161 476,-161"/>
<text text-anchor="middle" x="415" y="-146" font-family="Helvetica,sans-Serif" font-size="10.00" fill="#0f6e56">10i. header_cache_build()</text>
<text text-anchor="middle" x="415" y="-135" font-family="Helvetica,sans-Serif" font-size="10.00" fill="#0f6e56">pre&#45;computed Date/Server</text>
</g>
<!-- conditional&#45;&gt;build_headers -->
<g id="edge20" class="edge">
<title>conditional&#45;&gt;build_headers</title>
<path fill="none" stroke="#c7c6c0" stroke-dasharray="5,2" d="M399.16,-377.62C428.09,-346.06 469.73,-293.73 486,-239 491.19,-221.53 494.09,-214.33 486,-198 479.32,-184.53 467.49,-173.5 455.38,-165.01"/>
<polygon fill="#c7c6c0" stroke="#c7c6c0" points="456.62,-162.89 449.44,-161.05 453.9,-166.97 456.62,-162.89"/>
<text text-anchor="middle" x="510.5" y="-264.8" font-family="Helvetica,sans-Serif" font-size="9.00" fill="#6b6a66">match → 304</text>
</g>
<!-- read_file -->
<g id="node19" class="node">
<title>read_file</title>
<path fill="#f3e8fc" stroke="#6b21a8" d="M297,-239C297,-239 205,-239 205,-239 199,-239 193,-233 193,-227 193,-227 193,-210 193,-210 193,-204 199,-198 205,-198 205,-198 297,-198 297,-198 303,-198 309,-204 309,-210 309,-210 309,-227 309,-227 309,-233 303,-239 297,-239"/>
<text text-anchor="middle" x="251" y="-227" font-family="Helvetica,sans-Serif" font-size="10.00" fill="#6b21a8">10g. open() + read()</text>
<text text-anchor="middle" x="251" y="-216" font-family="Helvetica,sans-Serif" font-size="10.00" fill="#6b21a8">thread&#45;local buffer</text>
<text text-anchor="middle" x="251" y="-205" font-family="Helvetica,sans-Serif" font-size="10.00" fill="#6b21a8">sendfile() on Linux</text>
</g>
<!-- range_check&#45;&gt;read_file -->
<g id="edge23" class="edge">
<title>range_check&#45;&gt;read_file</title>
<path fill="none" stroke="#9c9b95" d="M290.54,-300.69C279.62,-295.15 268.23,-287.4 261,-277 254.86,-268.16 252.09,-256.76 250.96,-246.44"/>
<polygon fill="#9c9b95" stroke="#9c9b95" points="253.38,-245.96 250.39,-239.17 248.49,-246.34 253.38,-245.96"/>
<text text-anchor="middle" x="284" y="-269.8" font-family="Helvetica,sans-Serif" font-size="9.00" fill="#6b6a66">normal</text>
<text text-anchor="middle" x="284" y="-259.8" font-family="Helvetica,sans-Serif" font-size="9.00" fill="#6b6a66">(or range)</text>
</g>
<!-- lr_inject -->
<g id="node20" class="node">
<title>lr_inject</title>
<path fill="#f3e8fc" stroke="#6b21a8" d="M463,-236.5C463,-236.5 343,-236.5 343,-236.5 337,-236.5 331,-230.5 331,-224.5 331,-224.5 331,-212.5 331,-212.5 331,-206.5 337,-200.5 343,-200.5 343,-200.5 463,-200.5 463,-200.5 469,-200.5 475,-206.5 475,-212.5 475,-212.5 475,-224.5 475,-224.5 475,-230.5 469,-236.5 463,-236.5"/>
<text text-anchor="middle" x="403" y="-221.5" font-family="Helvetica,sans-Serif" font-size="10.00" fill="#6b21a8">10h. Inject live&#45;reload</text>
<text text-anchor="middle" x="403" y="-210.5" font-family="Helvetica,sans-Serif" font-size="10.00" fill="#6b21a8">single&#45;pass &lt;/body&gt; scan</text>
</g>
<!-- range_check&#45;&gt;lr_inject -->
<g id="edge22" class="edge">
<title>range_check&#45;&gt;lr_inject</title>
<path fill="none" stroke="#9c9b95" d="M324.99,-295.68C328.49,-283.93 334.53,-268.24 344,-257 349.15,-250.89 355.55,-245.44 362.23,-240.72"/>
<polygon fill="#9c9b95" stroke="#9c9b95" points="363.95,-242.52 368.4,-236.59 361.22,-238.44 363.95,-242.52"/>
<text text-anchor="middle" x="377.5" y="-269.8" font-family="Helvetica,sans-Serif" font-size="9.00" fill="#6b6a66">is HTML</text>
<text text-anchor="middle" x="377.5" y="-259.8" font-family="Helvetica,sans-Serif" font-size="9.00" fill="#6b6a66">&amp;&amp; LR enabled</text>
</g>
<!-- read_file&#45;&gt;build_headers -->
<g id="edge25" class="edge">
<title>read_file&#45;&gt;build_headers</title>
<path fill="none" stroke="#9c9b95" d="M294.52,-198C317.94,-187.5 346.77,-174.58 370.36,-164.01"/>
<polygon fill="#9c9b95" stroke="#9c9b95" points="371.48,-166.19 376.87,-161.09 369.48,-161.72 371.48,-166.19"/>
</g>
<!-- lr_inject&#45;&gt;build_headers -->
<g id="edge24" class="edge">
<title>lr_inject&#45;&gt;build_headers</title>
<path fill="none" stroke="#9c9b95" d="M405.78,-200.45C407.35,-190.87 409.32,-178.76 411.05,-168.21"/>
<polygon fill="#9c9b95" stroke="#9c9b95" points="413.48,-168.51 412.19,-161.21 408.64,-167.72 413.48,-168.51"/>
</g>
<!-- writev_send -->
<g id="node22" class="node">
<title>writev_send</title>
<path fill="#e1f5ee" stroke="#0f6e56" d="M484,-88C484,-88 362,-88 362,-88 356,-88 350,-82 350,-76 350,-76 350,-64 350,-64 350,-58 356,-52 362,-52 362,-52 484,-52 484,-52 490,-52 496,-58 496,-64 496,-64 496,-76 496,-76 496,-82 490,-88 484,-88"/>
<text text-anchor="middle" x="423" y="-73" font-family="Helvetica,sans-Serif" font-size="10.00" fill="#0f6e56">10j. transport_writev()</text>
<text text-anchor="middle" x="423" y="-62" font-family="Helvetica,sans-Serif" font-size="10.00" fill="#0f6e56">header + body in 1 syscall</text>
</g>
<!-- build_headers&#45;&gt;writev_send -->
<g id="edge26" class="edge">
<title>build_headers&#45;&gt;writev_send</title>
<path fill="none" stroke="#9c9b95" d="M416.94,-124.81C417.94,-115.92 419.18,-104.91 420.28,-95.17"/>
<polygon fill="#9c9b95" stroke="#9c9b95" points="422.73,-95.26 421.08,-88.03 417.86,-94.71 422.73,-95.26"/>
</g>
<!-- decision2 -->
<g id="node23" class="node">
<title>decision2</title>
<path fill="#faf6d8" stroke="#8a7a0f" d="M995.32,-701.76C995.32,-701.76 942,-689.24 942,-689.24 936.16,-687.87 936.16,-685.13 942,-683.76 942,-683.76 995.32,-671.24 995.32,-671.24 1001.16,-669.87 1012.84,-669.87 1018.68,-671.24 1018.68,-671.24 1072,-683.76 1072,-683.76 1077.84,-685.13 1077.84,-687.87 1072,-689.24 1072,-689.24 1018.68,-701.76 1018.68,-701.76 1012.84,-703.13 1001.16,-703.13 995.32,-701.76"/>
<text text-anchor="middle" x="1007" y="-684" font-family="Helvetica,sans-Serif" font-size="10.00" fill="#8a7a0f">11. keep_alive?</text>
</g>
<!-- writev_send&#45;&gt;decision2 -->
<g id="edge27" class="edge">
<title>writev_send&#45;&gt;decision2</title>
<path fill="none" stroke="#9c9b95" d="M496.09,-73.71C637.55,-79.93 935,-98.22 935,-142 935,-591 935,-591 935,-591 935,-623.24 961.84,-651.34 982.75,-668.34"/>
<polygon fill="#9c9b95" stroke="#9c9b95" points="981.44,-670.43 988.46,-672.83 984.47,-666.58 981.44,-670.43"/>
</g>
<!-- set_timeout -->
<g id="node24" class="node">
<title>set_timeout</title>
<path fill="#ffffff" stroke="#d8d7d2" d="M1162,-608C1162,-608 1036,-608 1036,-608 1030,-608 1024,-602 1024,-596 1024,-596 1024,-584 1024,-584 1024,-578 1030,-572 1036,-572 1036,-572 1162,-572 1162,-572 1168,-572 1174,-578 1174,-584 1174,-584 1174,-596 1174,-596 1174,-602 1168,-608 1162,-608"/>
<text text-anchor="middle" x="1099" y="-587.5" font-family="Helvetica,sans-Serif" font-size="10.00" fill="#6b6a66">12. transport_set_timeout()</text>
</g>
<!-- decision2&#45;&gt;set_timeout -->
<g id="edge28" class="edge">
<title>decision2&#45;&gt;set_timeout</title>
<path fill="none" stroke="#9c9b95" d="M1020.57,-671.56C1035.43,-656.29 1059.47,-631.6 1077.02,-613.57"/>
<polygon fill="#9c9b95" stroke="#9c9b95" points="1079.12,-614.93 1082.25,-608.21 1075.61,-611.52 1079.12,-614.93"/>
<text text-anchor="middle" x="1061" y="-640.8" font-family="Helvetica,sans-Serif" font-size="9.00" fill="#6b6a66">yes</text>
</g>
<!-- decision2&#45;&gt;cleanup -->
<g id="edge29" class="edge">
<title>decision2&#45;&gt;cleanup</title>
<path fill="none" stroke="#9c9b95" d="M976.99,-675.48C956.69,-668.42 929.41,-658.42 906,-648 883.11,-637.82 858.31,-625 838.16,-614.1"/>
<polygon fill="#9c9b95" stroke="#9c9b95" points="839.11,-611.82 831.79,-610.63 836.77,-616.13 839.11,-611.82"/>
<text text-anchor="middle" x="912" y="-640.8" font-family="Helvetica,sans-Serif" font-size="9.00" fill="#6b6a66">no</text>
</g>
<!-- set_timeout&#45;&gt;parse_request -->
<g id="edge30" class="edge">
<title>set_timeout&#45;&gt;parse_request</title>
<path fill="none" stroke="#9c9b95" d="M1111.52,-608.15C1123.58,-626.38 1140,-656.53 1140,-685.5 1140,-897 1140,-897 1140,-897 1140,-947.47 797.32,-963.68 632.96,-968.55"/>
<polygon fill="#9c9b95" stroke="#9c9b95" points="632.67,-966.11 625.75,-968.76 632.81,-971.01 632.67,-966.11"/>
<text text-anchor="middle" x="1187.5" y="-780.8" font-family="Helvetica,sans-Serif" font-size="9.00" fill="#6b6a66">loop for next request</text>
</g>
<!-- method_405&#45;&gt;cleanup -->
<g id="edge33" class="edge">
<title>method_405&#45;&gt;cleanup</title>
<path fill="none" stroke="#c7c6c0" stroke-dasharray="5,2" d="M756.17,-668.17C763.79,-653.77 774.73,-633.09 783.37,-616.75"/>
<polygon fill="#c7c6c0" stroke="#c7c6c0" points="785.57,-617.84 786.68,-610.51 781.24,-615.55 785.57,-617.84"/>
</g>
</g>
</svg>
