<?xml version="1.0" encoding="UTF-8" standalone="no"?>
<!DOCTYPE svg PUBLIC "-//W3C//DTD SVG 1.1//EN"
 "http://www.w3.org/Graphics/SVG/1.1/DTD/svg11.dtd">
<!-- Generated by graphviz version 2.43.0 (0)
 -->
<!-- Title: startup_flow Pages: 1 -->
<svg width="412pt" height="1196pt"
 viewBox="0.00 0.00 411.60 1195.60" xmlns="http://www.w3.org/2000/svg" xmlns:xlink="http://www.w3.org/1999/xlink">
<g id="graph0" class="graph" transform="scale(1 1) rotate(0) translate(28.8 1166.8)">
<title>startup_flow</title>
<polygon fill="#fcfcfb" stroke="transparent" points="-28.8,28.8 -28.8,-1166.8 382.8,-1166.8 382.8,28.8 -28.8,28.8"/>
<text text-anchor="middle" x="177" y="-9.6" font-family="Helvetica,sans-Serif" font-size="18.00" fill="#1a1a1a">Server Startup Sequence (Optimized)</text>
<!-- step1 -->
<g id="node1" class="node">
<title>step1</title>
<polygon fill="#e8f0fc" stroke="#1e50a2" points="238.64,-1132 164.64,-1132 164.64,-1108 238.64,-1108 250.64,-1120 238.64,-1132"/>
<text text-anchor="middle" x="207.64" y="-1117.5" font-family="Helvetica,sans-Serif" font-size="10.00" fill="#1e50a2">1. main() start</text>
</g>
<!-- step2 -->
<g id="node2" class="node">
<title>step2</title>
<path fill="#e8f0fc" stroke="#1e50a2" d="M240.64,-1071C240.64,-1071 174.64,-1071 174.64,-1071 168.64,-1071 162.64,-1065 162.64,-1059 162.64,-1059 162.64,-1047 162.64,-1047 162.64,-1041 168.64,-1035 174.64,-1035 174.64,-1035 240.64,-1035 240.64,-1035 246.64,-1035 252.64,-1041 252.64,-1047 252.64,-1047 252.64,-1059 252.64,-1059 252.64,-1065 246.64,-1071 240.64,-1071"/>
<text text-anchor="middle" x="207.64" y="-1056" font-family="Helvetica,sans-Serif" font-size="10.00" fill="#1e50a2">2. argp_parse()</text>
<text text-anchor="middle" x="207.64" y="-1045" font-family="Helvetica,sans-Serif" font-size="10.00" fill="#1e50a2">parse CLI flags</text>
</g>
<!-- step1&#45;&gt;step2 -->
<g id="edge1" class="edge">
<title>step1&#45;&gt;step2</title>
<path fill="none" stroke="#9c9b95" d="M207.64,-1101.92C207.64,-1094.81 207.64,-1086.42 207.64,-1078.66"/>
<polygon fill="#9c9b95" stroke="#9c9b95" points="210.09,-1078.19 207.64,-1071.19 205.19,-1078.19 210.09,-1078.19"/>
</g>
<!-- step3 -->
<g id="node3" class="node">
<title>step3</title>
<path fill="#faf6d8" stroke="#8a7a0f" d="M265.14,-1004C265.14,-1004 150.14,-1004 150.14,-1004 144.14,-1004 138.14,-998 138.14,-992 138.14,-992 138.14,-975 138.14,-975 138.14,-969 144.14,-963 150.14,-963 150.14,-963 265.14,-963 265.14,-963 271.14,-963 277.14,-969 277.14,-975 277.14,-975 277.14,-992 277.14,-992 277.14,-998 271.14,-1004 265.14,-1004"/>
<text text-anchor="middle" x="207.64" y="-992" font-family="Helvetica,sans-Serif" font-size="10.00" fill="#8a7a0f">3. log_init(NULL)</text>
<text text-anchor="middle" x="207.64" y="-981" font-family="Helvetica,sans-Serif" font-size="10.00" fill="#8a7a0f">lock&#45;free ring buffer</text>
<text text-anchor="middle" x="207.64" y="-970" font-family="Helvetica,sans-Serif" font-size="10.00" fill="#8a7a0f">spawns consumer thread</text>
</g>
<!-- step2&#45;&gt;step3 -->
<g id="edge2" class="edge">
<title>step2&#45;&gt;step3</title>
<path fill="none" stroke="#9c9b95" d="M207.64,-1034.97C207.64,-1027.79 207.64,-1019.26 207.64,-1011.28"/>
<polygon fill="#9c9b95" stroke="#9c9b95" points="210.09,-1011.16 207.64,-1004.16 205.19,-1011.16 210.09,-1011.16"/>
</g>
<!-- step4 -->
<g id="node4" class="node">
<title>step4</title>
<path fill="#e8f0fc" stroke="#1e50a2" d="M255.14,-932C255.14,-932 160.14,-932 160.14,-932 154.14,-932 148.14,-926 148.14,-920 148.14,-920 148.14,-908 148.14,-908 148.14,-902 154.14,-896 160.14,-896 160.14,-896 255.14,-896 255.14,-896 261.14,-896 267.14,-902 267.14,-908 267.14,-908 267.14,-920 267.14,-920 267.14,-926 261.14,-932 255.14,-932"/>
<text text-anchor="middle" x="207.64" y="-917" font-family="Helvetica,sans-Serif" font-size="10.00" fill="#1e50a2">4. Build ServerConfig</text>
<text text-anchor="middle" x="207.64" y="-906" font-family="Helvetica,sans-Serif" font-size="10.00" fill="#1e50a2">from parsed args</text>
</g>
<!-- step3&#45;&gt;step4 -->
<g id="edge3" class="edge">
<title>step3&#45;&gt;step4</title>
<path fill="none" stroke="#9c9b95" d="M207.64,-962.98C207.64,-955.73 207.64,-947.42 207.64,-939.77"/>
<polygon fill="#9c9b95" stroke="#9c9b95" points="210.09,-939.41 207.64,-932.41 205.19,-939.41 210.09,-939.41"/>
</g>
<!-- step5 -->
<g id="node5" class="node">
<title>step5</title>
<polygon fill="#faeeda" stroke="#854f0b" points="250.64,-859 152.64,-859 152.64,-835 250.64,-835 262.64,-847 250.64,-859"/>
<text text-anchor="middle" x="207.64" y="-844.5" font-family="Helvetica,sans-Serif" font-size="10.00" fill="#854f0b">5. server_run(&amp;cfg)</text>
</g>
<!-- step4&#45;&gt;step5 -->
<g id="edge4" class="edge">
<title>step4&#45;&gt;step5</title>
<path fill="none" stroke="#9c9b95" d="M207.64,-895.92C207.64,-888.81 207.64,-880.42 207.64,-872.66"/>
<polygon fill="#9c9b95" stroke="#9c9b95" points="210.09,-872.19 207.64,-865.19 205.19,-872.19 210.09,-872.19"/>
</g>
<!-- step6 -->
<g id="node6" class="node">
<title>step6</title>
<path fill="#faeeda" stroke="#854f0b" d="M280.64,-798C280.64,-798 134.64,-798 134.64,-798 128.64,-798 122.64,-792 122.64,-786 122.64,-786 122.64,-769 122.64,-769 122.64,-763 128.64,-757 134.64,-757 134.64,-757 280.64,-757 280.64,-757 286.64,-757 292.64,-763 292.64,-769 292.64,-769 292.64,-786 292.64,-786 292.64,-792 286.64,-798 280.64,-798"/>
<text text-anchor="middle" x="207.64" y="-786" font-family="Helvetica,sans-Serif" font-size="10.00" fill="#854f0b">6. Install signal handlers</text>
<text text-anchor="middle" x="207.64" y="-775" font-family="Helvetica,sans-Serif" font-size="10.00" fill="#854f0b">SIGINT/SIGTERM → g_shutdown</text>
<text text-anchor="middle" x="207.64" y="-764" font-family="Helvetica,sans-Serif" font-size="10.00" fill="#854f0b">SIGPIPE → ignore</text>
</g>
<!-- step5&#45;&gt;step6 -->
<g id="edge5" class="edge">
<title>step5&#45;&gt;step6</title>
<path fill="none" stroke="#9c9b95" d="M207.64,-828.97C207.64,-821.79 207.64,-813.26 207.64,-805.28"/>
<polygon fill="#9c9b95" stroke="#9c9b95" points="210.09,-805.16 207.64,-798.16 205.19,-805.16 210.09,-805.16"/>
</g>
<!-- step7 -->
<g id="node7" class="node">
<title>step7</title>
<path fill="#faeeda" stroke="#854f0b" d="M255.14,-726C255.14,-726 160.14,-726 160.14,-726 154.14,-726 148.14,-720 148.14,-714 148.14,-714 148.14,-697 148.14,-697 148.14,-691 154.14,-685 160.14,-685 160.14,-685 255.14,-685 255.14,-685 261.14,-685 267.14,-691 267.14,-697 267.14,-697 267.14,-714 267.14,-714 267.14,-720 261.14,-726 255.14,-726"/>
<text text-anchor="middle" x="207.64" y="-714" font-family="Helvetica,sans-Serif" font-size="10.00" fill="#854f0b">7. make_listener()</text>
<text text-anchor="middle" x="207.64" y="-703" font-family="Helvetica,sans-Serif" font-size="10.00" fill="#854f0b">getaddrinfo → socket</text>
<text text-anchor="middle" x="207.64" y="-692" font-family="Helvetica,sans-Serif" font-size="10.00" fill="#854f0b">bind → listen(128)</text>
</g>
<!-- step6&#45;&gt;step7 -->
<g id="edge6" class="edge">
<title>step6&#45;&gt;step7</title>
<path fill="none" stroke="#9c9b95" d="M207.64,-756.63C207.64,-749.47 207.64,-741.28 207.64,-733.61"/>
<polygon fill="#9c9b95" stroke="#9c9b95" points="210.09,-733.18 207.64,-726.18 205.19,-733.18 210.09,-733.18"/>
</g>
<!-- decision_lr -->
<g id="node8" class="node">
<title>decision_lr</title>
<path fill="#faf6d8" stroke="#8a7a0f" d="M195.8,-652.04C195.8,-652.04 111.03,-637.96 111.03,-637.96 105.11,-636.98 105.11,-635.02 111.03,-634.04 111.03,-634.04 195.8,-619.96 195.8,-619.96 201.72,-618.98 213.56,-618.98 219.48,-619.96 219.48,-619.96 304.25,-634.04 304.25,-634.04 310.17,-635.02 310.17,-636.98 304.25,-637.96 304.25,-637.96 219.48,-652.04 219.48,-652.04 213.56,-653.02 201.72,-653.02 195.8,-652.04"/>
<text text-anchor="middle" x="207.64" y="-633.5" font-family="Helvetica,sans-Serif" font-size="10.00" fill="#8a7a0f">8. Live reload enabled?</text>
</g>
<!-- step7&#45;&gt;decision_lr -->
<g id="edge7" class="edge">
<title>step7&#45;&gt;decision_lr</title>
<path fill="none" stroke="#9c9b95" d="M207.64,-684.98C207.64,-677.73 207.64,-669.42 207.64,-661.77"/>
<polygon fill="#9c9b95" stroke="#9c9b95" points="210.09,-661.41 207.64,-654.41 205.19,-661.41 210.09,-661.41"/>
</g>
<!-- step8a -->
<g id="node9" class="node">
<title>step8a</title>
<path fill="#dff5f2" stroke="#0f7a6e" d="M223.14,-578C223.14,-578 50.14,-578 50.14,-578 44.14,-578 38.14,-572 38.14,-566 38.14,-566 38.14,-538 38.14,-538 38.14,-532 44.14,-526 50.14,-526 50.14,-526 223.14,-526 223.14,-526 229.14,-526 235.14,-532 235.14,-538 235.14,-538 235.14,-566 235.14,-566 235.14,-572 229.14,-578 223.14,-578"/>
<text text-anchor="middle" x="136.64" y="-566" font-family="Helvetica,sans-Serif" font-size="10.00" fill="#0f7a6e"> &#160;&#160;livereload_start()</text>
<text text-anchor="middle" x="136.64" y="-555" font-family="Helvetica,sans-Serif" font-size="10.00" fill="#0f7a6e"> &#160;&#160;hash map SSE registry</text>
<text text-anchor="middle" x="136.64" y="-544" font-family="Helvetica,sans-Serif" font-size="10.00" fill="#0f7a6e"> &#160;&#160;watcher_create() → watcher_start()</text>
<text text-anchor="middle" x="136.64" y="-533" font-family="Helvetica,sans-Serif" font-size="10.00" fill="#0f7a6e"> &#160;&#160;(background thread)</text>
</g>
<!-- decision_lr&#45;&gt;step8a -->
<g id="edge8" class="edge">
<title>decision_lr&#45;&gt;step8a</title>
<path fill="none" stroke="#9c9b95" d="M194.62,-619.96C185.87,-609.86 174.02,-596.18 163.32,-583.82"/>
<polygon fill="#9c9b95" stroke="#9c9b95" points="164.94,-581.94 158.5,-578.25 161.23,-585.15 164.94,-581.94"/>
<text text-anchor="middle" x="186.64" y="-595.8" font-family="Helvetica,sans-Serif" font-size="9.00" fill="#6b6a66">yes</text>
</g>
<!-- step9 -->
<g id="node10" class="node">
<title>step9</title>
<path fill="#faeeda" stroke="#854f0b" d="M268.64,-495C268.64,-495 146.64,-495 146.64,-495 140.64,-495 134.64,-489 134.64,-483 134.64,-483 134.64,-466 134.64,-466 134.64,-460 140.64,-454 146.64,-454 146.64,-454 268.64,-454 268.64,-454 274.64,-454 280.64,-460 280.64,-466 280.64,-466 280.64,-483 280.64,-483 280.64,-489 274.64,-495 268.64,-495"/>
<text text-anchor="middle" x="207.64" y="-483" font-family="Helvetica,sans-Serif" font-size="10.00" fill="#854f0b">9. thread_pool_create(N)</text>
<text text-anchor="middle" x="207.64" y="-472" font-family="Helvetica,sans-Serif" font-size="10.00" fill="#854f0b"> &#160;&#160;N worker threads started</text>
<text text-anchor="middle" x="207.64" y="-461" font-family="Helvetica,sans-Serif" font-size="10.00" fill="#854f0b"> &#160;&#160;waiting on not_empty</text>
</g>
<!-- decision_lr&#45;&gt;step9 -->
<g id="edge9" class="edge">
<title>decision_lr&#45;&gt;step9</title>
<path fill="none" stroke="#9c9b95" d="M221.38,-619.85C230.21,-609.04 240.88,-593.71 245.64,-578 252.34,-555.88 252.96,-547.92 245.64,-526 242.64,-517.04 237.37,-508.4 231.68,-500.88"/>
<polygon fill="#9c9b95" stroke="#9c9b95" points="233.56,-499.3 227.29,-495.35 229.73,-502.35 233.56,-499.3"/>
<text text-anchor="middle" x="257.64" y="-549.8" font-family="Helvetica,sans-Serif" font-size="9.00" fill="#6b6a66">no</text>
</g>
<!-- step8a&#45;&gt;step9 -->
<g id="edge10" class="edge">
<title>step8a&#45;&gt;step9</title>
<path fill="none" stroke="#9c9b95" d="M160.28,-525.86C167.88,-517.77 176.31,-508.82 183.92,-500.72"/>
<polygon fill="#9c9b95" stroke="#9c9b95" points="186.02,-502.06 189.04,-495.28 182.46,-498.7 186.02,-502.06"/>
</g>
<!-- step9b -->
<g id="node11" class="node">
<title>step9b</title>
<path fill="#faeeda" stroke="#854f0b" d="M268.64,-423C268.64,-423 146.64,-423 146.64,-423 140.64,-423 134.64,-417 134.64,-411 134.64,-411 134.64,-394 134.64,-394 134.64,-388 140.64,-382 146.64,-382 146.64,-382 268.64,-382 268.64,-382 274.64,-382 280.64,-388 280.64,-394 280.64,-394 280.64,-411 280.64,-411 280.64,-417 274.64,-423 268.64,-423"/>
<text text-anchor="middle" x="207.64" y="-411" font-family="Helvetica,sans-Serif" font-size="10.00" fill="#854f0b">10. ratelimit_create()</text>
<text text-anchor="middle" x="207.64" y="-400" font-family="Helvetica,sans-Serif" font-size="10.00" fill="#854f0b"> &#160;&#160;if max_conns_per_ip &gt; 0</text>
<text text-anchor="middle" x="207.64" y="-389" font-family="Helvetica,sans-Serif" font-size="10.00" fill="#854f0b">dynamic hash table</text>
</g>
<!-- step9&#45;&gt;step9b -->
<g id="edge11" class="edge">
<title>step9&#45;&gt;step9b</title>
<path fill="none" stroke="#9c9b95" d="M207.64,-453.63C207.64,-446.47 207.64,-438.28 207.64,-430.61"/>
<polygon fill="#9c9b95" stroke="#9c9b95" points="210.09,-430.18 207.64,-423.18 205.19,-430.18 210.09,-430.18"/>
</g>
<!-- step10 -->
<g id="node12" class="node">
<title>step10</title>
<path fill="#e1f5ee" stroke="#0f6e56" d="M294.14,-351C294.14,-351 121.14,-351 121.14,-351 115.14,-351 109.14,-345 109.14,-339 109.14,-339 109.14,-322 109.14,-322 109.14,-316 115.14,-310 121.14,-310 121.14,-310 294.14,-310 294.14,-310 300.14,-310 306.14,-316 306.14,-322 306.14,-322 306.14,-339 306.14,-339 306.14,-345 300.14,-351 294.14,-351"/>
<text text-anchor="middle" x="207.64" y="-339" font-family="Helvetica,sans-Serif" font-size="10.00" fill="#0f6e56">11. header_cache_init()</text>
<text text-anchor="middle" x="207.64" y="-328" font-family="Helvetica,sans-Serif" font-size="10.00" fill="#0f6e56">pre&#45;compute Date/Server/Connection</text>
<text text-anchor="middle" x="207.64" y="-317" font-family="Helvetica,sans-Serif" font-size="10.00" fill="#0f6e56">updates once/sec</text>
</g>
<!-- step9b&#45;&gt;step10 -->
<g id="edge12" class="edge">
<title>step9b&#45;&gt;step10</title>
<path fill="none" stroke="#9c9b95" d="M207.64,-381.63C207.64,-374.47 207.64,-366.28 207.64,-358.61"/>
<polygon fill="#9c9b95" stroke="#9c9b95" points="210.09,-358.18 207.64,-351.18 205.19,-358.18 210.09,-358.18"/>
</g>
<!-- step11 -->
<g id="node13" class="node">
<title>step11</title>
<path fill="#faf6d8" stroke="#8a7a0f" d="M267.14,-279C267.14,-279 148.14,-279 148.14,-279 142.14,-279 136.14,-273 136.14,-267 136.14,-267 136.14,-250 136.14,-250 136.14,-244 142.14,-238 148.14,-238 148.14,-238 267.14,-238 267.14,-238 273.14,-238 279.14,-244 279.14,-250 279.14,-250 279.14,-267 279.14,-267 279.14,-273 273.14,-279 267.14,-279"/>
<text text-anchor="middle" x="207.64" y="-267" font-family="Helvetica,sans-Serif" font-size="10.00" fill="#8a7a0f">12. Log startup info</text>
<text text-anchor="middle" x="207.64" y="-256" font-family="Helvetica,sans-Serif" font-size="10.00" fill="#8a7a0f">URL, pool size, keep&#45;alive</text>
<text text-anchor="middle" x="207.64" y="-245" font-family="Helvetica,sans-Serif" font-size="10.00" fill="#8a7a0f">rate limit, LR mode</text>
</g>
<!-- step10&#45;&gt;step11 -->
<g id="edge13" class="edge">
<title>step10&#45;&gt;step11</title>
<path fill="none" stroke="#9c9b95" d="M207.64,-309.63C207.64,-302.47 207.64,-294.28 207.64,-286.61"/>
<polygon fill="#9c9b95" stroke="#9c9b95" points="210.09,-286.18 207.64,-279.18 205.19,-286.18 210.09,-286.18"/>
</g>
<!-- decision_browser -->
<g id="node14" class="node">
<title>decision_browser</title>
<path fill="#faf6d8" stroke="#8a7a0f" d="M195.83,-204.86C195.83,-204.86 120.31,-191.14 120.31,-191.14 114.41,-190.07 114.41,-187.93 120.31,-186.86 120.31,-186.86 195.83,-173.14 195.83,-173.14 201.73,-172.07 213.54,-172.07 219.44,-173.14 219.44,-173.14 294.96,-186.86 294.96,-186.86 300.87,-187.93 300.87,-190.07 294.96,-191.14 294.96,-191.14 219.44,-204.86 219.44,-204.86 213.54,-205.93 201.73,-205.93 195.83,-204.86"/>
<text text-anchor="middle" x="207.64" y="-186.5" font-family="Helvetica,sans-Serif" font-size="10.00" fill="#8a7a0f">13. Browser flag set?</text>
</g>
<!-- step11&#45;&gt;decision_browser -->
<g id="edge14" class="edge">
<title>step11&#45;&gt;decision_browser</title>
<path fill="none" stroke="#9c9b95" d="M207.64,-237.98C207.64,-230.73 207.64,-222.42 207.64,-214.77"/>
<polygon fill="#9c9b95" stroke="#9c9b95" points="210.09,-214.41 207.64,-207.41 205.19,-214.41 210.09,-214.41"/>
</g>
<!-- step13a -->
<g id="node15" class="node">
<title>step13a</title>
<path fill="#ffffff" stroke="#d8d7d2" d="M200.64,-131C200.64,-131 118.64,-131 118.64,-131 112.64,-131 106.64,-125 106.64,-119 106.64,-119 106.64,-107 106.64,-107 106.64,-101 112.64,-95 118.64,-95 118.64,-95 200.64,-95 200.64,-95 206.64,-95 212.64,-101 212.64,-107 212.64,-107 212.64,-119 212.64,-119 212.64,-125 206.64,-131 200.64,-131"/>
<text text-anchor="middle" x="159.64" y="-116" font-family="Helvetica,sans-Serif" font-size="10.00" fill="#6b6a66"> &#160;&#160;fork() + execlp()</text>
<text text-anchor="middle" x="159.64" y="-105" font-family="Helvetica,sans-Serif" font-size="10.00" fill="#6b6a66"> &#160;&#160;browser URL</text>
</g>
<!-- decision_browser&#45;&gt;step13a -->
<g id="edge15" class="edge">
<title>decision_browser&#45;&gt;step13a</title>
<path fill="none" stroke="#9c9b95" d="M197.69,-172.67C191.07,-162.45 182.23,-148.83 174.74,-137.29"/>
<polygon fill="#9c9b95" stroke="#9c9b95" points="176.61,-135.66 170.75,-131.12 172.5,-138.33 176.61,-135.66"/>
<text text-anchor="middle" x="194.64" y="-148.8" font-family="Helvetica,sans-Serif" font-size="9.00" fill="#6b6a66">yes</text>
</g>
<!-- step14 -->
<g id="node16" class="node">
<title>step14</title>
<polygon fill="#e8f0fc" stroke="#1e50a2" points="262.64,-58 140.64,-58 140.64,-34 262.64,-34 274.64,-46 262.64,-58"/>
<text text-anchor="middle" x="207.64" y="-49" font-family="Helvetica,sans-Serif" font-size="10.00" fill="#1e50a2">14. while (!g_shutdown)</text>
<text text-anchor="middle" x="207.64" y="-38" font-family="Helvetica,sans-Serif" font-size="10.00" fill="#1e50a2"> &#160;&#160;accept() loop</text>
</g>
<!-- decision_browser&#45;&gt;step14 -->
<g id="edge16" class="edge">
<title>decision_browser&#45;&gt;step14</title>
<path fill="none" stroke="#9c9b95" d="M213.47,-171.79C217.2,-160.52 221.7,-145.05 223.64,-131 225.82,-115.15 226.2,-110.79 223.64,-95 222.35,-87.03 219.92,-78.6 217.34,-71.07"/>
<polygon fill="#9c9b95" stroke="#9c9b95" points="219.63,-70.2 214.96,-64.44 215.02,-71.85 219.63,-70.2"/>
<text text-anchor="middle" x="231.64" y="-110.8" font-family="Helvetica,sans-Serif" font-size="9.00" fill="#6b6a66">no</text>
</g>
<!-- step13a&#45;&gt;step14 -->
<g id="edge17" class="edge">
<title>step13a&#45;&gt;step14</title>
<path fill="none" stroke="#9c9b95" d="M172.25,-94.92C177.83,-87.37 184.47,-78.37 190.49,-70.22"/>
<polygon fill="#9c9b95" stroke="#9c9b95" points="192.76,-71.28 194.94,-64.19 188.81,-68.37 192.76,-71.28"/>
</g>
</g>
</svg>
