<?xml version="1.0" encoding="UTF-8" standalone="no"?>
<!DOCTYPE svg PUBLIC "-//W3C//DTD SVG 1.1//EN"
 "http://www.w3.org/Graphics/SVG/1.1/DTD/svg11.dtd">
<!-- Generated by graphviz version 12.2.1 (20241206.2353)
 -->
<!-- Title: startup_flow Pages: 1 -->
<svg width="331pt" height="1135pt"
 viewBox="0.00 0.00 330.99 1135.20" xmlns="http://www.w3.org/2000/svg" xmlns:xlink="http://www.w3.org/1999/xlink">
<g id="graph0" class="graph" transform="scale(1 1) rotate(0) translate(36 1099.2)">
<title>startup_flow</title>
<polygon fill="#1a1a1a" stroke="none" points="-36,36 -36,-1099.2 294.99,-1099.2 294.99,36 -36,36"/>
<text text-anchor="middle" x="109.06" y="-9.4" font-family="Helvetica,sans-Serif" font-size="18.00" fill="#dddddd">Server Startup Sequence</text>
<!-- step1 -->
<g id="node1" class="node">
<title>step1</title>
<polygon fill="#1e3a5f" stroke="#555555" points="183.81,-1057.2 118.13,-1057.2 118.13,-1033.2 183.81,-1033.2 195.81,-1045.2 183.81,-1057.2"/>
<text text-anchor="middle" x="156.97" y="-1042.2" font-family="Helvetica,sans-Serif" font-size="10.00" fill="#ffffff">1. main() start</text>
</g>
<!-- step2 -->
<g id="node2" class="node">
<title>step2</title>
<path fill="#1e3a5f" stroke="#555555" d="M187.15,-996.2C187.15,-996.2 126.79,-996.2 126.79,-996.2 120.79,-996.2 114.79,-990.2 114.79,-984.2 114.79,-984.2 114.79,-972.2 114.79,-972.2 114.79,-966.2 120.79,-960.2 126.79,-960.2 126.79,-960.2 187.15,-960.2 187.15,-960.2 193.15,-960.2 199.15,-966.2 199.15,-972.2 199.15,-972.2 199.15,-984.2 199.15,-984.2 199.15,-990.2 193.15,-996.2 187.15,-996.2"/>
<text text-anchor="middle" x="156.97" y="-981.2" font-family="Helvetica,sans-Serif" font-size="10.00" fill="#ffffff">2. argp_parse()</text>
<text text-anchor="middle" x="156.97" y="-969.2" font-family="Helvetica,sans-Serif" font-size="10.00" fill="#ffffff">parse CLI flags</text>
</g>
<!-- step1&#45;&gt;step2 -->
<g id="edge1" class="edge">
<title>step1&#45;&gt;step2</title>
<path fill="none" stroke="#666666" d="M156.97,-1026.78C156.97,-1020.95 156.97,-1014.29 156.97,-1007.84"/>
<polygon fill="#666666" stroke="#666666" points="160.47,-1008.18 156.97,-998.18 153.47,-1008.18 160.47,-1008.18"/>
</g>
<!-- step3 -->
<g id="node3" class="node">
<title>step3</title>
<path fill="#3a3a1a" stroke="#555555" d="M190.49,-929.2C190.49,-929.2 123.45,-929.2 123.45,-929.2 117.45,-929.2 111.45,-923.2 111.45,-917.2 111.45,-917.2 111.45,-905.2 111.45,-905.2 111.45,-899.2 117.45,-893.2 123.45,-893.2 123.45,-893.2 190.49,-893.2 190.49,-893.2 196.49,-893.2 202.49,-899.2 202.49,-905.2 202.49,-905.2 202.49,-917.2 202.49,-917.2 202.49,-923.2 196.49,-929.2 190.49,-929.2"/>
<text text-anchor="middle" x="156.97" y="-914.2" font-family="Helvetica,sans-Serif" font-size="10.00" fill="#ffffff">3. log_init(NULL)</text>
<text text-anchor="middle" x="156.97" y="-902.2" font-family="Helvetica,sans-Serif" font-size="10.00" fill="#ffffff">logger → stderr</text>
</g>
<!-- step2&#45;&gt;step3 -->
<g id="edge2" class="edge">
<title>step2&#45;&gt;step3</title>
<path fill="none" stroke="#666666" d="M156.97,-959.78C156.97,-953.95 156.97,-947.29 156.97,-940.84"/>
<polygon fill="#666666" stroke="#666666" points="160.47,-941.18 156.97,-931.18 153.47,-941.18 160.47,-941.18"/>
</g>
<!-- step4 -->
<g id="node4" class="node">
<title>step4</title>
<path fill="#1e3a5f" stroke="#555555" d="M200.22,-862.2C200.22,-862.2 113.72,-862.2 113.72,-862.2 107.72,-862.2 101.72,-856.2 101.72,-850.2 101.72,-850.2 101.72,-838.2 101.72,-838.2 101.72,-832.2 107.72,-826.2 113.72,-826.2 113.72,-826.2 200.22,-826.2 200.22,-826.2 206.22,-826.2 212.22,-832.2 212.22,-838.2 212.22,-838.2 212.22,-850.2 212.22,-850.2 212.22,-856.2 206.22,-862.2 200.22,-862.2"/>
<text text-anchor="middle" x="156.97" y="-847.2" font-family="Helvetica,sans-Serif" font-size="10.00" fill="#ffffff">4. Build ServerConfig</text>
<text text-anchor="middle" x="156.97" y="-835.2" font-family="Helvetica,sans-Serif" font-size="10.00" fill="#ffffff">from parsed args</text>
</g>
<!-- step3&#45;&gt;step4 -->
<g id="edge3" class="edge">
<title>step3&#45;&gt;step4</title>
<path fill="none" stroke="#666666" d="M156.97,-892.78C156.97,-886.95 156.97,-880.29 156.97,-873.84"/>
<polygon fill="#666666" stroke="#666666" points="160.47,-874.18 156.97,-864.18 153.47,-874.18 160.47,-874.18"/>
</g>
<!-- step5 -->
<g id="node5" class="node">
<title>step5</title>
<polygon fill="#5a3e1a" stroke="#555555" points="195.76,-789.2 106.18,-789.2 106.18,-765.2 195.76,-765.2 207.76,-777.2 195.76,-789.2"/>
<text text-anchor="middle" x="156.97" y="-774.2" font-family="Helvetica,sans-Serif" font-size="10.00" fill="#ffffff">5. server_run(&amp;cfg)</text>
</g>
<!-- step4&#45;&gt;step5 -->
<g id="edge4" class="edge">
<title>step4&#45;&gt;step5</title>
<path fill="none" stroke="#666666" d="M156.97,-825.78C156.97,-819.95 156.97,-813.29 156.97,-806.84"/>
<polygon fill="#666666" stroke="#666666" points="160.47,-807.18 156.97,-797.18 153.47,-807.18 160.47,-807.18"/>
</g>
<!-- step6 -->
<g id="node6" class="node">
<title>step6</title>
<path fill="#5a3e1a" stroke="#555555" d="M227.72,-728.2C227.72,-728.2 86.22,-728.2 86.22,-728.2 80.22,-728.2 74.22,-722.2 74.22,-716.2 74.22,-716.2 74.22,-696.2 74.22,-696.2 74.22,-690.2 80.22,-684.2 86.22,-684.2 86.22,-684.2 227.72,-684.2 227.72,-684.2 233.72,-684.2 239.72,-690.2 239.72,-696.2 239.72,-696.2 239.72,-716.2 239.72,-716.2 239.72,-722.2 233.72,-728.2 227.72,-728.2"/>
<text text-anchor="middle" x="156.97" y="-715.2" font-family="Helvetica,sans-Serif" font-size="10.00" fill="#ffffff">6. Install signal handlers</text>
<text text-anchor="middle" x="156.97" y="-703.2" font-family="Helvetica,sans-Serif" font-size="10.00" fill="#ffffff">SIGINT/SIGTERM → g_shutdown</text>
<text text-anchor="middle" x="156.97" y="-691.2" font-family="Helvetica,sans-Serif" font-size="10.00" fill="#ffffff">SIGPIPE → ignore</text>
</g>
<!-- step5&#45;&gt;step6 -->
<g id="edge5" class="edge">
<title>step5&#45;&gt;step6</title>
<path fill="none" stroke="#666666" d="M156.97,-758.79C156.97,-753.05 156.97,-746.47 156.97,-739.97"/>
<polygon fill="#666666" stroke="#666666" points="160.47,-740.07 156.97,-730.07 153.47,-740.07 160.47,-740.07"/>
</g>
<!-- step7 -->
<g id="node7" class="node">
<title>step7</title>
<path fill="#5a3e1a" stroke="#555555" d="M199.39,-653.2C199.39,-653.2 114.55,-653.2 114.55,-653.2 108.55,-653.2 102.55,-647.2 102.55,-641.2 102.55,-641.2 102.55,-621.2 102.55,-621.2 102.55,-615.2 108.55,-609.2 114.55,-609.2 114.55,-609.2 199.39,-609.2 199.39,-609.2 205.39,-609.2 211.39,-615.2 211.39,-621.2 211.39,-621.2 211.39,-641.2 211.39,-641.2 211.39,-647.2 205.39,-653.2 199.39,-653.2"/>
<text text-anchor="middle" x="156.97" y="-640.2" font-family="Helvetica,sans-Serif" font-size="10.00" fill="#ffffff">7. make_listener()</text>
<text text-anchor="middle" x="156.97" y="-628.2" font-family="Helvetica,sans-Serif" font-size="10.00" fill="#ffffff">getaddrinfo → socket</text>
<text text-anchor="middle" x="156.97" y="-616.2" font-family="Helvetica,sans-Serif" font-size="10.00" fill="#ffffff">bind → listen(128)</text>
</g>
<!-- step6&#45;&gt;step7 -->
<g id="edge6" class="edge">
<title>step6&#45;&gt;step7</title>
<path fill="none" stroke="#666666" d="M156.97,-684.09C156.97,-678.08 156.97,-671.41 156.97,-664.89"/>
<polygon fill="#666666" stroke="#666666" points="160.47,-665.03 156.97,-655.03 153.47,-665.03 160.47,-665.03"/>
</g>
<!-- decision_lr -->
<g id="node8" class="node">
<title>decision_lr</title>
<path fill="#3a3a1a" stroke="#555555" d="M145.15,-576.12C145.15,-576.12 66.76,-562.28 66.76,-562.28 60.85,-561.24 60.85,-559.16 66.76,-558.12 66.76,-558.12 145.15,-544.28 145.15,-544.28 151.06,-543.24 162.88,-543.24 168.79,-544.28 168.79,-544.28 247.18,-558.12 247.18,-558.12 253.09,-559.16 253.09,-561.24 247.18,-562.28 247.18,-562.28 168.79,-576.12 168.79,-576.12 162.88,-577.16 151.06,-577.16 145.15,-576.12"/>
<text text-anchor="middle" x="156.97" y="-557.2" font-family="Helvetica,sans-Serif" font-size="10.00" fill="#ffffff">8. Live reload enabled?</text>
</g>
<!-- step7&#45;&gt;decision_lr -->
<g id="edge7" class="edge">
<title>step7&#45;&gt;decision_lr</title>
<path fill="none" stroke="#666666" d="M156.97,-608.75C156.97,-602.61 156.97,-595.84 156.97,-589.37"/>
<polygon fill="#666666" stroke="#666666" points="160.47,-589.78 156.97,-579.78 153.47,-589.78 160.47,-589.78"/>
</g>
<!-- step8a -->
<g id="node9" class="node">
<title>step8a</title>
<path fill="#2a4a3a" stroke="#555555" d="M167.94,-501.4C167.94,-501.4 12,-501.4 12,-501.4 6,-501.4 0,-495.4 0,-489.4 0,-489.4 0,-469.4 0,-469.4 0,-463.4 6,-457.4 12,-457.4 12,-457.4 167.94,-457.4 167.94,-457.4 173.94,-457.4 179.94,-463.4 179.94,-469.4 179.94,-469.4 179.94,-489.4 179.94,-489.4 179.94,-495.4 173.94,-501.4 167.94,-501.4"/>
<text text-anchor="middle" x="89.97" y="-488.4" font-family="Helvetica,sans-Serif" font-size="10.00" fill="#ffffff"> &#160;&#160;livereload_start()</text>
<text text-anchor="middle" x="89.97" y="-476.4" font-family="Helvetica,sans-Serif" font-size="10.00" fill="#ffffff"> &#160;&#160;watcher_create() → watcher_start()</text>
<text text-anchor="middle" x="89.97" y="-464.4" font-family="Helvetica,sans-Serif" font-size="10.00" fill="#ffffff"> &#160;&#160;(background thread)</text>
</g>
<!-- decision_lr&#45;&gt;step8a -->
<g id="edge8" class="edge">
<title>decision_lr&#45;&gt;step8a</title>
<path fill="none" stroke="#666666" d="M144.05,-544.01C135.93,-534.46 125.18,-521.81 115.4,-510.3"/>
<polygon fill="#666666" stroke="#666666" points="118.29,-508.31 109.15,-502.96 112.96,-512.84 118.29,-508.31"/>
<text text-anchor="middle" x="136.47" y="-519.1" font-family="Helvetica,sans-Serif" font-size="9.00" fill="#aaaaaa">yes</text>
</g>
<!-- step9 -->
<g id="node10" class="node">
<title>step9</title>
<path fill="#3d2b1a" stroke="#555555" d="M211.88,-426.4C211.88,-426.4 102.06,-426.4 102.06,-426.4 96.06,-426.4 90.06,-420.4 90.06,-414.4 90.06,-414.4 90.06,-394.4 90.06,-394.4 90.06,-388.4 96.06,-382.4 102.06,-382.4 102.06,-382.4 211.88,-382.4 211.88,-382.4 217.88,-382.4 223.88,-388.4 223.88,-394.4 223.88,-394.4 223.88,-414.4 223.88,-414.4 223.88,-420.4 217.88,-426.4 211.88,-426.4"/>
<text text-anchor="middle" x="156.97" y="-413.4" font-family="Helvetica,sans-Serif" font-size="10.00" fill="#ffffff">9. thread_pool_create(N)</text>
<text text-anchor="middle" x="156.97" y="-401.4" font-family="Helvetica,sans-Serif" font-size="10.00" fill="#ffffff"> &#160;&#160;N worker threads started</text>
<text text-anchor="middle" x="156.97" y="-389.4" font-family="Helvetica,sans-Serif" font-size="10.00" fill="#ffffff"> &#160;&#160;waiting on not_empty</text>
</g>
<!-- decision_lr&#45;&gt;step9 -->
<g id="edge9" class="edge">
<title>decision_lr&#45;&gt;step9</title>
<path fill="none" stroke="#666666" d="M168.95,-544.04C176.92,-532.94 186.69,-517.13 190.97,-501.4 196.11,-482.53 196.55,-476.14 190.97,-457.4 188.78,-450.04 185.17,-442.75 181.11,-436.06"/>
<polygon fill="#666666" stroke="#666666" points="184.22,-434.42 175.78,-428.01 178.39,-438.28 184.22,-434.42"/>
<text text-anchor="middle" x="200" y="-476.7" font-family="Helvetica,sans-Serif" font-size="9.00" fill="#aaaaaa">no</text>
</g>
<!-- step8a&#45;&gt;step9 -->
<g id="edge10" class="edge">
<title>step8a&#45;&gt;step9</title>
<path fill="none" stroke="#666666" d="M109.35,-457.29C115.68,-450.38 122.84,-442.59 129.65,-435.17"/>
<polygon fill="#666666" stroke="#666666" points="132.2,-437.57 136.38,-427.84 127.04,-432.84 132.2,-437.57"/>
</g>
<!-- step9b -->
<g id="node11" class="node">
<title>step9b</title>
<path fill="#3d2b1a" stroke="#555555" d="M211.75,-351.4C211.75,-351.4 102.19,-351.4 102.19,-351.4 96.19,-351.4 90.19,-345.4 90.19,-339.4 90.19,-339.4 90.19,-327.4 90.19,-327.4 90.19,-321.4 96.19,-315.4 102.19,-315.4 102.19,-315.4 211.75,-315.4 211.75,-315.4 217.75,-315.4 223.75,-321.4 223.75,-327.4 223.75,-327.4 223.75,-339.4 223.75,-339.4 223.75,-345.4 217.75,-351.4 211.75,-351.4"/>
<text text-anchor="middle" x="156.97" y="-336.4" font-family="Helvetica,sans-Serif" font-size="10.00" fill="#ffffff">10. ratelimit_create()</text>
<text text-anchor="middle" x="156.97" y="-324.4" font-family="Helvetica,sans-Serif" font-size="10.00" fill="#ffffff"> &#160;&#160;if max_conns_per_ip &gt; 0</text>
</g>
<!-- step9&#45;&gt;step9b -->
<g id="edge11" class="edge">
<title>step9&#45;&gt;step9b</title>
<path fill="none" stroke="#666666" d="M156.97,-381.95C156.97,-375.81 156.97,-369.04 156.97,-362.57"/>
<polygon fill="#666666" stroke="#666666" points="160.47,-362.98 156.97,-352.98 153.47,-362.98 160.47,-362.98"/>
</g>
<!-- step10 -->
<g id="node12" class="node">
<title>step10</title>
<path fill="#3a3a1a" stroke="#555555" d="M211.05,-284.4C211.05,-284.4 102.89,-284.4 102.89,-284.4 96.89,-284.4 90.89,-278.4 90.89,-272.4 90.89,-272.4 90.89,-252.4 90.89,-252.4 90.89,-246.4 96.89,-240.4 102.89,-240.4 102.89,-240.4 211.05,-240.4 211.05,-240.4 217.05,-240.4 223.05,-246.4 223.05,-252.4 223.05,-252.4 223.05,-272.4 223.05,-272.4 223.05,-278.4 217.05,-284.4 211.05,-284.4"/>
<text text-anchor="middle" x="156.97" y="-271.4" font-family="Helvetica,sans-Serif" font-size="10.00" fill="#ffffff">11. Log startup info</text>
<text text-anchor="middle" x="156.97" y="-259.4" font-family="Helvetica,sans-Serif" font-size="10.00" fill="#ffffff">URL, pool size, keep&#45;alive</text>
<text text-anchor="middle" x="156.97" y="-247.4" font-family="Helvetica,sans-Serif" font-size="10.00" fill="#ffffff">rate limit, LR mode</text>
</g>
<!-- step9b&#45;&gt;step10 -->
<g id="edge12" class="edge">
<title>step9b&#45;&gt;step10</title>
<path fill="none" stroke="#666666" d="M156.97,-314.99C156.97,-309.25 156.97,-302.67 156.97,-296.17"/>
<polygon fill="#666666" stroke="#666666" points="160.47,-296.27 156.97,-286.27 153.47,-296.27 160.47,-296.27"/>
</g>
<!-- decision_browser -->
<g id="node13" class="node">
<title>decision_browser</title>
<path fill="#3a3a1a" stroke="#555555" d="M145.19,-207.13C145.19,-207.13 75.26,-193.67 75.26,-193.67 69.37,-192.53 69.37,-190.27 75.26,-189.13 75.26,-189.13 145.19,-175.67 145.19,-175.67 151.08,-174.53 162.86,-174.53 168.75,-175.67 168.75,-175.67 238.68,-189.13 238.68,-189.13 244.57,-190.27 244.57,-192.53 238.68,-193.67 238.68,-193.67 168.75,-207.13 168.75,-207.13 162.86,-208.27 151.08,-208.27 145.19,-207.13"/>
<text text-anchor="middle" x="156.97" y="-188.4" font-family="Helvetica,sans-Serif" font-size="10.00" fill="#ffffff">12. Browser flag set?</text>
</g>
<!-- step10&#45;&gt;decision_browser -->
<g id="edge13" class="edge">
<title>step10&#45;&gt;decision_browser</title>
<path fill="none" stroke="#666666" d="M156.97,-239.95C156.97,-234.06 156.97,-227.59 156.97,-221.36"/>
<polygon fill="#666666" stroke="#666666" points="160.47,-221.42 156.97,-211.42 153.47,-221.42 160.47,-221.42"/>
</g>
<!-- step12a -->
<g id="node14" class="node">
<title>step12a</title>
<path fill="#2d2d2d" stroke="#555555" d="M147.28,-132.6C147.28,-132.6 76.66,-132.6 76.66,-132.6 70.66,-132.6 64.66,-126.6 64.66,-120.6 64.66,-120.6 64.66,-108.6 64.66,-108.6 64.66,-102.6 70.66,-96.6 76.66,-96.6 76.66,-96.6 147.28,-96.6 147.28,-96.6 153.28,-96.6 159.28,-102.6 159.28,-108.6 159.28,-108.6 159.28,-120.6 159.28,-120.6 159.28,-126.6 153.28,-132.6 147.28,-132.6"/>
<text text-anchor="middle" x="111.97" y="-117.6" font-family="Helvetica,sans-Serif" font-size="10.00" fill="#dddddd"> &#160;&#160;fork() + execlp()</text>
<text text-anchor="middle" x="111.97" y="-105.6" font-family="Helvetica,sans-Serif" font-size="10.00" fill="#dddddd"> &#160;&#160;browser URL</text>
</g>
<!-- decision_browser&#45;&gt;step12a -->
<g id="edge14" class="edge">
<title>decision_browser&#45;&gt;step12a</title>
<path fill="none" stroke="#666666" d="M147.65,-174.9C142.07,-165.63 134.82,-153.58 128.31,-142.77"/>
<polygon fill="#666666" stroke="#666666" points="131.32,-140.97 123.16,-134.21 125.32,-144.58 131.32,-140.97"/>
<text text-anchor="middle" x="144.17" y="-150.3" font-family="Helvetica,sans-Serif" font-size="9.00" fill="#aaaaaa">yes</text>
</g>
<!-- step13 -->
<g id="node15" class="node">
<title>step13</title>
<polygon fill="#5a3e1a" stroke="#555555" points="205.78,-59.6 96.16,-59.6 96.16,-35.6 205.78,-35.6 217.78,-47.6 205.78,-59.6"/>
<text text-anchor="middle" x="156.97" y="-50.6" font-family="Helvetica,sans-Serif" font-size="10.00" fill="#ffffff">13. while (!g_shutdown)</text>
<text text-anchor="middle" x="156.97" y="-38.6" font-family="Helvetica,sans-Serif" font-size="10.00" fill="#ffffff"> &#160;&#160;accept() loop</text>
</g>
<!-- decision_browser&#45;&gt;step13 -->
<g id="edge15" class="edge">
<title>decision_browser&#45;&gt;step13</title>
<path fill="none" stroke="#666666" d="M161.71,-173.87C164.75,-162.4 168.4,-146.71 169.97,-132.6 171.74,-116.7 172.08,-112.46 169.97,-96.6 169.1,-90.07 167.6,-83.18 165.91,-76.71"/>
<polygon fill="#666666" stroke="#666666" points="169.3,-75.82 163.2,-67.16 162.57,-77.74 169.3,-75.82"/>
<text text-anchor="middle" x="176.43" y="-111.9" font-family="Helvetica,sans-Serif" font-size="9.00" fill="#aaaaaa">no</text>
</g>
<!-- step12a&#45;&gt;step13 -->
<g id="edge16" class="edge">
<title>step12a&#45;&gt;step13</title>
<path fill="none" stroke="#666666" d="M124.03,-96.18C128.47,-89.77 133.6,-82.35 138.48,-75.31"/>
<polygon fill="#666666" stroke="#666666" points="141.2,-77.53 144.02,-67.31 135.45,-73.54 141.2,-77.53"/>
</g>
</g>
</svg>
