<?xml version="1.0" encoding="UTF-8" standalone="no"?>
<!DOCTYPE svg PUBLIC "-//W3C//DTD SVG 1.1//EN"
 "http://www.w3.org/Graphics/SVG/1.1/DTD/svg11.dtd">
<!-- Generated by graphviz version 2.43.0 (0)
 -->
<!-- Title: thread_model Pages: 1 -->
<svg width="1032pt" height="696pt"
 viewBox="0.00 0.00 1031.60 695.60" xmlns="http://www.w3.org/2000/svg" xmlns:xlink="http://www.w3.org/1999/xlink">
<g id="graph0" class="graph" transform="scale(1 1) rotate(0) translate(28.8 666.8)">
<title>thread_model</title>
<polygon fill="#fcfcfb" stroke="transparent" points="-28.8,28.8 -28.8,-666.8 1002.8,-666.8 1002.8,28.8 -28.8,28.8"/>
<text text-anchor="middle" x="70" y="-9.6" font-family="Helvetica,sans-Serif" font-size="18.00" fill="#1a1a1a">Thread Model</text>
<g id="clust1" class="cluster">
<title>cluster_main</title>
<polygon fill="#f6f5f2" stroke="#dedcd6" stroke-dasharray="5,2" points="14,-97 14,-301 181,-301 181,-97 14,-97"/>
<text text-anchor="middle" x="84" y="-288.2" font-family="Helvetica,sans-Serif" font-size="11.00" fill="#1e50a2">Main Thread (process)</text>
</g>
<g id="clust2" class="cluster">
<title>cluster_pool</title>
<polygon fill="#f6f5f2" stroke="#dedcd6" stroke-dasharray="5,2" points="285,-236 285,-630 685,-630 685,-236 285,-236"/>
<text text-anchor="middle" x="394" y="-617.2" font-family="Helvetica,sans-Serif" font-size="11.00" fill="#854f0b">Thread Pool (configurable, default 4)</text>
</g>
<g id="clust3" class="cluster">
<title>cluster_dedicated</title>
<polygon fill="#f6f5f2" stroke="#dedcd6" stroke-dasharray="5,2" points="843,-36 843,-484 966,-484 966,-36 843,-36"/>
<text text-anchor="middle" x="903" y="-471.2" font-family="Helvetica,sans-Serif" font-size="11.00" fill="#0f7a6e">Dedicated Threads</text>
</g>
<!-- main_thread -->
<g id="node1" class="node">
<title>main_thread</title>
<path fill="#d8d7d2" stroke="transparent" d="M161,-273C161,-273 34,-273 34,-273 28,-273 22,-267 22,-261 22,-261 22,-117 22,-117 22,-111 28,-105 34,-105 34,-105 161,-105 161,-105 167,-105 173,-111 173,-117 173,-117 173,-261 173,-261 173,-267 167,-273 161,-273"/>
<polygon fill="#ffffff" stroke="transparent" points="22,-105 22,-273 173,-273 173,-105 22,-105"/>
<polygon fill="#e8f0fc" stroke="transparent" points="22.5,-252 22.5,-273 173.5,-273 173.5,-252 22.5,-252"/>
<polygon fill="none" stroke="#d8d7d2" points="22.5,-252 22.5,-273 173.5,-273 173.5,-252 22.5,-252"/>
<text text-anchor="start" x="62.5" y="-261" font-family="Helvetica,sans-Serif" font-weight="bold" font-size="10.00" fill="#1e50a2">Main Thread</text>
<polygon fill="none" stroke="#d8d7d2" points="22.5,-231 22.5,-252 173.5,-252 173.5,-231 22.5,-231"/>
<text text-anchor="start" x="27.5" y="-239" font-family="Helvetica,sans-Serif" font-size="10.00" fill="#3a3a38">parse CLI args (argp)</text>
<polygon fill="none" stroke="#d8d7d2" points="22.5,-210 22.5,-231 173.5,-231 173.5,-210 22.5,-210"/>
<text text-anchor="start" x="27.5" y="-218" font-family="Helvetica,sans-Serif" font-size="10.00" fill="#3a3a38">log_init() → consumer thread</text>
<polygon fill="none" stroke="#d8d7d2" points="22.5,-189 22.5,-210 173.5,-210 173.5,-189 22.5,-189"/>
<text text-anchor="start" x="27.5" y="-197" font-family="Helvetica,sans-Serif" font-size="10.00" fill="#3a3a38">make_listener()</text>
<polygon fill="none" stroke="#d8d7d2" points="22.5,-168 22.5,-189 173.5,-189 173.5,-168 22.5,-168"/>
<text text-anchor="start" x="27.5" y="-176" font-family="Helvetica,sans-Serif" font-size="10.00" fill="#3a3a38">livereload_start()</text>
<polygon fill="none" stroke="#d8d7d2" points="22.5,-147 22.5,-168 173.5,-168 173.5,-147 22.5,-147"/>
<text text-anchor="start" x="27.5" y="-155" font-family="Helvetica,sans-Serif" font-size="10.00" fill="#3a3a38">thread_pool_create()</text>
<polygon fill="none" stroke="#d8d7d2" points="22.5,-126 22.5,-147 173.5,-147 173.5,-126 22.5,-126"/>
<text text-anchor="start" x="27.5" y="-134" font-family="Helvetica,sans-Serif" font-size="10.00" fill="#3a3a38">accept() loop</text>
<polygon fill="none" stroke="#d8d7d2" points="22.5,-105 22.5,-126 173.5,-126 173.5,-105 22.5,-105"/>
<text text-anchor="start" x="27.5" y="-113" font-family="Helvetica,sans-Serif" font-size="10.00" fill="#3a3a38">submit ClientJob to pool</text>
</g>
<!-- shared_queue -->
<g id="node6" class="node">
<title>shared_queue</title>
<path fill="#d8d7d2" stroke="transparent" d="M420,-379C420,-379 305,-379 305,-379 299,-379 293,-373 293,-367 293,-367 293,-307 293,-307 293,-301 299,-295 305,-295 305,-295 420,-295 420,-295 426,-295 432,-301 432,-307 432,-307 432,-367 432,-367 432,-373 426,-379 420,-379"/>
<polygon fill="#ffffff" stroke="transparent" points="293,-295 293,-379 432,-379 432,-295 293,-295"/>
<polygon fill="#e8f0fc" stroke="transparent" points="293.5,-358 293.5,-379 432.5,-379 432.5,-358 293.5,-358"/>
<polygon fill="none" stroke="#d8d7d2" points="293.5,-358 293.5,-379 432.5,-379 432.5,-358 293.5,-358"/>
<text text-anchor="start" x="328.5" y="-367" font-family="Helvetica,sans-Serif" font-weight="bold" font-size="10.00" fill="#1e50a2">Work Queue</text>
<polygon fill="none" stroke="#d8d7d2" points="293.5,-337 293.5,-358 432.5,-358 432.5,-337 293.5,-337"/>
<text text-anchor="start" x="298.5" y="-345" font-family="Helvetica,sans-Serif" font-size="10.00" fill="#3a3a38">circular buffer (4096 slots)</text>
<polygon fill="none" stroke="#d8d7d2" points="293.5,-316 293.5,-337 432.5,-337 432.5,-316 293.5,-316"/>
<text text-anchor="start" x="298.5" y="-324" font-family="Helvetica,sans-Serif" font-size="10.00" fill="#3a3a38">mutex + 2 condvars</text>
<polygon fill="none" stroke="#d8d7d2" points="293.5,-295 293.5,-316 432.5,-316 432.5,-295 293.5,-295"/>
<text text-anchor="start" x="298.5" y="-303" font-family="Helvetica,sans-Serif" font-size="10.00" fill="#3a3a38">queued: ClientJob*</text>
</g>
<!-- main_thread&#45;&gt;shared_queue -->
<g id="edge1" class="edge">
<title>main_thread&#45;&gt;shared_queue</title>
<path fill="none" stroke="#0f6e56" d="M173.16,-231.01C208.76,-251.05 251.25,-274.96 286.85,-294.99"/>
<polygon fill="#0f6e56" stroke="#0f6e56" points="285.66,-297.13 292.96,-298.43 288.06,-292.86 285.66,-297.13"/>
<text text-anchor="middle" x="244" y="-282.8" font-family="Helvetica,sans-Serif" font-size="9.00" fill="#6b6a66">submit()</text>
</g>
<!-- watcher_thread -->
<g id="node7" class="node">
<title>watcher_thread</title>
<path fill="#d8d7d2" stroke="transparent" d="M942,-232C942,-232 867,-232 867,-232 861,-232 855,-226 855,-220 855,-220 855,-168 855,-168 855,-162 861,-156 867,-156 867,-156 942,-156 942,-156 948,-156 954,-162 954,-168 954,-168 954,-220 954,-220 954,-226 948,-232 942,-232"/>
<polygon fill="#ffffff" stroke="transparent" points="855,-156 855,-232 954,-232 954,-156 855,-156"/>
<polygon fill="#dff5f2" stroke="transparent" points="855.5,-213 855.5,-232 954.5,-232 954.5,-213 855.5,-213"/>
<polygon fill="none" stroke="#d8d7d2" points="855.5,-213 855.5,-232 954.5,-232 954.5,-213 855.5,-213"/>
<text text-anchor="start" x="859.5" y="-221" font-family="Helvetica,sans-Serif" font-weight="bold" font-size="10.00" fill="#0f7a6e">Watcher Thread</text>
<polygon fill="none" stroke="#d8d7d2" points="855.5,-194 855.5,-213 954.5,-213 954.5,-194 855.5,-194"/>
<text text-anchor="start" x="859.5" y="-201" font-family="Helvetica,sans-Serif" font-size="10.00" fill="#3a3a38">inotify or poll</text>
<polygon fill="none" stroke="#d8d7d2" points="855.5,-175 855.5,-194 954.5,-194 954.5,-175 855.5,-175"/>
<text text-anchor="start" x="859.5" y="-182" font-family="Helvetica,sans-Serif" font-size="10.00" fill="#3a3a38">select() on events</text>
<polygon fill="none" stroke="#d8d7d2" points="855.5,-156 855.5,-175 954.5,-175 954.5,-156 855.5,-156"/>
<text text-anchor="start" x="859.5" y="-163" font-family="Helvetica,sans-Serif" font-size="10.00" fill="#3a3a38">calls on_change()</text>
</g>
<!-- main_thread&#45;&gt;watcher_thread -->
<g id="edge2" class="edge">
<title>main_thread&#45;&gt;watcher_thread</title>
<path fill="none" stroke="#0f6e56" stroke-dasharray="5,2" d="M173.15,-189.46C333.02,-190.46 705.45,-192.77 847.29,-193.65"/>
<polygon fill="#0f6e56" stroke="#0f6e56" points="847.66,-196.1 854.67,-193.7 847.69,-191.2 847.66,-196.1"/>
<text text-anchor="middle" x="499.5" y="-193.8" font-family="Helvetica,sans-Serif" font-size="9.00" fill="#6b6a66">watcher_start()</text>
</g>
<!-- log_consumer -->
<g id="node8" class="node">
<title>log_consumer</title>
<path fill="#d8d7d2" stroke="transparent" d="M946,-120C946,-120 863,-120 863,-120 857,-120 851,-114 851,-108 851,-108 851,-56 851,-56 851,-50 857,-44 863,-44 863,-44 946,-44 946,-44 952,-44 958,-50 958,-56 958,-56 958,-108 958,-108 958,-114 952,-120 946,-120"/>
<polygon fill="#ffffff" stroke="transparent" points="851,-44 851,-120 958,-120 958,-44 851,-44"/>
<polygon fill="#faf6d8" stroke="transparent" points="851.5,-101 851.5,-120 958.5,-120 958.5,-101 851.5,-101"/>
<polygon fill="none" stroke="#d8d7d2" points="851.5,-101 851.5,-120 958.5,-120 958.5,-101 851.5,-101"/>
<text text-anchor="start" x="864.5" y="-109" font-family="Helvetica,sans-Serif" font-weight="bold" font-size="10.00" fill="#8a7a0f">Log Consumer</text>
<polygon fill="none" stroke="#d8d7d2" points="851.5,-82 851.5,-101 958.5,-101 958.5,-82 851.5,-82"/>
<text text-anchor="start" x="855.5" y="-89" font-family="Helvetica,sans-Serif" font-size="10.00" fill="#3a3a38">drains lock&#45;free ring</text>
<polygon fill="none" stroke="#d8d7d2" points="851.5,-63 851.5,-82 958.5,-82 958.5,-63 851.5,-63"/>
<text text-anchor="start" x="855.5" y="-70" font-family="Helvetica,sans-Serif" font-size="10.00" fill="#3a3a38">raw fwrite() batch</text>
<polygon fill="none" stroke="#d8d7d2" points="851.5,-44 851.5,-63 958.5,-63 958.5,-44 851.5,-44"/>
<text text-anchor="start" x="855.5" y="-51" font-family="Helvetica,sans-Serif" font-size="10.00" fill="#3a3a38">1 fflush() per batch</text>
</g>
<!-- main_thread&#45;&gt;log_consumer -->
<g id="edge3" class="edge">
<title>main_thread&#45;&gt;log_consumer</title>
<path fill="none" stroke="#8a7a0f" stroke-dasharray="5,2" d="M173.15,-179.08C331.74,-158 699.51,-109.11 843.84,-89.93"/>
<polygon fill="#8a7a0f" stroke="#8a7a0f" points="844.34,-92.34 850.95,-88.98 843.69,-87.48 844.34,-92.34"/>
<text text-anchor="middle" x="499.5" y="-142.8" font-family="Helvetica,sans-Serif" font-size="9.00" fill="#6b6a66">log_init() spawns</text>
</g>
<!-- worker1 -->
<g id="node2" class="node">
<title>worker1</title>
<path fill="#d8d7d2" stroke="transparent" d="M665,-470.5C665,-470.5 579,-470.5 579,-470.5 573,-470.5 567,-464.5 567,-458.5 567,-458.5 567,-387.5 567,-387.5 567,-381.5 573,-375.5 579,-375.5 579,-375.5 665,-375.5 665,-375.5 671,-375.5 677,-381.5 677,-387.5 677,-387.5 677,-458.5 677,-458.5 677,-464.5 671,-470.5 665,-470.5"/>
<polygon fill="#ffffff" stroke="transparent" points="567,-375.5 567,-470.5 677,-470.5 677,-375.5 567,-375.5"/>
<polygon fill="#faeeda" stroke="transparent" points="567,-451 567,-470 677,-470 677,-451 567,-451"/>
<polygon fill="none" stroke="#d8d7d2" points="567,-451 567,-470 677,-470 677,-451 567,-451"/>
<text text-anchor="start" x="596" y="-459" font-family="Helvetica,sans-Serif" font-weight="bold" font-size="10.00" fill="#854f0b">Worker 1</text>
<polygon fill="none" stroke="#d8d7d2" points="567,-432 567,-451 677,-451 677,-432 567,-432"/>
<text text-anchor="start" x="571" y="-439" font-family="Helvetica,sans-Serif" font-size="10.00" fill="#3a3a38">pull task from queue</text>
<polygon fill="none" stroke="#d8d7d2" points="567,-413 567,-432 677,-432 677,-413 567,-413"/>
<text text-anchor="start" x="571" y="-420" font-family="Helvetica,sans-Serif" font-size="10.00" fill="#3a3a38">handle_client()</text>
<polygon fill="none" stroke="#d8d7d2" points="567,-394 567,-413 677,-413 677,-394 567,-394"/>
<text text-anchor="start" x="571" y="-401" font-family="Helvetica,sans-Serif" font-size="10.00" fill="#3a3a38">keep&#45;alive loop</text>
<polygon fill="none" stroke="#d8d7d2" points="567,-375 567,-394 677,-394 677,-375 567,-375"/>
<text text-anchor="start" x="571" y="-382" font-family="Helvetica,sans-Serif" font-size="10.00" fill="#3a3a38">TLS buffer reuse</text>
</g>
<!-- sse1 -->
<g id="node9" class="node">
<title>sse1</title>
<path fill="#d8d7d2" stroke="transparent" d="M946,-456C946,-456 863,-456 863,-456 857,-456 851,-450 851,-444 851,-444 851,-392 851,-392 851,-386 857,-380 863,-380 863,-380 946,-380 946,-380 952,-380 958,-386 958,-392 958,-392 958,-444 958,-444 958,-450 952,-456 946,-456"/>
<polygon fill="#ffffff" stroke="transparent" points="851,-380 851,-456 958,-456 958,-380 851,-380"/>
<polygon fill="#dff5f2" stroke="transparent" points="851.5,-437 851.5,-456 958.5,-456 958.5,-437 851.5,-437"/>
<polygon fill="none" stroke="#d8d7d2" points="851.5,-437 851.5,-456 958.5,-456 958.5,-437 851.5,-437"/>
<text text-anchor="start" x="870" y="-445" font-family="Helvetica,sans-Serif" font-weight="bold" font-size="10.00" fill="#0f7a6e">SSE Client A</text>
<polygon fill="none" stroke="#d8d7d2" points="851.5,-418 851.5,-437 958.5,-437 958.5,-418 851.5,-418"/>
<text text-anchor="start" x="855.5" y="-425" font-family="Helvetica,sans-Serif" font-size="10.00" fill="#3a3a38">dedicated pthread</text>
<polygon fill="none" stroke="#d8d7d2" points="851.5,-399 851.5,-418 958.5,-418 958.5,-399 851.5,-399"/>
<text text-anchor="start" x="855.5" y="-406" font-family="Helvetica,sans-Serif" font-size="10.00" fill="#3a3a38">heartbeat every 15s</text>
<polygon fill="none" stroke="#d8d7d2" points="851.5,-380 851.5,-399 958.5,-399 958.5,-380 851.5,-380"/>
<text text-anchor="start" x="855.5" y="-387" font-family="Helvetica,sans-Serif" font-size="10.00" fill="#3a3a38">reads no data</text>
</g>
<!-- worker1&#45;&gt;sse1 -->
<g id="edge7" class="edge">
<title>worker1&#45;&gt;sse1</title>
<path fill="none" stroke="#6b21a8" stroke-dasharray="5,2" d="M677.08,-422.04C724.73,-421.19 794.04,-419.95 843.4,-419.07"/>
<polygon fill="#6b21a8" stroke="#6b21a8" points="843.58,-421.52 850.53,-418.94 843.49,-416.62 843.58,-421.52"/>
<text text-anchor="middle" x="764" y="-433.8" font-family="Helvetica,sans-Serif" font-size="9.00" fill="#6b6a66">SSE client detected</text>
<text text-anchor="middle" x="764" y="-423.8" font-family="Helvetica,sans-Serif" font-size="9.00" fill="#6b6a66">pthread_create()+detach</text>
</g>
<!-- worker2 -->
<g id="node3" class="node">
<title>worker2</title>
<path fill="#d8d7d2" stroke="transparent" d="M665,-339.5C665,-339.5 579,-339.5 579,-339.5 573,-339.5 567,-333.5 567,-327.5 567,-327.5 567,-256.5 567,-256.5 567,-250.5 573,-244.5 579,-244.5 579,-244.5 665,-244.5 665,-244.5 671,-244.5 677,-250.5 677,-256.5 677,-256.5 677,-327.5 677,-327.5 677,-333.5 671,-339.5 665,-339.5"/>
<polygon fill="#ffffff" stroke="transparent" points="567,-244.5 567,-339.5 677,-339.5 677,-244.5 567,-244.5"/>
<polygon fill="#faeeda" stroke="transparent" points="567,-320 567,-339 677,-339 677,-320 567,-320"/>
<polygon fill="none" stroke="#d8d7d2" points="567,-320 567,-339 677,-339 677,-320 567,-320"/>
<text text-anchor="start" x="596" y="-328" font-family="Helvetica,sans-Serif" font-weight="bold" font-size="10.00" fill="#854f0b">Worker 2</text>
<polygon fill="none" stroke="#d8d7d2" points="567,-301 567,-320 677,-320 677,-301 567,-301"/>
<text text-anchor="start" x="571" y="-308" font-family="Helvetica,sans-Serif" font-size="10.00" fill="#3a3a38">pull task from queue</text>
<polygon fill="none" stroke="#d8d7d2" points="567,-282 567,-301 677,-301 677,-282 567,-282"/>
<text text-anchor="start" x="571" y="-289" font-family="Helvetica,sans-Serif" font-size="10.00" fill="#3a3a38">handle_client()</text>
<polygon fill="none" stroke="#d8d7d2" points="567,-263 567,-282 677,-282 677,-263 567,-263"/>
<text text-anchor="start" x="571" y="-270" font-family="Helvetica,sans-Serif" font-size="10.00" fill="#3a3a38">keep&#45;alive loop</text>
<polygon fill="none" stroke="#d8d7d2" points="567,-244 567,-263 677,-263 677,-244 567,-244"/>
<text text-anchor="start" x="571" y="-251" font-family="Helvetica,sans-Serif" font-size="10.00" fill="#3a3a38">TLS buffer reuse</text>
</g>
<!-- sse2 -->
<g id="node10" class="node">
<title>sse2</title>
<path fill="#d8d7d2" stroke="transparent" d="M946,-344C946,-344 863,-344 863,-344 857,-344 851,-338 851,-332 851,-332 851,-280 851,-280 851,-274 857,-268 863,-268 863,-268 946,-268 946,-268 952,-268 958,-274 958,-280 958,-280 958,-332 958,-332 958,-338 952,-344 946,-344"/>
<polygon fill="#ffffff" stroke="transparent" points="851,-268 851,-344 958,-344 958,-268 851,-268"/>
<polygon fill="#dff5f2" stroke="transparent" points="851.5,-325 851.5,-344 958.5,-344 958.5,-325 851.5,-325"/>
<polygon fill="none" stroke="#d8d7d2" points="851.5,-325 851.5,-344 958.5,-344 958.5,-325 851.5,-325"/>
<text text-anchor="start" x="870" y="-333" font-family="Helvetica,sans-Serif" font-weight="bold" font-size="10.00" fill="#0f7a6e">SSE Client B</text>
<polygon fill="none" stroke="#d8d7d2" points="851.5,-306 851.5,-325 958.5,-325 958.5,-306 851.5,-306"/>
<text text-anchor="start" x="855.5" y="-313" font-family="Helvetica,sans-Serif" font-size="10.00" fill="#3a3a38">dedicated pthread</text>
<polygon fill="none" stroke="#d8d7d2" points="851.5,-287 851.5,-306 958.5,-306 958.5,-287 851.5,-287"/>
<text text-anchor="start" x="855.5" y="-294" font-family="Helvetica,sans-Serif" font-size="10.00" fill="#3a3a38">heartbeat every 15s</text>
<polygon fill="none" stroke="#d8d7d2" points="851.5,-268 851.5,-287 958.5,-287 958.5,-268 851.5,-268"/>
<text text-anchor="start" x="855.5" y="-275" font-family="Helvetica,sans-Serif" font-size="10.00" fill="#3a3a38">reads no data</text>
</g>
<!-- worker2&#45;&gt;sse2 -->
<g id="edge8" class="edge">
<title>worker2&#45;&gt;sse2</title>
<path fill="none" stroke="#6b21a8" stroke-dasharray="5,2" d="M677.08,-294.7C724.73,-297.08 794.04,-300.54 843.4,-303"/>
<polygon fill="#6b21a8" stroke="#6b21a8" points="843.42,-305.45 850.53,-303.36 843.66,-300.56 843.42,-305.45"/>
<text text-anchor="middle" x="764" y="-313.8" font-family="Helvetica,sans-Serif" font-size="9.00" fill="#6b6a66">SSE client detected</text>
<text text-anchor="middle" x="764" y="-303.8" font-family="Helvetica,sans-Serif" font-size="9.00" fill="#6b6a66">pthread_create()+detach</text>
</g>
<!-- worker_dots -->
<g id="node4" class="node">
<title>worker_dots</title>
<path fill="transparent" stroke="transparent" d="M364.83,-538.5C364.83,-538.5 360.17,-538.5 360.17,-538.5 357.83,-538.5 355.5,-536.17 355.5,-533.83 355.5,-533.83 355.5,-528.17 355.5,-528.17 355.5,-525.83 357.83,-523.5 360.17,-523.5 360.17,-523.5 364.83,-523.5 364.83,-523.5 367.17,-523.5 369.5,-525.83 369.5,-528.17 369.5,-528.17 369.5,-533.83 369.5,-533.83 369.5,-536.17 367.17,-538.5 364.83,-538.5"/>
<text text-anchor="middle" x="362.5" y="-527.3" font-family="Helvetica,sans-Serif" font-size="14.00" fill="#9c9b95">...</text>
</g>
<!-- workerN -->
<g id="node5" class="node">
<title>workerN</title>
<path fill="#d8d7d2" stroke="transparent" d="M665,-601.5C665,-601.5 579,-601.5 579,-601.5 573,-601.5 567,-595.5 567,-589.5 567,-589.5 567,-518.5 567,-518.5 567,-512.5 573,-506.5 579,-506.5 579,-506.5 665,-506.5 665,-506.5 671,-506.5 677,-512.5 677,-518.5 677,-518.5 677,-589.5 677,-589.5 677,-595.5 671,-601.5 665,-601.5"/>
<polygon fill="#ffffff" stroke="transparent" points="567,-506.5 567,-601.5 677,-601.5 677,-506.5 567,-506.5"/>
<polygon fill="#faeeda" stroke="transparent" points="567,-582 567,-601 677,-601 677,-582 567,-582"/>
<polygon fill="none" stroke="#d8d7d2" points="567,-582 567,-601 677,-601 677,-582 567,-582"/>
<text text-anchor="start" x="595" y="-590" font-family="Helvetica,sans-Serif" font-weight="bold" font-size="10.00" fill="#854f0b">Worker N</text>
<polygon fill="none" stroke="#d8d7d2" points="567,-563 567,-582 677,-582 677,-563 567,-563"/>
<text text-anchor="start" x="571" y="-570" font-family="Helvetica,sans-Serif" font-size="10.00" fill="#3a3a38">pull task from queue</text>
<polygon fill="none" stroke="#d8d7d2" points="567,-544 567,-563 677,-563 677,-544 567,-544"/>
<text text-anchor="start" x="571" y="-551" font-family="Helvetica,sans-Serif" font-size="10.00" fill="#3a3a38">handle_client()</text>
<polygon fill="none" stroke="#d8d7d2" points="567,-525 567,-544 677,-544 677,-525 567,-525"/>
<text text-anchor="start" x="571" y="-532" font-family="Helvetica,sans-Serif" font-size="10.00" fill="#3a3a38">keep&#45;alive loop</text>
<polygon fill="none" stroke="#d8d7d2" points="567,-506 567,-525 677,-525 677,-506 567,-506"/>
<text text-anchor="start" x="571" y="-513" font-family="Helvetica,sans-Serif" font-size="10.00" fill="#3a3a38">TLS buffer reuse</text>
</g>
<!-- shared_queue&#45;&gt;worker1 -->
<g id="edge4" class="edge">
<title>shared_queue&#45;&gt;worker1</title>
<path fill="none" stroke="#0f6e56" d="M438.93,-362.19C477.51,-375.08 523.84,-390.55 560.12,-402.67"/>
<polygon fill="#0f6e56" stroke="#0f6e56" points="439.58,-359.83 432.17,-359.93 438.03,-364.47 439.58,-359.83"/>
<polygon fill="#0f6e56" stroke="#0f6e56" points="559.35,-404.99 566.77,-404.89 560.91,-400.35 559.35,-404.99"/>
<text text-anchor="middle" x="499.5" y="-397.8" font-family="Helvetica,sans-Serif" font-size="9.00" fill="#6b6a66">dequeue</text>
</g>
<!-- shared_queue&#45;&gt;worker2 -->
<g id="edge5" class="edge">
<title>shared_queue&#45;&gt;worker2</title>
<path fill="none" stroke="#0f6e56" d="M439.18,-323.77C477.55,-317.07 523.55,-309.03 559.68,-302.72"/>
<polygon fill="#0f6e56" stroke="#0f6e56" points="438.64,-321.38 432.17,-325 439.48,-326.21 438.64,-321.38"/>
<polygon fill="#0f6e56" stroke="#0f6e56" points="560.3,-305.1 566.77,-301.48 559.45,-300.27 560.3,-305.1"/>
<text text-anchor="middle" x="499.5" y="-321.8" font-family="Helvetica,sans-Serif" font-size="9.00" fill="#6b6a66">dequeue</text>
</g>
<!-- shared_queue&#45;&gt;workerN -->
<g id="edge6" class="edge">
<title>shared_queue&#45;&gt;workerN</title>
<path fill="none" stroke="#0f6e56" d="M418.97,-383.74C460.9,-419.08 518.38,-467.52 561.31,-503.7"/>
<polygon fill="#0f6e56" stroke="#0f6e56" points="420.39,-381.73 413.45,-379.1 417.23,-385.48 420.39,-381.73"/>
<polygon fill="#0f6e56" stroke="#0f6e56" points="559.81,-505.63 566.74,-508.27 562.96,-501.89 559.81,-505.63"/>
<text text-anchor="middle" x="499.5" y="-485.8" font-family="Helvetica,sans-Serif" font-size="9.00" fill="#6b6a66">dequeue</text>
</g>
<!-- note -->
<g id="node11" class="node">
<title>note</title>
<path fill="transparent" stroke="transparent" d="M183,-556.5C183,-556.5 12,-556.5 12,-556.5 6,-556.5 0,-550.5 0,-544.5 0,-544.5 0,-321.5 0,-321.5 0,-315.5 6,-309.5 12,-309.5 12,-309.5 183,-309.5 183,-309.5 189,-309.5 195,-315.5 195,-321.5 195,-321.5 195,-544.5 195,-544.5 195,-550.5 189,-556.5 183,-556.5"/>
<text text-anchor="start" x="55.5" y="-539" font-family="Helvetica,sans-Serif" font-weight="bold" font-size="10.00" fill="#854f0b">Key Properties</text>
<text text-anchor="start" x="10.5" y="-511" font-family="Helvetica,sans-Serif" font-size="10.00" fill="#6b6a66">1. Accept never blocks workers</text>
<text text-anchor="start" x="10.5" y="-484" font-family="Helvetica,sans-Serif" font-size="10.00" fill="#6b6a66">2. Each SSE client = 1 pthread</text>
<text text-anchor="start" x="10.5" y="-457" font-family="Helvetica,sans-Serif" font-size="10.00" fill="#6b6a66">3. SSE threads are detached</text>
<text text-anchor="start" x="10.5" y="-430" font-family="Helvetica,sans-Serif" font-size="10.00" fill="#6b6a66">4. Watcher is 1 thread total</text>
<text text-anchor="start" x="10.5" y="-403" font-family="Helvetica,sans-Serif" font-size="10.00" fill="#6b6a66">5. Log consumer = 1 thread</text>
<text text-anchor="start" x="10.5" y="-376" font-family="Helvetica,sans-Serif" font-size="10.00" fill="#6b6a66">6. Queue full → accept() blocks (!)</text>
<text text-anchor="start" x="10.5" y="-349" font-family="Helvetica,sans-Serif" font-size="10.00" fill="#6b6a66">7. g_shutdown atomic kills all loops</text>
<text text-anchor="start" x="10.5" y="-322" font-family="Helvetica,sans-Serif" font-size="10.00" fill="#6b6a66">8. Workers reuse TLS buffers</text>
</g>
</g>
</svg>
