<?xml version="1.0" encoding="UTF-8" standalone="no"?>
<!DOCTYPE svg PUBLIC "-//W3C//DTD SVG 1.1//EN"
 "http://www.w3.org/Graphics/SVG/1.1/DTD/svg11.dtd">
<!-- Generated by graphviz version 12.2.1 (20241206.2353)
 -->
<!-- Title: thread_model Pages: 1 -->
<svg width="943pt" height="719pt"
 viewBox="0.00 0.00 942.68 719.20" xmlns="http://www.w3.org/2000/svg" xmlns:xlink="http://www.w3.org/1999/xlink">
<g id="graph0" class="graph" transform="scale(1 1) rotate(0) translate(28.8 690.4)">
<title>thread_model</title>
<polygon fill="#fcfcfb" stroke="none" points="-28.8,28.8 -28.8,-690.4 913.88,-690.4 913.88,28.8 -28.8,28.8"/>
<text text-anchor="middle" x="63.53" y="-9.4" font-family="Helvetica,sans-Serif" font-size="18.00" fill="#1a1a1a">Thread Model</text>
<g id="clust1" class="cluster">
<title>cluster_main</title>
<polygon fill="#f6f5f2" stroke="#dedcd6" stroke-dasharray="5,2" points="11.46,-101.6 11.46,-314.6 164.74,-314.6 164.74,-101.6 11.46,-101.6"/>
<text text-anchor="middle" x="74.78" y="-300.7" font-family="Helvetica,sans-Serif" font-size="11.00" fill="#1e50a2">Main Thread (process)</text>
</g>
<g id="clust2" class="cluster">
<title>cluster_pool</title>
<polygon fill="#f6f5f2" stroke="#dedcd6" stroke-dasharray="5,2" points="258.69,-244.6 258.69,-653.6 623.87,-653.6 623.87,-244.6 258.69,-244.6"/>
<text text-anchor="middle" x="355.97" y="-639.7" font-family="Helvetica,sans-Serif" font-size="11.00" fill="#854f0b">Thread Pool (configurable, default 4)</text>
</g>
<g id="clust3" class="cluster">
<title>cluster_dedicated</title>
<polygon fill="#f6f5f2" stroke="#dedcd6" stroke-dasharray="5,2" points="764.69,-37.6 764.69,-502.6 877.08,-502.6 877.08,-37.6 764.69,-37.6"/>
<text text-anchor="middle" x="819.16" y="-488.7" font-family="Helvetica,sans-Serif" font-size="11.00" fill="#0f7a6e">Dedicated Threads</text>
</g>
<!-- main_thread -->
<g id="node1" class="node">
<title>main_thread</title>
<path fill="#d8d7d2" stroke="none" d="M144.74,-285.6C144.74,-285.6 31.46,-285.6 31.46,-285.6 25.46,-285.6 19.46,-279.6 19.46,-273.6 19.46,-273.6 19.46,-121.6 19.46,-121.6 19.46,-115.6 25.46,-109.6 31.46,-109.6 31.46,-109.6 144.74,-109.6 144.74,-109.6 150.74,-109.6 156.74,-115.6 156.74,-121.6 156.74,-121.6 156.74,-273.6 156.74,-273.6 156.74,-279.6 150.74,-285.6 144.74,-285.6"/>
<polygon fill="#ffffff" stroke="none" points="19.46,-109.6 19.46,-285.6 156.74,-285.6 156.74,-109.6 19.46,-109.6"/>
<polygon fill="#e8f0fc" stroke="none" points="19.46,-263.6 19.46,-285.6 156.74,-285.6 156.74,-263.6 19.46,-263.6"/>
<polygon fill="none" stroke="#d8d7d2" points="19.46,-263.6 19.46,-285.6 156.74,-285.6 156.74,-263.6 19.46,-263.6"/>
<text text-anchor="start" x="58.65" y="-272.6" font-family="Helvetica,sans-Serif" font-weight="bold" font-size="10.00" fill="#1e50a2">Main Thread</text>
<polygon fill="none" stroke="#d8d7d2" points="19.46,-241.6 19.46,-263.6 156.74,-263.6 156.74,-241.6 19.46,-241.6"/>
<text text-anchor="start" x="24.46" y="-249.6" font-family="Helvetica,sans-Serif" font-size="10.00" fill="#3a3a38">parse CLI args (argp)</text>
<polygon fill="none" stroke="#d8d7d2" points="19.46,-219.6 19.46,-241.6 156.74,-241.6 156.74,-219.6 19.46,-219.6"/>
<text text-anchor="start" x="24.46" y="-227.6" font-family="Helvetica,sans-Serif" font-size="10.00" fill="#3a3a38">log_init() → consumer thread</text>
<polygon fill="none" stroke="#d8d7d2" points="19.46,-197.6 19.46,-219.6 156.74,-219.6 156.74,-197.6 19.46,-197.6"/>
<text text-anchor="start" x="24.46" y="-205.6" font-family="Helvetica,sans-Serif" font-size="10.00" fill="#3a3a38">make_listener()</text>
<polygon fill="none" stroke="#d8d7d2" points="19.46,-175.6 19.46,-197.6 156.74,-197.6 156.74,-175.6 19.46,-175.6"/>
<text text-anchor="start" x="24.46" y="-183.6" font-family="Helvetica,sans-Serif" font-size="10.00" fill="#3a3a38">livereload_start()</text>
<polygon fill="none" stroke="#d8d7d2" points="19.46,-153.6 19.46,-175.6 156.74,-175.6 156.74,-153.6 19.46,-153.6"/>
<text text-anchor="start" x="24.46" y="-161.6" font-family="Helvetica,sans-Serif" font-size="10.00" fill="#3a3a38">thread_pool_create()</text>
<polygon fill="none" stroke="#d8d7d2" points="19.46,-131.6 19.46,-153.6 156.74,-153.6 156.74,-131.6 19.46,-131.6"/>
<text text-anchor="start" x="24.46" y="-139.6" font-family="Helvetica,sans-Serif" font-size="10.00" fill="#3a3a38">accept() loop</text>
<polygon fill="none" stroke="#d8d7d2" points="19.46,-109.6 19.46,-131.6 156.74,-131.6 156.74,-109.6 19.46,-109.6"/>
<text text-anchor="start" x="24.46" y="-117.6" font-family="Helvetica,sans-Serif" font-size="10.00" fill="#3a3a38">submit ClientJob to pool</text>
</g>
<!-- shared_queue -->
<g id="node6" class="node">
<title>shared_queue</title>
<path fill="#d8d7d2" stroke="none" d="M380.29,-439.6C380.29,-439.6 278.69,-439.6 278.69,-439.6 272.69,-439.6 266.69,-433.6 266.69,-427.6 266.69,-427.6 266.69,-363.6 266.69,-363.6 266.69,-357.6 272.69,-351.6 278.69,-351.6 278.69,-351.6 380.29,-351.6 380.29,-351.6 386.29,-351.6 392.29,-357.6 392.29,-363.6 392.29,-363.6 392.29,-427.6 392.29,-427.6 392.29,-433.6 386.29,-439.6 380.29,-439.6"/>
<polygon fill="#ffffff" stroke="none" points="266.69,-351.6 266.69,-439.6 392.29,-439.6 392.29,-351.6 266.69,-351.6"/>
<polygon fill="#e8f0fc" stroke="none" points="266.69,-417.6 266.69,-439.6 392.29,-439.6 392.29,-417.6 266.69,-417.6"/>
<polygon fill="none" stroke="#d8d7d2" points="266.69,-417.6 266.69,-439.6 392.29,-439.6 392.29,-417.6 266.69,-417.6"/>
<text text-anchor="start" x="300.05" y="-426.6" font-family="Helvetica,sans-Serif" font-weight="bold" font-size="10.00" fill="#1e50a2">Work Queue</text>
<polygon fill="none" stroke="#d8d7d2" points="266.69,-395.6 266.69,-417.6 392.29,-417.6 392.29,-395.6 266.69,-395.6"/>
<text text-anchor="start" x="271.69" y="-403.6" font-family="Helvetica,sans-Serif" font-size="10.00" fill="#3a3a38">circular buffer (4096 slots)</text>
<polygon fill="none" stroke="#d8d7d2" points="266.69,-373.6 266.69,-395.6 392.29,-395.6 392.29,-373.6 266.69,-373.6"/>
<text text-anchor="start" x="271.69" y="-381.6" font-family="Helvetica,sans-Serif" font-size="10.00" fill="#3a3a38">mutex + 2 condvars</text>
<polygon fill="none" stroke="#d8d7d2" points="266.69,-351.6 266.69,-373.6 392.29,-373.6 392.29,-351.6 266.69,-351.6"/>
<text text-anchor="start" x="271.69" y="-359.6" font-family="Helvetica,sans-Serif" font-size="10.00" fill="#3a3a38">queued: ClientJob*</text>
</g>
<!-- main_thread&#45;&gt;shared_queue -->
<g id="edge1" class="edge">
<title>main_thread&#45;&gt;shared_queue</title>
<path fill="none" stroke="#0f6e56" d="M156.42,-253.28C191.83,-282.57 234.86,-318.16 269.03,-346.42"/>
<polygon fill="#0f6e56" stroke="#0f6e56" points="267.19,-348.07 274.14,-350.65 270.31,-344.3 267.19,-348.07"/>
<text text-anchor="middle" x="221.44" y="-322.86" font-family="Helvetica,sans-Serif" font-size="9.00" fill="#6b6a66">submit()</text>
</g>
<!-- watcher_thread -->
<g id="node7" class="node">
<title>watcher_thread</title>
<path fill="#d8d7d2" stroke="none" d="M852.35,-241.6C852.35,-241.6 789.42,-241.6 789.42,-241.6 783.42,-241.6 777.42,-235.6 777.42,-229.6 777.42,-229.6 777.42,-173.6 777.42,-173.6 777.42,-167.6 783.42,-161.6 789.42,-161.6 789.42,-161.6 852.35,-161.6 852.35,-161.6 858.35,-161.6 864.35,-167.6 864.35,-173.6 864.35,-173.6 864.35,-229.6 864.35,-229.6 864.35,-235.6 858.35,-241.6 852.35,-241.6"/>
<polygon fill="#ffffff" stroke="none" points="777.42,-161.6 777.42,-241.6 864.35,-241.6 864.35,-161.6 777.42,-161.6"/>
<polygon fill="#dff5f2" stroke="none" points="777.42,-221.6 777.42,-241.6 864.35,-241.6 864.35,-221.6 777.42,-221.6"/>
<polygon fill="none" stroke="#d8d7d2" points="777.42,-221.6 777.42,-241.6 864.35,-241.6 864.35,-221.6 777.42,-221.6"/>
<text text-anchor="start" x="783.1" y="-229.6" font-family="Helvetica,sans-Serif" font-weight="bold" font-size="10.00" fill="#0f7a6e">Watcher Thread</text>
<polygon fill="none" stroke="#d8d7d2" points="777.42,-201.6 777.42,-221.6 864.35,-221.6 864.35,-201.6 777.42,-201.6"/>
<text text-anchor="start" x="781.42" y="-208.6" font-family="Helvetica,sans-Serif" font-size="10.00" fill="#3a3a38">inotify or poll</text>
<polygon fill="none" stroke="#d8d7d2" points="777.42,-181.6 777.42,-201.6 864.35,-201.6 864.35,-181.6 777.42,-181.6"/>
<text text-anchor="start" x="781.42" y="-188.6" font-family="Helvetica,sans-Serif" font-size="10.00" fill="#3a3a38">select() on events</text>
<polygon fill="none" stroke="#d8d7d2" points="777.42,-161.6 777.42,-181.6 864.35,-181.6 864.35,-161.6 777.42,-161.6"/>
<text text-anchor="start" x="781.42" y="-168.6" font-family="Helvetica,sans-Serif" font-size="10.00" fill="#3a3a38">calls on_change()</text>
</g>
<!-- main_thread&#45;&gt;watcher_thread -->
<g id="edge2" class="edge">
<title>main_thread&#45;&gt;watcher_thread</title>
<path fill="none" stroke="#0f6e56" stroke-dasharray="5,2" d="M156.54,-197.97C301.75,-198.76 641.24,-200.62 769.56,-201.32"/>
<polygon fill="#0f6e56" stroke="#0f6e56" points="769.17,-203.77 776.19,-201.36 769.2,-198.87 769.17,-203.77"/>
<text text-anchor="middle" x="455.06" y="-202.48" font-family="Helvetica,sans-Serif" font-size="9.00" fill="#6b6a66">watcher_start()</text>
</g>
<!-- log_consumer -->
<g id="node8" class="node">
<title>log_consumer</title>
<path fill="#d8d7d2" stroke="none" d="M856.79,-125.6C856.79,-125.6 784.98,-125.6 784.98,-125.6 778.98,-125.6 772.98,-119.6 772.98,-113.6 772.98,-113.6 772.98,-57.6 772.98,-57.6 772.98,-51.6 778.98,-45.6 784.98,-45.6 784.98,-45.6 856.79,-45.6 856.79,-45.6 862.79,-45.6 868.79,-51.6 868.79,-57.6 868.79,-57.6 868.79,-113.6 868.79,-113.6 868.79,-119.6 862.79,-125.6 856.79,-125.6"/>
<polygon fill="#ffffff" stroke="none" points="772.98,-45.6 772.98,-125.6 868.79,-125.6 868.79,-45.6 772.98,-45.6"/>
<polygon fill="#faf6d8" stroke="none" points="772.98,-105.6 772.98,-125.6 868.79,-125.6 868.79,-105.6 772.98,-105.6"/>
<polygon fill="none" stroke="#d8d7d2" points="772.98,-105.6 772.98,-125.6 868.79,-125.6 868.79,-105.6 772.98,-105.6"/>
<text text-anchor="start" x="785.6" y="-113.6" font-family="Helvetica,sans-Serif" font-weight="bold" font-size="10.00" fill="#8a7a0f">Log Consumer</text>
<polygon fill="none" stroke="#d8d7d2" points="772.98,-85.6 772.98,-105.6 868.79,-105.6 868.79,-85.6 772.98,-85.6"/>
<text text-anchor="start" x="776.98" y="-92.6" font-family="Helvetica,sans-Serif" font-size="10.00" fill="#3a3a38">drains lock&#45;free ring</text>
<polygon fill="none" stroke="#d8d7d2" points="772.98,-65.6 772.98,-85.6 868.79,-85.6 868.79,-65.6 772.98,-65.6"/>
<text text-anchor="start" x="776.98" y="-72.6" font-family="Helvetica,sans-Serif" font-size="10.00" fill="#3a3a38">raw fwrite() batch</text>
<polygon fill="none" stroke="#d8d7d2" points="772.98,-45.6 772.98,-65.6 868.79,-65.6 868.79,-45.6 772.98,-45.6"/>
<text text-anchor="start" x="776.98" y="-52.6" font-family="Helvetica,sans-Serif" font-size="10.00" fill="#3a3a38">1 fflush() per batch</text>
</g>
<!-- main_thread&#45;&gt;log_consumer -->
<g id="edge3" class="edge">
<title>main_thread&#45;&gt;log_consumer</title>
<path fill="none" stroke="#8a7a0f" stroke-dasharray="5,2" d="M156.54,-187.26C300.02,-165.27 633.19,-114.21 764.89,-94.03"/>
<polygon fill="#8a7a0f" stroke="#8a7a0f" points="765.22,-96.46 771.77,-92.97 764.48,-91.61 765.22,-96.46"/>
<text text-anchor="middle" x="455.06" y="-148.17" font-family="Helvetica,sans-Serif" font-size="9.00" fill="#6b6a66">log_init() spawns</text>
</g>
<!-- worker1 -->
<g id="node2" class="node">
<title>worker1</title>
<path fill="#d8d7d2" stroke="none" d="M603.87,-488.6C603.87,-488.6 529.82,-488.6 529.82,-488.6 523.82,-488.6 517.82,-482.6 517.82,-476.6 517.82,-476.6 517.82,-400.6 517.82,-400.6 517.82,-394.6 523.82,-388.6 529.82,-388.6 529.82,-388.6 603.87,-388.6 603.87,-388.6 609.87,-388.6 615.87,-394.6 615.87,-400.6 615.87,-400.6 615.87,-476.6 615.87,-476.6 615.87,-482.6 609.87,-488.6 603.87,-488.6"/>
<polygon fill="#ffffff" stroke="none" points="517.82,-388.6 517.82,-488.6 615.87,-488.6 615.87,-388.6 517.82,-388.6"/>
<polygon fill="#faeeda" stroke="none" points="517.82,-468.6 517.82,-488.6 615.87,-488.6 615.87,-468.6 517.82,-468.6"/>
<polygon fill="none" stroke="#d8d7d2" points="517.82,-468.6 517.82,-488.6 615.87,-488.6 615.87,-468.6 517.82,-468.6"/>
<text text-anchor="start" x="545.45" y="-476.6" font-family="Helvetica,sans-Serif" font-weight="bold" font-size="10.00" fill="#854f0b">Worker 1</text>
<polygon fill="none" stroke="#d8d7d2" points="517.82,-448.6 517.82,-468.6 615.87,-468.6 615.87,-448.6 517.82,-448.6"/>
<text text-anchor="start" x="521.82" y="-455.6" font-family="Helvetica,sans-Serif" font-size="10.00" fill="#3a3a38">pull task from queue</text>
<polygon fill="none" stroke="#d8d7d2" points="517.82,-428.6 517.82,-448.6 615.87,-448.6 615.87,-428.6 517.82,-428.6"/>
<text text-anchor="start" x="521.82" y="-435.6" font-family="Helvetica,sans-Serif" font-size="10.00" fill="#3a3a38">handle_client()</text>
<polygon fill="none" stroke="#d8d7d2" points="517.82,-408.6 517.82,-428.6 615.87,-428.6 615.87,-408.6 517.82,-408.6"/>
<text text-anchor="start" x="521.82" y="-415.6" font-family="Helvetica,sans-Serif" font-size="10.00" fill="#3a3a38">keep&#45;alive loop</text>
<polygon fill="none" stroke="#d8d7d2" points="517.82,-388.6 517.82,-408.6 615.87,-408.6 615.87,-388.6 517.82,-388.6"/>
<text text-anchor="start" x="521.82" y="-395.6" font-family="Helvetica,sans-Serif" font-size="10.00" fill="#3a3a38">TLS buffer reuse</text>
</g>
<!-- sse1 -->
<g id="node9" class="node">
<title>sse1</title>
<path fill="#d8d7d2" stroke="none" d="M857.08,-473.6C857.08,-473.6 784.69,-473.6 784.69,-473.6 778.69,-473.6 772.69,-467.6 772.69,-461.6 772.69,-461.6 772.69,-405.6 772.69,-405.6 772.69,-399.6 778.69,-393.6 784.69,-393.6 784.69,-393.6 857.08,-393.6 857.08,-393.6 863.08,-393.6 869.08,-399.6 869.08,-405.6 869.08,-405.6 869.08,-461.6 869.08,-461.6 869.08,-467.6 863.08,-473.6 857.08,-473.6"/>
<polygon fill="#ffffff" stroke="none" points="772.69,-393.6 772.69,-473.6 869.08,-473.6 869.08,-393.6 772.69,-393.6"/>
<polygon fill="#dff5f2" stroke="none" points="772.69,-453.6 772.69,-473.6 869.08,-473.6 869.08,-453.6 772.69,-453.6"/>
<polygon fill="none" stroke="#d8d7d2" points="772.69,-453.6 772.69,-473.6 869.08,-473.6 869.08,-453.6 772.69,-453.6"/>
<text text-anchor="start" x="790.6" y="-461.6" font-family="Helvetica,sans-Serif" font-weight="bold" font-size="10.00" fill="#0f7a6e">SSE Client A</text>
<polygon fill="none" stroke="#d8d7d2" points="772.69,-433.6 772.69,-453.6 869.08,-453.6 869.08,-433.6 772.69,-433.6"/>
<text text-anchor="start" x="776.69" y="-440.6" font-family="Helvetica,sans-Serif" font-size="10.00" fill="#3a3a38">dedicated pthread</text>
<polygon fill="none" stroke="#d8d7d2" points="772.69,-413.6 772.69,-433.6 869.08,-433.6 869.08,-413.6 772.69,-413.6"/>
<text text-anchor="start" x="776.69" y="-420.6" font-family="Helvetica,sans-Serif" font-size="10.00" fill="#3a3a38">heartbeat every 15s</text>
<polygon fill="none" stroke="#d8d7d2" points="772.69,-393.6 772.69,-413.6 869.08,-413.6 869.08,-393.6 772.69,-393.6"/>
<text text-anchor="start" x="776.69" y="-400.6" font-family="Helvetica,sans-Serif" font-size="10.00" fill="#3a3a38">reads no data</text>
</g>
<!-- worker1&#45;&gt;sse1 -->
<g id="edge7" class="edge">
<title>worker1&#45;&gt;sse1</title>
<path fill="none" stroke="#6b21a8" stroke-dasharray="5,2" d="M615.85,-437.65C658.25,-436.81 720.07,-435.58 764.54,-434.7"/>
<polygon fill="#6b21a8" stroke="#6b21a8" points="764.45,-437.15 771.4,-434.56 764.36,-432.25 764.45,-437.15"/>
<text text-anchor="middle" x="694.28" y="-450.48" font-family="Helvetica,sans-Serif" font-size="9.00" fill="#6b6a66">SSE client detected</text>
<text text-anchor="middle" x="694.28" y="-439.68" font-family="Helvetica,sans-Serif" font-size="9.00" fill="#6b6a66">pthread_create()+detach</text>
</g>
<!-- worker2 -->
<g id="node3" class="node">
<title>worker2</title>
<path fill="#d8d7d2" stroke="none" d="M603.87,-352.6C603.87,-352.6 529.82,-352.6 529.82,-352.6 523.82,-352.6 517.82,-346.6 517.82,-340.6 517.82,-340.6 517.82,-264.6 517.82,-264.6 517.82,-258.6 523.82,-252.6 529.82,-252.6 529.82,-252.6 603.87,-252.6 603.87,-252.6 609.87,-252.6 615.87,-258.6 615.87,-264.6 615.87,-264.6 615.87,-340.6 615.87,-340.6 615.87,-346.6 609.87,-352.6 603.87,-352.6"/>
<polygon fill="#ffffff" stroke="none" points="517.82,-252.6 517.82,-352.6 615.87,-352.6 615.87,-252.6 517.82,-252.6"/>
<polygon fill="#faeeda" stroke="none" points="517.82,-332.6 517.82,-352.6 615.87,-352.6 615.87,-332.6 517.82,-332.6"/>
<polygon fill="none" stroke="#d8d7d2" points="517.82,-332.6 517.82,-352.6 615.87,-352.6 615.87,-332.6 517.82,-332.6"/>
<text text-anchor="start" x="545.45" y="-340.6" font-family="Helvetica,sans-Serif" font-weight="bold" font-size="10.00" fill="#854f0b">Worker 2</text>
<polygon fill="none" stroke="#d8d7d2" points="517.82,-312.6 517.82,-332.6 615.87,-332.6 615.87,-312.6 517.82,-312.6"/>
<text text-anchor="start" x="521.82" y="-319.6" font-family="Helvetica,sans-Serif" font-size="10.00" fill="#3a3a38">pull task from queue</text>
<polygon fill="none" stroke="#d8d7d2" points="517.82,-292.6 517.82,-312.6 615.87,-312.6 615.87,-292.6 517.82,-292.6"/>
<text text-anchor="start" x="521.82" y="-299.6" font-family="Helvetica,sans-Serif" font-size="10.00" fill="#3a3a38">handle_client()</text>
<polygon fill="none" stroke="#d8d7d2" points="517.82,-272.6 517.82,-292.6 615.87,-292.6 615.87,-272.6 517.82,-272.6"/>
<text text-anchor="start" x="521.82" y="-279.6" font-family="Helvetica,sans-Serif" font-size="10.00" fill="#3a3a38">keep&#45;alive loop</text>
<polygon fill="none" stroke="#d8d7d2" points="517.82,-252.6 517.82,-272.6 615.87,-272.6 615.87,-252.6 517.82,-252.6"/>
<text text-anchor="start" x="521.82" y="-259.6" font-family="Helvetica,sans-Serif" font-size="10.00" fill="#3a3a38">TLS buffer reuse</text>
</g>
<!-- sse2 -->
<g id="node10" class="node">
<title>sse2</title>
<path fill="#d8d7d2" stroke="none" d="M857.08,-357.6C857.08,-357.6 784.69,-357.6 784.69,-357.6 778.69,-357.6 772.69,-351.6 772.69,-345.6 772.69,-345.6 772.69,-289.6 772.69,-289.6 772.69,-283.6 778.69,-277.6 784.69,-277.6 784.69,-277.6 857.08,-277.6 857.08,-277.6 863.08,-277.6 869.08,-283.6 869.08,-289.6 869.08,-289.6 869.08,-345.6 869.08,-345.6 869.08,-351.6 863.08,-357.6 857.08,-357.6"/>
<polygon fill="#ffffff" stroke="none" points="772.69,-277.6 772.69,-357.6 869.08,-357.6 869.08,-277.6 772.69,-277.6"/>
<polygon fill="#dff5f2" stroke="none" points="772.69,-337.6 772.69,-357.6 869.08,-357.6 869.08,-337.6 772.69,-337.6"/>
<polygon fill="none" stroke="#d8d7d2" points="772.69,-337.6 772.69,-357.6 869.08,-357.6 869.08,-337.6 772.69,-337.6"/>
<text text-anchor="start" x="790.6" y="-345.6" font-family="Helvetica,sans-Serif" font-weight="bold" font-size="10.00" fill="#0f7a6e">SSE Client B</text>
<polygon fill="none" stroke="#d8d7d2" points="772.69,-317.6 772.69,-337.6 869.08,-337.6 869.08,-317.6 772.69,-317.6"/>
<text text-anchor="start" x="776.69" y="-324.6" font-family="Helvetica,sans-Serif" font-size="10.00" fill="#3a3a38">dedicated pthread</text>
<polygon fill="none" stroke="#d8d7d2" points="772.69,-297.6 772.69,-317.6 869.08,-317.6 869.08,-297.6 772.69,-297.6"/>
<text text-anchor="start" x="776.69" y="-304.6" font-family="Helvetica,sans-Serif" font-size="10.00" fill="#3a3a38">heartbeat every 15s</text>
<polygon fill="none" stroke="#d8d7d2" points="772.69,-277.6 772.69,-297.6 869.08,-297.6 869.08,-277.6 772.69,-277.6"/>
<text text-anchor="start" x="776.69" y="-284.6" font-family="Helvetica,sans-Serif" font-size="10.00" fill="#3a3a38">reads no data</text>
</g>
<!-- worker2&#45;&gt;sse2 -->
<g id="edge8" class="edge">
<title>worker2&#45;&gt;sse2</title>
<path fill="none" stroke="#6b21a8" stroke-dasharray="5,2" d="M615.85,-305.46C658.25,-307.98 720.07,-311.66 764.54,-314.31"/>
<polygon fill="#6b21a8" stroke="#6b21a8" points="764.27,-316.74 771.41,-314.71 764.56,-311.85 764.27,-316.74"/>
<text text-anchor="middle" x="694.28" y="-326.25" font-family="Helvetica,sans-Serif" font-size="9.00" fill="#6b6a66">SSE client detected</text>
<text text-anchor="middle" x="694.28" y="-315.45" font-family="Helvetica,sans-Serif" font-size="9.00" fill="#6b6a66">pthread_create()+detach</text>
</g>
<!-- worker_dots -->
<g id="node4" class="node">
<title>worker_dots</title>
<path fill="none" stroke="none" d="M331.44,-272C331.44,-272 327.55,-272 327.55,-272 325.6,-272 323.66,-270.06 323.66,-268.11 323.66,-268.11 323.66,-259.09 323.66,-259.09 323.66,-257.14 325.6,-255.2 327.55,-255.2 327.55,-255.2 331.44,-255.2 331.44,-255.2 333.38,-255.2 335.33,-257.14 335.33,-259.09 335.33,-259.09 335.33,-268.11 335.33,-268.11 335.33,-270.06 333.38,-272 331.44,-272"/>
<text text-anchor="middle" x="329.49" y="-259.4" font-family="Helvetica,sans-Serif" font-size="14.00" fill="#9c9b95">...</text>
</g>
<!-- workerN -->
<g id="node5" class="node">
<title>workerN</title>
<path fill="#d8d7d2" stroke="none" d="M603.87,-624.6C603.87,-624.6 529.82,-624.6 529.82,-624.6 523.82,-624.6 517.82,-618.6 517.82,-612.6 517.82,-612.6 517.82,-536.6 517.82,-536.6 517.82,-530.6 523.82,-524.6 529.82,-524.6 529.82,-524.6 603.87,-524.6 603.87,-524.6 609.87,-524.6 615.87,-530.6 615.87,-536.6 615.87,-536.6 615.87,-612.6 615.87,-612.6 615.87,-618.6 609.87,-624.6 603.87,-624.6"/>
<polygon fill="#ffffff" stroke="none" points="517.82,-524.6 517.82,-624.6 615.87,-624.6 615.87,-524.6 517.82,-524.6"/>
<polygon fill="#faeeda" stroke="none" points="517.82,-604.6 517.82,-624.6 615.87,-624.6 615.87,-604.6 517.82,-604.6"/>
<polygon fill="none" stroke="#d8d7d2" points="517.82,-604.6 517.82,-624.6 615.87,-624.6 615.87,-604.6 517.82,-604.6"/>
<text text-anchor="start" x="544.62" y="-612.6" font-family="Helvetica,sans-Serif" font-weight="bold" font-size="10.00" fill="#854f0b">Worker N</text>
<polygon fill="none" stroke="#d8d7d2" points="517.82,-584.6 517.82,-604.6 615.87,-604.6 615.87,-584.6 517.82,-584.6"/>
<text text-anchor="start" x="521.82" y="-591.6" font-family="Helvetica,sans-Serif" font-size="10.00" fill="#3a3a38">pull task from queue</text>
<polygon fill="none" stroke="#d8d7d2" points="517.82,-564.6 517.82,-584.6 615.87,-584.6 615.87,-564.6 517.82,-564.6"/>
<text text-anchor="start" x="521.82" y="-571.6" font-family="Helvetica,sans-Serif" font-size="10.00" fill="#3a3a38">handle_client()</text>
<polygon fill="none" stroke="#d8d7d2" points="517.82,-544.6 517.82,-564.6 615.87,-564.6 615.87,-544.6 517.82,-544.6"/>
<text text-anchor="start" x="521.82" y="-551.6" font-family="Helvetica,sans-Serif" font-size="10.00" fill="#3a3a38">keep&#45;alive loop</text>
<polygon fill="none" stroke="#d8d7d2" points="517.82,-524.6 517.82,-544.6 615.87,-544.6 615.87,-524.6 517.82,-524.6"/>
<text text-anchor="start" x="521.82" y="-531.6" font-family="Helvetica,sans-Serif" font-size="10.00" fill="#3a3a38">TLS buffer reuse</text>
</g>
<!-- shared_queue&#45;&gt;worker1 -->
<g id="edge4" class="edge">
<title>shared_queue&#45;&gt;worker1</title>
<path fill="none" stroke="#0f6e56" d="M400,-408.3C435.04,-414.7 476.95,-422.36 509.88,-428.37"/>
<polygon fill="#0f6e56" stroke="#0f6e56" points="400.84,-405.96 393.51,-407.11 399.96,-410.78 400.84,-405.96"/>
<polygon fill="#0f6e56" stroke="#0f6e56" points="509.23,-430.75 516.56,-429.59 510.11,-425.93 509.23,-430.75"/>
<text text-anchor="middle" x="455.06" y="-426.16" font-family="Helvetica,sans-Serif" font-size="9.00" fill="#6b6a66">dequeue</text>
</g>
<!-- shared_queue&#45;&gt;worker2 -->
<g id="edge5" class="edge">
<title>shared_queue&#45;&gt;worker2</title>
<path fill="none" stroke="#0f6e56" d="M399.53,-368.32C434.79,-354.39 477.13,-337.66 510.27,-324.56"/>
<polygon fill="#0f6e56" stroke="#0f6e56" points="399.04,-365.88 393.43,-370.73 400.84,-370.44 399.04,-365.88"/>
<polygon fill="#0f6e56" stroke="#0f6e56" points="511.03,-326.9 516.64,-322.04 509.23,-322.34 511.03,-326.9"/>
<text text-anchor="middle" x="455.06" y="-360.13" font-family="Helvetica,sans-Serif" font-size="9.00" fill="#6b6a66">dequeue</text>
</g>
<!-- shared_queue&#45;&gt;workerN -->
<g id="edge6" class="edge">
<title>shared_queue&#45;&gt;workerN</title>
<path fill="none" stroke="#0f6e56" d="M394.72,-444.45C431.35,-472.31 476.77,-506.85 511.6,-533.34"/>
<polygon fill="#0f6e56" stroke="#0f6e56" points="396.33,-442.59 389.27,-440.3 393.36,-446.49 396.33,-442.59"/>
<polygon fill="#0f6e56" stroke="#0f6e56" points="509.72,-534.99 516.78,-537.28 512.69,-531.09 509.72,-534.99"/>
<text text-anchor="middle" x="455.06" y="-514.29" font-family="Helvetica,sans-Serif" font-size="9.00" fill="#6b6a66">dequeue</text>
</g>
<!-- note -->
<g id="node11" class="node">
<title>note</title>
<path fill="none" stroke="none" d="M164.19,-578.6C164.19,-578.6 12,-578.6 12,-578.6 6,-578.6 0,-572.6 0,-566.6 0,-566.6 0,-334.6 0,-334.6 0,-328.6 6,-322.6 12,-322.6 12,-322.6 164.19,-322.6 164.19,-322.6 170.19,-322.6 176.19,-328.6 176.19,-334.6 176.19,-334.6 176.19,-566.6 176.19,-566.6 176.19,-572.6 170.19,-578.6 164.19,-578.6"/>
<text text-anchor="start" x="52.8" y="-560.6" font-family="Helvetica,sans-Serif" font-weight="bold" font-size="10.00" fill="#854f0b">Key Properties</text>
<text text-anchor="start" x="10" y="-531.6" font-family="Helvetica,sans-Serif" font-size="10.00" fill="#6b6a66">1. Accept never blocks workers</text>
<text text-anchor="start" x="10" y="-503.6" font-family="Helvetica,sans-Serif" font-size="10.00" fill="#6b6a66">2. Each SSE client = 1 pthread</text>
<text text-anchor="start" x="10" y="-475.6" font-family="Helvetica,sans-Serif" font-size="10.00" fill="#6b6a66">3. SSE threads are detached</text>
<text text-anchor="start" x="10" y="-447.6" font-family="Helvetica,sans-Serif" font-size="10.00" fill="#6b6a66">4. Watcher is 1 thread total</text>
<text text-anchor="start" x="10" y="-419.6" font-family="Helvetica,sans-Serif" font-size="10.00" fill="#6b6a66">5. Log consumer = 1 thread</text>
<text text-anchor="start" x="10" y="-391.6" font-family="Helvetica,sans-Serif" font-size="10.00" fill="#6b6a66">6. Queue full → accept() blocks (!)</text>
<text text-anchor="start" x="10" y="-363.6" font-family="Helvetica,sans-Serif" font-size="10.00" fill="#6b6a66">7. g_shutdown atomic kills all loops</text>
<text text-anchor="start" x="10" y="-335.6" font-family="Helvetica,sans-Serif" font-size="10.00" fill="#6b6a66">8. Workers reuse TLS buffers</text>
</g>
</g>
</svg>
