<?xml version="1.0" encoding="UTF-8" standalone="no"?>
<!DOCTYPE svg PUBLIC "-//W3C//DTD SVG 1.1//EN"
 "http://www.w3.org/Graphics/SVG/1.1/DTD/svg11.dtd">
<!-- Generated by graphviz version 12.2.1 (20241206.2353)
 -->
<!-- Title: thread_model Pages: 1 -->
<svg width="950pt" height="583pt"
 viewBox="0.00 0.00 949.56 582.60" xmlns="http://www.w3.org/2000/svg" xmlns:xlink="http://www.w3.org/1999/xlink">
<g id="graph0" class="graph" transform="scale(1 1) rotate(0) translate(36 546.6)">
<title>thread_model</title>
<polygon fill="#1a1a1a" stroke="none" points="-36,36 -36,-546.6 913.56,-546.6 913.56,36 -36,36"/>
<text text-anchor="middle" x="63.53" y="-9.4" font-family="Helvetica,sans-Serif" font-size="18.00" fill="#dddddd">Thread Model</text>
<g id="clust1" class="cluster">
<title>cluster_main</title>
<polygon fill="#1a1a1a" stroke="#444444" stroke-dasharray="5,2" points="21.73,-74.6 21.73,-287.6 154.46,-287.6 154.46,-74.6 21.73,-74.6"/>
<text text-anchor="middle" x="85.06" y="-273.7" font-family="Helvetica,sans-Serif" font-size="11.00" fill="#ffcc66">Main Thread (process)</text>
</g>
<g id="clust2" class="cluster">
<title>cluster_pool</title>
<polygon fill="#1a1a1a" stroke="#444444" stroke-dasharray="5,2" points="258.69,-153.6 258.69,-502.6 616.36,-502.6 616.36,-153.6 258.69,-153.6"/>
<text text-anchor="middle" x="355.97" y="-488.7" font-family="Helvetica,sans-Serif" font-size="11.00" fill="#ffcc66">Thread Pool (configurable, default 4)</text>
</g>
<g id="clust3" class="cluster">
<title>cluster_dedicated</title>
<polygon fill="#1a1a1a" stroke="#444444" stroke-dasharray="5,2" points="757.17,-37.6 757.17,-386.6 869.56,-386.6 869.56,-37.6 757.17,-37.6"/>
<text text-anchor="middle" x="811.65" y="-372.7" font-family="Helvetica,sans-Serif" font-size="11.00" fill="#ffcc66">Dedicated Threads</text>
</g>
<!-- main_thread -->
<g id="node1" class="node">
<title>main_thread</title>
<path fill="#444444" stroke="none" d="M134.46,-258.6C134.46,-258.6 41.73,-258.6 41.73,-258.6 35.73,-258.6 29.73,-252.6 29.73,-246.6 29.73,-246.6 29.73,-94.6 29.73,-94.6 29.73,-88.6 35.73,-82.6 41.73,-82.6 41.73,-82.6 134.46,-82.6 134.46,-82.6 140.46,-82.6 146.46,-88.6 146.46,-94.6 146.46,-94.6 146.46,-246.6 146.46,-246.6 146.46,-252.6 140.46,-258.6 134.46,-258.6"/>
<polygon fill="#2d2d2d" stroke="none" points="29.73,-82.6 29.73,-258.6 146.46,-258.6 146.46,-82.6 29.73,-82.6"/>
<polygon fill="#5a3e1a" stroke="none" points="29.73,-236.6 29.73,-258.6 146.46,-258.6 146.46,-236.6 29.73,-236.6"/>
<polygon fill="none" stroke="#444444" points="29.73,-236.6 29.73,-258.6 146.46,-258.6 146.46,-236.6 29.73,-236.6"/>
<text text-anchor="start" x="58.65" y="-245.6" font-family="Helvetica,sans-Serif" font-weight="bold" font-size="10.00" fill="#ffffff">Main Thread</text>
<polygon fill="none" stroke="#444444" points="29.73,-214.6 29.73,-236.6 146.46,-236.6 146.46,-214.6 29.73,-214.6"/>
<text text-anchor="start" x="34.73" y="-222.6" font-family="Helvetica,sans-Serif" font-size="10.00" fill="#dddddd">parse CLI args (argp)</text>
<polygon fill="none" stroke="#444444" points="29.73,-192.6 29.73,-214.6 146.46,-214.6 146.46,-192.6 29.73,-192.6"/>
<text text-anchor="start" x="34.73" y="-200.6" font-family="Helvetica,sans-Serif" font-size="10.00" fill="#dddddd">log_init()</text>
<polygon fill="none" stroke="#444444" points="29.73,-170.6 29.73,-192.6 146.46,-192.6 146.46,-170.6 29.73,-170.6"/>
<text text-anchor="start" x="34.73" y="-178.6" font-family="Helvetica,sans-Serif" font-size="10.00" fill="#dddddd">make_listener()</text>
<polygon fill="none" stroke="#444444" points="29.73,-148.6 29.73,-170.6 146.46,-170.6 146.46,-148.6 29.73,-148.6"/>
<text text-anchor="start" x="34.73" y="-156.6" font-family="Helvetica,sans-Serif" font-size="10.00" fill="#dddddd">livereload_start()</text>
<polygon fill="none" stroke="#444444" points="29.73,-126.6 29.73,-148.6 146.46,-148.6 146.46,-126.6 29.73,-126.6"/>
<text text-anchor="start" x="34.73" y="-134.6" font-family="Helvetica,sans-Serif" font-size="10.00" fill="#dddddd">thread_pool_create()</text>
<polygon fill="none" stroke="#444444" points="29.73,-104.6 29.73,-126.6 146.46,-126.6 146.46,-104.6 29.73,-104.6"/>
<text text-anchor="start" x="34.73" y="-112.6" font-family="Helvetica,sans-Serif" font-size="10.00" fill="#dddddd">accept() loop</text>
<polygon fill="none" stroke="#444444" points="29.73,-82.6 29.73,-104.6 146.46,-104.6 146.46,-82.6 29.73,-82.6"/>
<text text-anchor="start" x="34.73" y="-90.6" font-family="Helvetica,sans-Serif" font-size="10.00" fill="#dddddd">submit ClientJob to pool</text>
</g>
<!-- shared_queue -->
<g id="node6" class="node">
<title>shared_queue</title>
<path fill="#444444" stroke="none" d="M380.29,-346.6C380.29,-346.6 278.69,-346.6 278.69,-346.6 272.69,-346.6 266.69,-340.6 266.69,-334.6 266.69,-334.6 266.69,-270.6 266.69,-270.6 266.69,-264.6 272.69,-258.6 278.69,-258.6 278.69,-258.6 380.29,-258.6 380.29,-258.6 386.29,-258.6 392.29,-264.6 392.29,-270.6 392.29,-270.6 392.29,-334.6 392.29,-334.6 392.29,-340.6 386.29,-346.6 380.29,-346.6"/>
<polygon fill="#1e3a5f" stroke="none" points="266.69,-258.6 266.69,-346.6 392.29,-346.6 392.29,-258.6 266.69,-258.6"/>
<polygon fill="#1e3a5f" stroke="none" points="266.69,-324.6 266.69,-346.6 392.29,-346.6 392.29,-324.6 266.69,-324.6"/>
<polygon fill="none" stroke="#444444" points="266.69,-324.6 266.69,-346.6 392.29,-346.6 392.29,-324.6 266.69,-324.6"/>
<text text-anchor="start" x="300.05" y="-333.6" font-family="Helvetica,sans-Serif" font-weight="bold" font-size="10.00" fill="#ffffff">Work Queue</text>
<polygon fill="none" stroke="#444444" points="266.69,-302.6 266.69,-324.6 392.29,-324.6 392.29,-302.6 266.69,-302.6"/>
<text text-anchor="start" x="271.69" y="-310.6" font-family="Helvetica,sans-Serif" font-size="10.00" fill="#dddddd">circular buffer (4096 slots)</text>
<polygon fill="none" stroke="#444444" points="266.69,-280.6 266.69,-302.6 392.29,-302.6 392.29,-280.6 266.69,-280.6"/>
<text text-anchor="start" x="271.69" y="-288.6" font-family="Helvetica,sans-Serif" font-size="10.00" fill="#dddddd">mutex + 2 condvars</text>
<polygon fill="none" stroke="#444444" points="266.69,-258.6 266.69,-280.6 392.29,-280.6 392.29,-258.6 266.69,-258.6"/>
<text text-anchor="start" x="271.69" y="-266.6" font-family="Helvetica,sans-Serif" font-size="10.00" fill="#dddddd">queued: ClientJob*</text>
</g>
<!-- main_thread&#45;&gt;shared_queue -->
<g id="edge1" class="edge">
<title>main_thread&#45;&gt;shared_queue</title>
<path fill="none" stroke="#88cc88" d="M146.44,-202.22C179.69,-220.55 221.85,-243.8 257.23,-263.3"/>
<polygon fill="#88cc88" stroke="#88cc88" points="255.24,-266.21 265.69,-267.97 258.62,-260.08 255.24,-266.21"/>
<text text-anchor="middle" x="221.44" y="-255" font-family="Helvetica,sans-Serif" font-size="9.00" fill="#999999">submit()</text>
</g>
<!-- watcher_thread -->
<g id="node7" class="node">
<title>watcher_thread</title>
<path fill="#444444" stroke="none" d="M844.84,-125.6C844.84,-125.6 781.9,-125.6 781.9,-125.6 775.9,-125.6 769.9,-119.6 769.9,-113.6 769.9,-113.6 769.9,-57.6 769.9,-57.6 769.9,-51.6 775.9,-45.6 781.9,-45.6 781.9,-45.6 844.84,-45.6 844.84,-45.6 850.84,-45.6 856.84,-51.6 856.84,-57.6 856.84,-57.6 856.84,-113.6 856.84,-113.6 856.84,-119.6 850.84,-125.6 844.84,-125.6"/>
<polygon fill="#2d2d2d" stroke="none" points="769.9,-45.6 769.9,-125.6 856.84,-125.6 856.84,-45.6 769.9,-45.6"/>
<polygon fill="#2a4a3a" stroke="none" points="769.9,-105.6 769.9,-125.6 856.84,-125.6 856.84,-105.6 769.9,-105.6"/>
<polygon fill="none" stroke="#444444" points="769.9,-105.6 769.9,-125.6 856.84,-125.6 856.84,-105.6 769.9,-105.6"/>
<text text-anchor="start" x="775.58" y="-113.6" font-family="Helvetica,sans-Serif" font-weight="bold" font-size="10.00" fill="#ffffff">Watcher Thread</text>
<polygon fill="none" stroke="#444444" points="769.9,-85.6 769.9,-105.6 856.84,-105.6 856.84,-85.6 769.9,-85.6"/>
<text text-anchor="start" x="773.9" y="-92.6" font-family="Helvetica,sans-Serif" font-size="10.00" fill="#dddddd">inotify or poll</text>
<polygon fill="none" stroke="#444444" points="769.9,-65.6 769.9,-85.6 856.84,-85.6 856.84,-65.6 769.9,-65.6"/>
<text text-anchor="start" x="773.9" y="-72.6" font-family="Helvetica,sans-Serif" font-size="10.00" fill="#dddddd">select() on events</text>
<polygon fill="none" stroke="#444444" points="769.9,-45.6 769.9,-65.6 856.84,-65.6 856.84,-45.6 769.9,-45.6"/>
<text text-anchor="start" x="773.9" y="-52.6" font-family="Helvetica,sans-Serif" font-size="10.00" fill="#dddddd">calls on_change()</text>
</g>
<!-- main_thread&#45;&gt;watcher_thread -->
<g id="edge2" class="edge">
<title>main_thread&#45;&gt;watcher_thread</title>
<path fill="none" stroke="#88cc88" stroke-dasharray="5,2" d="M146.31,-161.16C179.14,-155.91 221.18,-149.47 258.69,-144.6 441.73,-120.83 659.74,-99.7 758.73,-90.49"/>
<polygon fill="#88cc88" stroke="#88cc88" points="758.78,-94 768.41,-89.59 758.13,-87.03 758.78,-94"/>
<text text-anchor="middle" x="451.3" y="-127.59" font-family="Helvetica,sans-Serif" font-size="9.00" fill="#999999">watcher_start()</text>
</g>
<!-- worker1 -->
<g id="node2" class="node">
<title>worker1</title>
<path fill="#444444" stroke="none" d="M596.36,-357.6C596.36,-357.6 522.31,-357.6 522.31,-357.6 516.31,-357.6 510.31,-351.6 510.31,-345.6 510.31,-345.6 510.31,-289.6 510.31,-289.6 510.31,-283.6 516.31,-277.6 522.31,-277.6 522.31,-277.6 596.36,-277.6 596.36,-277.6 602.36,-277.6 608.36,-283.6 608.36,-289.6 608.36,-289.6 608.36,-345.6 608.36,-345.6 608.36,-351.6 602.36,-357.6 596.36,-357.6"/>
<polygon fill="#2d2d2d" stroke="none" points="510.31,-277.6 510.31,-357.6 608.36,-357.6 608.36,-277.6 510.31,-277.6"/>
<polygon fill="#3d2b1a" stroke="none" points="510.31,-337.6 510.31,-357.6 608.36,-357.6 608.36,-337.6 510.31,-337.6"/>
<polygon fill="none" stroke="#444444" points="510.31,-337.6 510.31,-357.6 608.36,-357.6 608.36,-337.6 510.31,-337.6"/>
<text text-anchor="start" x="537.94" y="-345.6" font-family="Helvetica,sans-Serif" font-weight="bold" font-size="10.00" fill="#ffffff">Worker 1</text>
<polygon fill="none" stroke="#444444" points="510.31,-317.6 510.31,-337.6 608.36,-337.6 608.36,-317.6 510.31,-317.6"/>
<text text-anchor="start" x="514.31" y="-324.6" font-family="Helvetica,sans-Serif" font-size="10.00" fill="#dddddd">pull task from queue</text>
<polygon fill="none" stroke="#444444" points="510.31,-297.6 510.31,-317.6 608.36,-317.6 608.36,-297.6 510.31,-297.6"/>
<text text-anchor="start" x="514.31" y="-304.6" font-family="Helvetica,sans-Serif" font-size="10.00" fill="#dddddd">handle_client()</text>
<polygon fill="none" stroke="#444444" points="510.31,-277.6 510.31,-297.6 608.36,-297.6 608.36,-277.6 510.31,-277.6"/>
<text text-anchor="start" x="514.31" y="-284.6" font-family="Helvetica,sans-Serif" font-size="10.00" fill="#dddddd">keep&#45;alive loop</text>
</g>
<!-- sse1 -->
<g id="node8" class="node">
<title>sse1</title>
<path fill="#444444" stroke="none" d="M849.56,-357.6C849.56,-357.6 777.17,-357.6 777.17,-357.6 771.17,-357.6 765.17,-351.6 765.17,-345.6 765.17,-345.6 765.17,-289.6 765.17,-289.6 765.17,-283.6 771.17,-277.6 777.17,-277.6 777.17,-277.6 849.56,-277.6 849.56,-277.6 855.56,-277.6 861.56,-283.6 861.56,-289.6 861.56,-289.6 861.56,-345.6 861.56,-345.6 861.56,-351.6 855.56,-357.6 849.56,-357.6"/>
<polygon fill="#2d2d2d" stroke="none" points="765.17,-277.6 765.17,-357.6 861.56,-357.6 861.56,-277.6 765.17,-277.6"/>
<polygon fill="#2a4a3a" stroke="none" points="765.17,-337.6 765.17,-357.6 861.56,-357.6 861.56,-337.6 765.17,-337.6"/>
<polygon fill="none" stroke="#444444" points="765.17,-337.6 765.17,-357.6 861.56,-357.6 861.56,-337.6 765.17,-337.6"/>
<text text-anchor="start" x="783.09" y="-345.6" font-family="Helvetica,sans-Serif" font-weight="bold" font-size="10.00" fill="#ffffff">SSE Client A</text>
<polygon fill="none" stroke="#444444" points="765.17,-317.6 765.17,-337.6 861.56,-337.6 861.56,-317.6 765.17,-317.6"/>
<text text-anchor="start" x="769.17" y="-324.6" font-family="Helvetica,sans-Serif" font-size="10.00" fill="#dddddd">dedicated pthread</text>
<polygon fill="none" stroke="#444444" points="765.17,-297.6 765.17,-317.6 861.56,-317.6 861.56,-297.6 765.17,-297.6"/>
<text text-anchor="start" x="769.17" y="-304.6" font-family="Helvetica,sans-Serif" font-size="10.00" fill="#dddddd">heartbeat every 15s</text>
<polygon fill="none" stroke="#444444" points="765.17,-277.6 765.17,-297.6 861.56,-297.6 861.56,-277.6 765.17,-277.6"/>
<text text-anchor="start" x="769.17" y="-284.6" font-family="Helvetica,sans-Serif" font-size="10.00" fill="#dddddd">reads no data</text>
</g>
<!-- worker1&#45;&gt;sse1 -->
<g id="edge6" class="edge">
<title>worker1&#45;&gt;sse1</title>
<path fill="none" stroke="#8888cc" stroke-dasharray="5,2" d="M608.33,-317.6C649.76,-317.6 709.74,-317.6 753.95,-317.6"/>
<polygon fill="#8888cc" stroke="#8888cc" points="753.89,-321.1 763.89,-317.6 753.89,-314.1 753.89,-321.1"/>
<text text-anchor="middle" x="686.77" y="-331.1" font-family="Helvetica,sans-Serif" font-size="9.00" fill="#999999">SSE client detected</text>
<text text-anchor="middle" x="686.77" y="-320.3" font-family="Helvetica,sans-Serif" font-size="9.00" fill="#999999">pthread_create()+detach</text>
</g>
<!-- worker2 -->
<g id="node3" class="node">
<title>worker2</title>
<path fill="#444444" stroke="none" d="M596.36,-241.6C596.36,-241.6 522.31,-241.6 522.31,-241.6 516.31,-241.6 510.31,-235.6 510.31,-229.6 510.31,-229.6 510.31,-173.6 510.31,-173.6 510.31,-167.6 516.31,-161.6 522.31,-161.6 522.31,-161.6 596.36,-161.6 596.36,-161.6 602.36,-161.6 608.36,-167.6 608.36,-173.6 608.36,-173.6 608.36,-229.6 608.36,-229.6 608.36,-235.6 602.36,-241.6 596.36,-241.6"/>
<polygon fill="#2d2d2d" stroke="none" points="510.31,-161.6 510.31,-241.6 608.36,-241.6 608.36,-161.6 510.31,-161.6"/>
<polygon fill="#3d2b1a" stroke="none" points="510.31,-221.6 510.31,-241.6 608.36,-241.6 608.36,-221.6 510.31,-221.6"/>
<polygon fill="none" stroke="#444444" points="510.31,-221.6 510.31,-241.6 608.36,-241.6 608.36,-221.6 510.31,-221.6"/>
<text text-anchor="start" x="537.94" y="-229.6" font-family="Helvetica,sans-Serif" font-weight="bold" font-size="10.00" fill="#ffffff">Worker 2</text>
<polygon fill="none" stroke="#444444" points="510.31,-201.6 510.31,-221.6 608.36,-221.6 608.36,-201.6 510.31,-201.6"/>
<text text-anchor="start" x="514.31" y="-208.6" font-family="Helvetica,sans-Serif" font-size="10.00" fill="#dddddd">pull task from queue</text>
<polygon fill="none" stroke="#444444" points="510.31,-181.6 510.31,-201.6 608.36,-201.6 608.36,-181.6 510.31,-181.6"/>
<text text-anchor="start" x="514.31" y="-188.6" font-family="Helvetica,sans-Serif" font-size="10.00" fill="#dddddd">handle_client()</text>
<polygon fill="none" stroke="#444444" points="510.31,-161.6 510.31,-181.6 608.36,-181.6 608.36,-161.6 510.31,-161.6"/>
<text text-anchor="start" x="514.31" y="-168.6" font-family="Helvetica,sans-Serif" font-size="10.00" fill="#dddddd">keep&#45;alive loop</text>
</g>
<!-- sse2 -->
<g id="node9" class="node">
<title>sse2</title>
<path fill="#444444" stroke="none" d="M849.56,-241.6C849.56,-241.6 777.17,-241.6 777.17,-241.6 771.17,-241.6 765.17,-235.6 765.17,-229.6 765.17,-229.6 765.17,-173.6 765.17,-173.6 765.17,-167.6 771.17,-161.6 777.17,-161.6 777.17,-161.6 849.56,-161.6 849.56,-161.6 855.56,-161.6 861.56,-167.6 861.56,-173.6 861.56,-173.6 861.56,-229.6 861.56,-229.6 861.56,-235.6 855.56,-241.6 849.56,-241.6"/>
<polygon fill="#2d2d2d" stroke="none" points="765.17,-161.6 765.17,-241.6 861.56,-241.6 861.56,-161.6 765.17,-161.6"/>
<polygon fill="#2a4a3a" stroke="none" points="765.17,-221.6 765.17,-241.6 861.56,-241.6 861.56,-221.6 765.17,-221.6"/>
<polygon fill="none" stroke="#444444" points="765.17,-221.6 765.17,-241.6 861.56,-241.6 861.56,-221.6 765.17,-221.6"/>
<text text-anchor="start" x="783.09" y="-229.6" font-family="Helvetica,sans-Serif" font-weight="bold" font-size="10.00" fill="#ffffff">SSE Client B</text>
<polygon fill="none" stroke="#444444" points="765.17,-201.6 765.17,-221.6 861.56,-221.6 861.56,-201.6 765.17,-201.6"/>
<text text-anchor="start" x="769.17" y="-208.6" font-family="Helvetica,sans-Serif" font-size="10.00" fill="#dddddd">dedicated pthread</text>
<polygon fill="none" stroke="#444444" points="765.17,-181.6 765.17,-201.6 861.56,-201.6 861.56,-181.6 765.17,-181.6"/>
<text text-anchor="start" x="769.17" y="-188.6" font-family="Helvetica,sans-Serif" font-size="10.00" fill="#dddddd">heartbeat every 15s</text>
<polygon fill="none" stroke="#444444" points="765.17,-161.6 765.17,-181.6 861.56,-181.6 861.56,-161.6 765.17,-161.6"/>
<text text-anchor="start" x="769.17" y="-168.6" font-family="Helvetica,sans-Serif" font-size="10.00" fill="#dddddd">reads no data</text>
</g>
<!-- worker2&#45;&gt;sse2 -->
<g id="edge7" class="edge">
<title>worker2&#45;&gt;sse2</title>
<path fill="none" stroke="#8888cc" stroke-dasharray="5,2" d="M608.33,-201.6C649.76,-201.6 709.74,-201.6 753.95,-201.6"/>
<polygon fill="#8888cc" stroke="#8888cc" points="753.89,-205.1 763.89,-201.6 753.89,-198.1 753.89,-205.1"/>
<text text-anchor="middle" x="686.77" y="-215.1" font-family="Helvetica,sans-Serif" font-size="9.00" fill="#999999">SSE client detected</text>
<text text-anchor="middle" x="686.77" y="-204.3" font-family="Helvetica,sans-Serif" font-size="9.00" fill="#999999">pthread_create()+detach</text>
</g>
<!-- worker_dots -->
<g id="node4" class="node">
<title>worker_dots</title>
<path fill="#2d2d2d" stroke="none" d="M331.44,-193C331.44,-193 327.55,-193 327.55,-193 325.6,-193 323.66,-191.06 323.66,-189.11 323.66,-189.11 323.66,-180.09 323.66,-180.09 323.66,-178.14 325.6,-176.2 327.55,-176.2 327.55,-176.2 331.44,-176.2 331.44,-176.2 333.38,-176.2 335.33,-178.14 335.33,-180.09 335.33,-180.09 335.33,-189.11 335.33,-189.11 335.33,-191.06 333.38,-193 331.44,-193"/>
<text text-anchor="middle" x="329.49" y="-180.4" font-family="Helvetica,sans-Serif" font-size="14.00" fill="#dddddd">...</text>
</g>
<!-- workerN -->
<g id="node5" class="node">
<title>workerN</title>
<path fill="#444444" stroke="none" d="M596.36,-473.6C596.36,-473.6 522.31,-473.6 522.31,-473.6 516.31,-473.6 510.31,-467.6 510.31,-461.6 510.31,-461.6 510.31,-405.6 510.31,-405.6 510.31,-399.6 516.31,-393.6 522.31,-393.6 522.31,-393.6 596.36,-393.6 596.36,-393.6 602.36,-393.6 608.36,-399.6 608.36,-405.6 608.36,-405.6 608.36,-461.6 608.36,-461.6 608.36,-467.6 602.36,-473.6 596.36,-473.6"/>
<polygon fill="#2d2d2d" stroke="none" points="510.31,-393.6 510.31,-473.6 608.36,-473.6 608.36,-393.6 510.31,-393.6"/>
<polygon fill="#3d2b1a" stroke="none" points="510.31,-453.6 510.31,-473.6 608.36,-473.6 608.36,-453.6 510.31,-453.6"/>
<polygon fill="none" stroke="#444444" points="510.31,-453.6 510.31,-473.6 608.36,-473.6 608.36,-453.6 510.31,-453.6"/>
<text text-anchor="start" x="537.11" y="-461.6" font-family="Helvetica,sans-Serif" font-weight="bold" font-size="10.00" fill="#ffffff">Worker N</text>
<polygon fill="none" stroke="#444444" points="510.31,-433.6 510.31,-453.6 608.36,-453.6 608.36,-433.6 510.31,-433.6"/>
<text text-anchor="start" x="514.31" y="-440.6" font-family="Helvetica,sans-Serif" font-size="10.00" fill="#dddddd">pull task from queue</text>
<polygon fill="none" stroke="#444444" points="510.31,-413.6 510.31,-433.6 608.36,-433.6 608.36,-413.6 510.31,-413.6"/>
<text text-anchor="start" x="514.31" y="-420.6" font-family="Helvetica,sans-Serif" font-size="10.00" fill="#dddddd">handle_client()</text>
<polygon fill="none" stroke="#444444" points="510.31,-393.6 510.31,-413.6 608.36,-413.6 608.36,-393.6 510.31,-393.6"/>
<text text-anchor="start" x="514.31" y="-400.6" font-family="Helvetica,sans-Serif" font-size="10.00" fill="#dddddd">keep&#45;alive loop</text>
</g>
<!-- shared_queue&#45;&gt;worker1 -->
<g id="edge3" class="edge">
<title>shared_queue&#45;&gt;worker1</title>
<path fill="none" stroke="#88cc88" d="M403.29,-307.39C434.2,-309.43 469.79,-311.77 499.06,-313.7"/>
<polygon fill="#88cc88" stroke="#88cc88" points="403.87,-303.92 393.66,-306.76 403.41,-310.91 403.87,-303.92"/>
<polygon fill="#88cc88" stroke="#88cc88" points="498.64,-317.18 508.85,-314.34 499.1,-310.19 498.64,-317.18"/>
<text text-anchor="middle" x="451.3" y="-315.02" font-family="Helvetica,sans-Serif" font-size="9.00" fill="#999999">dequeue</text>
</g>
<!-- shared_queue&#45;&gt;worker2 -->
<g id="edge4" class="edge">
<title>shared_queue&#45;&gt;worker2</title>
<path fill="none" stroke="#88cc88" d="M402.38,-270.73C433.88,-256.77 470.37,-240.59 500.13,-227.4"/>
<polygon fill="#88cc88" stroke="#88cc88" points="401.26,-267.4 393.53,-274.65 404.09,-273.8 401.26,-267.4"/>
<polygon fill="#88cc88" stroke="#88cc88" points="501.25,-230.73 508.97,-223.48 498.41,-224.33 501.25,-230.73"/>
<text text-anchor="middle" x="451.3" y="-263.85" font-family="Helvetica,sans-Serif" font-size="9.00" fill="#999999">dequeue</text>
</g>
<!-- shared_queue&#45;&gt;workerN -->
<g id="edge5" class="edge">
<title>shared_queue&#45;&gt;workerN</title>
<path fill="none" stroke="#88cc88" d="M401.93,-343.67C433.65,-361.91 470.51,-383.11 500.48,-400.33"/>
<polygon fill="#88cc88" stroke="#88cc88" points="403.88,-340.76 393.46,-338.8 400.39,-346.82 403.88,-340.76"/>
<polygon fill="#88cc88" stroke="#88cc88" points="498.63,-403.31 509.04,-405.26 502.12,-397.24 498.63,-403.31"/>
<text text-anchor="middle" x="451.3" y="-390.19" font-family="Helvetica,sans-Serif" font-size="9.00" fill="#999999">dequeue</text>
</g>
<!-- note -->
<g id="node10" class="node">
<title>note</title>
<path fill="none" stroke="none" d="M164.19,-495.6C164.19,-495.6 12,-495.6 12,-495.6 6,-495.6 0,-489.6 0,-483.6 0,-483.6 0,-307.6 0,-307.6 0,-301.6 6,-295.6 12,-295.6 12,-295.6 164.19,-295.6 164.19,-295.6 170.19,-295.6 176.19,-301.6 176.19,-307.6 176.19,-307.6 176.19,-483.6 176.19,-483.6 176.19,-489.6 170.19,-495.6 164.19,-495.6"/>
<text text-anchor="start" x="52.8" y="-477.6" font-family="Helvetica,sans-Serif" font-weight="bold" font-size="10.00" fill="#ffcc66">Key Properties</text>
<text text-anchor="start" x="10" y="-448.6" font-family="Helvetica,sans-Serif" font-size="10.00" fill="#dddddd">1. Accept never blocks workers</text>
<text text-anchor="start" x="10" y="-420.6" font-family="Helvetica,sans-Serif" font-size="10.00" fill="#dddddd">2. Each SSE client = 1 pthread</text>
<text text-anchor="start" x="10" y="-392.6" font-family="Helvetica,sans-Serif" font-size="10.00" fill="#dddddd">3. SSE threads are detached</text>
<text text-anchor="start" x="10" y="-364.6" font-family="Helvetica,sans-Serif" font-size="10.00" fill="#dddddd">4. Watcher is 1 thread total</text>
<text text-anchor="start" x="10" y="-336.6" font-family="Helvetica,sans-Serif" font-size="10.00" fill="#dddddd">5. Queue full → accept() blocks (!)</text>
<text text-anchor="start" x="10" y="-308.6" font-family="Helvetica,sans-Serif" font-size="10.00" fill="#dddddd">6. g_shutdown atomic kills all loops</text>
</g>
</g>
</svg>
